<?xml version="1.0" encoding="utf-8"?>
<svg viewBox="15.026 28.314 457.078 295.001" width="457.078" height="295.001" xmlns="http://www.w3.org/2000/svg">
  <g class="layer" transform="matrix(0.902094, 0, 0, 0.893122, -26.974674, -31.328009)" style="">
    <title>Layer 1</title>
    <path d="m77,148c0,2.063995 0,2.772003 0,3.647995c0,0.508499 0,2.352005 0,3.082001c0,0.790009 0,1.639999 0,2.550003c0,0.970001 0,2 0,3.089996c0,1.150009 0,3.630005 0,4.958511c0,1.379486 0,2.800995 0,4.255493c0,1.4785 0,2.972 0,4.471497c0,1.496506 0,4.444504 0,5.880508c0,1.412003 0,2.806 0,4.187988c0,1.376007 0,2.752014 0,4.134003c0,1.393997 0,4.242004 0,5.706833c0,1.493835 0,3.015671 0,4.564499c0,1.574844 0,3.174667 0,4.798508c0,1.646835 0,5.005493 0,6.714828c0,1.725342 0,3.462677 0,5.208008c0,1.749329 0,3.498657 0,5.243988c0,1.737335 -0.001015,5.172012 0.000332,6.862335c0.001331,1.672333 0.004589,3.328705 0.021,4.971008c0.016289,1.630371 0.043571,3.250854 0.093002,4.862991c0.049259,1.606567 0.210846,4.809586 0.328331,6.408173c0.117207,1.594788 0.259731,3.178604 0.408001,4.747498c0.146431,1.549438 0.300999,3.073105 0.444,4.567505c0.13961,1.458954 0.379673,4.251999 0.462334,5.578171c0.079735,1.279221 0.13422,2.517151 0.171001,3.716995c0.035728,1.165512 0.053604,2.3013 0.063,3.410995c0.009209,1.087646 0.008999,3.212997 0.008999,4.258499c0,1.038498 0,2.073013 0,3.106491c0,1.035522 0,2.076019 0,3.124512c0,1.059509 0,3.223511 0,4.333008c0,1.126495 0,2.266998 0,3.418488c0,1.159515 0,2.324005 0,3.490509c0,1.165497 0,3.481506 0,4.626984c0,1.138519 0,2.27301 0,3.406525c0,1.135498 0,2.276001 0,3.4245c0,1.159485 -0.001472,3.523499 0.0005,4.733307c0.002007,1.228851 0.007195,2.475769 0.031502,3.739502c0.02462,1.279968 0.065948,2.575195 0.1395,3.883514c0.074345,1.322449 0.316624,4.001984 0.492664,5.354828c0.177227,1.361969 0.392971,2.723541 0.622501,4.083008c0.228821,1.355255 0.474201,2.698517 0.712502,4.028992c0.235023,1.312195 0.673851,3.866028 0.857998,5.102325c0.179703,1.206421 0.335594,2.388336 0.481499,3.546021c0.143047,1.13501 0.274529,2.250854 0.4095,3.347992c0.133049,1.081512 0.413982,3.204681 0.57317,4.249329c0.158176,1.038025 0.330193,2.068848 0.503998,3.096008c0.173531,1.025513 0.351597,2.050293 0.521999,3.078003c0.17094,1.030975 0.490925,3.113312 0.631168,4.168671c0.141125,1.062012 0.267403,2.130981 0.385498,3.203979c0.118244,1.074341 0.226627,2.149231 0.331501,3.222015c0.104458,1.068542 0.303875,3.186066 0.404499,4.230499c0.099384,1.031555 0.198887,2.047119 0.300003,3.043488c0.098907,0.97464 0.198277,1.924194 0.299999,2.84552c0.098335,0.890656 0.297272,2.566864 0.399998,3.346313c0.097412,0.739166 0.196487,1.436218 0.300003,2.089508c0.096718,0.610352 0.195213,1.175598 0.299995,1.693512c0.095642,0.472748 0.293503,1.272552 0.399834,1.596497c0.093178,0.283905 0.192169,0.527588 0.289505,0.737976c0.086731,0.187469 0.175858,0.35141 0.253494,0.504028c0.07296,0.143433 0.195023,0.430725 0.23584,0.586487c0.042015,0.160339 0.069489,0.326874 0.096001,0.4935c0.026146,0.164368 0.047569,0.324585 0.077995,0.475494c0.028458,0.141113 0.105888,0.381958 0.168999,0.466827c0.058044,0.078064 0.137016,0.135315 0.224998,0.171021c0.092407,0.037506 0.199707,0.053894 0.315002,0.062988c0.124771,0.009857 0.404999,0.009003 0.561668,0.009003c0.176666,0 0.383331,0 0.629997,0c0.296669,0 0.653336,0 1.080002,0c0.506668,0 1.800003,0 2.603836,0c0.90683,0 1.909668,0 3.001495,0c1.173836,0 2.422668,0 3.739502,0c1.377831,0 4.288498,0 5.808998,0c1.563499,0 3.173004,0 4.831505,0c1.710495,0 3.475998,0 5.2995,0c1.884499,0 5.848495,0 7.932663,0c2.14917,0 4.358337,0 6.622505,0c2.314163,0 4.673332,0 7.072495,0c2.434166,0 7.387505,0 9.897499,0c2.530006,0 5.080009,0 7.650002,0c2.589996,0 5.199997,0 7.830002,0c2.649994,0 8.009995,0 10.720169,0c2.731171,0 5.484329,0 8.260498,0c2.800171,0 5.625336,0 8.476501,0c2.878159,0 8.719498,0 11.682159,0c2.978668,0 5.959335,0 8.928009,0c2.942657,0 5.845322,0 8.694,0c2.780655,0 8.082001,0 10.578003,0c2.391998,0 4.685989,0 6.887985,0c2.116013,0 4.152008,0 6.114014,0c1.893997,0 5.501999,0 7.227661,0c1.679672,0 3.317337,0 4.916992,0c1.565674,0 3.101334,0 4.611008,0c1.487671,0 4.412994,0 5.85733,0c1.430328,0 2.842667,0 4.233002,0c1.364334,0 2.698669,0 3.999008,0c1.262329,0 3.656982,0 4.78183,0c1.073822,0 2.095673,0 3.064484,0c0.914856,0 1.774689,0 2.578522,0c0.746826,0 2.065491,0 2.636169,0c0.514648,0 0.977325,0 1.391998,0c0.370667,0 0.701324,0 0.996002,0c0.262665,0 0.707977,0 0.898315,0c0.172333,0 0.328674,0 0.471008,0c0.130341,0 0.250671,0 0.363007,0c0.106323,0 0.30899,0.000519 0.408997,-0.000153c0.100006,-0.000671 0.200134,-0.00235 0.299988,-0.010529c0.100189,-0.008179 0.200775,-0.022034 0.300018,-0.046478c0.100861,-0.024841 0.302063,-0.105865 0.399994,-0.16452c0.102325,-0.061279 0.202362,-0.137238 0.299988,-0.224976c0.1026,-0.092194 0.202393,-0.197968 0.300018,-0.315002c0.102539,-0.122925 0.302246,-0.403564 0.400146,-0.560333c0.103577,-0.165863 0.20639,-0.347565 0.310516,-0.546021c0.112396,-0.214172 0.226929,-0.44989 0.346497,-0.707977c0.129944,-0.280518 0.41098,-0.923401 0.564331,-1.289001c0.165405,-0.394348 0.338013,-0.819092 0.514496,-1.275024c0.187347,-0.484009 0.37793,-0.99884 0.568512,-1.544983c0.200256,-0.573822 0.599121,-1.813904 0.795319,-2.479004c0.202606,-0.68689 0.398285,-1.393311 0.589508,-2.112c0.192444,-0.723297 0.376587,-1.44751 0.553497,-2.165985c0.173737,-0.705566 0.493011,-2.057465 0.635651,-2.69519c0.13858,-0.619598 0.269165,-1.235413 0.385529,-1.861481c0.120117,-0.646271 0.230682,-1.328583 0.331482,-2.059509c0.109009,-0.790375 0.308136,-2.608154 0.404663,-3.657501c0.105103,-1.142639 0.205353,-2.373901 0.310516,-3.687012c0.111237,-1.388885 0.224182,-2.848083 0.346497,-4.371002c0.126984,-1.581085 0.406525,-4.89325 0.564331,-6.611664c0.160797,-1.750916 0.333099,-3.525574 0.514496,-5.315979c0.182251,-1.79895 0.372314,-3.597595 0.568512,-5.388c0.194489,-1.774933 0.593994,-5.244202 0.795319,-6.925171c0.197388,-1.648346 0.396942,-3.270172 0.589508,-4.873505c0.191101,-1.591003 0.378601,-3.17691 0.553497,-4.765503c0.175812,-1.596741 0.495819,-4.846039 0.635834,-6.511993c0.142731,-1.698059 0.271118,-3.432831 0.395996,-5.206512c0.127808,-1.815308 0.250366,-3.676025 0.377991,-5.584503c0.131042,-1.959503 0.41098,-6.043701 0.569,-8.17215c0.161926,-2.180908 0.336243,-4.40564 0.525024,-6.666016c0.191162,-2.289001 0.395233,-4.597778 0.61499,-6.917999c0.220215,-2.325104 0.700562,-6.954483 0.959503,-9.244492c0.257111,-2.274002 0.527527,-4.532944 0.793488,-6.781494c0.265015,-2.240448 0.52951,-4.475388 0.775513,-6.709503c0.245972,-2.233902 0.684967,-6.717804 0.867004,-8.972c0.182007,-2.25383 0.336121,-4.500793 0.481476,-6.730499c0.143616,-2.203308 0.273804,-4.372131 0.409515,-6.496506c0.132355,-2.07164 0.410614,-6.020172 0.573334,-7.880325c0.156281,-1.786514 0.329254,-3.502365 0.514496,-5.152496c0.17868,-1.591537 0.370178,-3.127274 0.568512,-4.612503c0.192474,-1.441422 0.593414,-4.207809 0.795502,-5.542831c0.197937,-1.307648 0.398254,-2.588943 0.599976,-3.846008c0.198303,-1.235611 0.398682,-2.450897 0.600006,-3.647995c0.1987,-1.181564 0.599548,-3.504074 0.799835,-4.648834c0.198395,-1.133911 0.396423,-2.255539 0.589508,-3.364502c0.190582,-1.094696 0.376709,-2.174332 0.553497,-3.238495c0.173859,-1.046509 0.49353,-3.085068 0.635651,-4.0755c0.13913,-0.969574 0.266083,-1.919769 0.385529,-2.850006c0.116821,-0.90979 0.225586,-1.799973 0.331482,-2.669998c0.103455,-0.849976 0.303711,-2.490112 0.404327,-3.279999c0.098083,-0.770096 0.196411,-1.519913 0.28952,-2.25c0.090546,-0.709915 0.177002,-1.399734 0.253479,-2.070007c0.074127,-0.649734 0.194336,-1.889725 0.235687,-2.479828c0.039856,-0.568588 0.066956,-1.115555 0.08548,-1.639496c0.01767,-0.499756 0.026764,-0.974655 0.031525,-1.423508c0.004486,-0.421814 0.004486,-1.180496 0.004486,-1.516159c0,-0.309677 0,-0.597336 0,-0.867004c0,-0.255661 0,-0.501328 0,-0.740997c0,-0.237671 0,-0.723007 0,-0.977676c0,-0.262665 0,-0.531326 0,-0.803986c0,-0.274673 0,-0.549347 0,-0.822006c0,-0.268661 -0.000549,-0.785995 0.000153,-1.031174c0.000671,-0.23616 0.002197,-0.464401 0.010529,-0.685501c0.008087,-0.215256 0.02533,-0.425323 0.046478,-0.631485l0.028168,-0.203171" fill="none" id="svg_6" stroke="#000000" stroke-width="5"/>
    <path d="m509,229c1,-1 1.774902,-1.19696 2.169342,-1.886673c0.469635,-0.821182 1.092987,-1.347549 1.497314,-2.446655c0.229309,-0.623398 0.275726,-1.391281 0.312012,-2.268005c0.020416,-0.493225 0.021332,-2.231995 0.021332,-2.906174c0,-0.719162 0,-1.478333 0,-2.272491c0,-0.824173 0,-1.67334 0,-2.542496c0,-0.884171 0.002472,-2.677505 -0.000824,-3.579498c-0.003326,-0.914017 -0.012909,-1.852325 -0.052521,-2.826004c-0.041595,-1.022415 -0.114075,-2.105225 -0.232483,-3.257996c-0.127319,-1.239471 -0.53363,-4.016525 -0.822327,-5.571335c-0.309021,-1.664169 -0.680481,-3.41423 -1.114502,-5.23201c-0.449158,-1.881149 -0.956055,-3.800064 -1.528503,-5.735992c-0.578094,-1.954987 -1.892548,-5.81694 -2.635162,-7.688507c-0.735077,-1.852615 -1.532745,-3.661758 -2.378998,-5.431503c-0.841309,-1.759399 -1.735321,-3.483643 -2.667023,-5.179489c-0.929718,-1.692245 -2.891449,-5.014404 -3.910828,-6.653168c-1.019318,-1.638641 -2.065948,-3.257828 -3.139496,-4.854004c-1.07019,-1.591202 -2.164642,-3.15657 -3.283508,-4.692001c-1.111938,-1.525925 -3.390656,-4.483963 -4.555145,-5.910995c-1.153015,-1.412949 -2.323303,-2.787079 -3.504028,-4.125c-1.166718,-1.322037 -2.342804,-2.606094 -3.521973,-3.854996c-1.162292,-1.231049 -3.481201,-3.589897 -4.631348,-4.720505c-1.132599,-1.113342 -2.264618,-2.197311 -3.395996,-3.2565c-1.121338,-1.049789 -2.247528,-2.079498 -3.377991,-3.094505c-1.128204,-1.012993 -3.411774,-3.016075 -4.568512,-4.012993c-1.159271,-0.9991 -2.324432,-1.990044 -3.4935,-2.968506c-1.161957,-0.972527 -2.321014,-1.927681 -3.475494,-2.860497c-1.137573,-0.919151 -3.372742,-2.676422 -4.466827,-3.506668c-1.068726,-0.810989 -2.124512,-1.590172 -3.171021,-2.335503c-1.026276,-0.730911 -2.046234,-1.432014 -3.062988,-2.101494c-1.002014,-0.659782 -3.005066,-1.901245 -4.009003,-2.48484c-0.996124,-0.579048 -1.997498,-1.133331 -3,-1.670998c-0.997528,-0.534988 -1.998779,-1.053047 -3,-1.562996c-0.998779,-0.508713 -2.999908,-1.509193 -3.999847,-2.008835c-0.998718,-0.499023 -1.99527,-0.996483 -2.989471,-1.489502c-0.989441,-0.490646 -1.973969,-0.97612 -2.953522,-1.453499c-0.97113,-0.473274 -2.889465,-1.392708 -3.83548,-1.835503c-0.934021,-0.43718 -1.858978,-0.862297 -2.775024,-1.275002c-0.903992,-0.407265 -1.79895,-0.802406 -2.684998,-1.184998c-0.873962,-0.37738 -2.593719,-1.09819 -3.440155,-1.439835c-0.83493,-0.336983 -1.662384,-0.660873 -2.485504,-0.9645c-0.813263,-0.299995 -1.622986,-0.581978 -2.431488,-0.838493c-0.800934,-0.254105 -2.402496,-0.694214 -3.205505,-0.876007c-0.805084,-0.182259 -1.625,-0.338791 -2.463013,-0.481499c-0.859985,-0.146446 -1.751648,-0.278366 -2.678986,-0.4095c-0.968658,-0.136971 -3.057129,-0.417625 -4.185669,-0.573334c-1.180786,-0.162918 -2.405487,-0.334686 -3.666016,-0.514496c-1.288818,-0.183838 -2.597504,-0.373497 -3.917999,-0.568504c-1.324829,-0.195648 -3.954102,-0.594772 -5.244659,-0.795334c-1.27478,-0.198112 -2.537079,-0.397316 -3.791992,-0.589493c-1.250427,-0.191483 -2.500793,-0.378639 -3.756012,-0.553505c-1.262115,-0.175819 -3.827362,-0.496353 -5.137665,-0.635498c-1.327057,-0.14093 -2.670868,-0.265427 -4.028992,-0.375c-1.369232,-0.110474 -2.749023,-0.205154 -4.136993,-0.285004c-1.393402,-0.080162 -4.190857,-0.199524 -5.591339,-0.240166c-1.402222,-0.040695 -2.808655,-0.067375 -4.221008,-0.085495c-1.420288,-0.018227 -2.850647,-0.026848 -4.292999,-0.031502c-1.456329,-0.004692 -4.419006,-0.004013 -5.929321,-0.004669c-1.532349,-0.000671 -3.088684,-0.002419 -4.671021,-0.010498c-1.610321,-0.008224 -3.250671,-0.022118 -4.922974,-0.046501c-1.706421,-0.024879 -5.229126,-0.106018 -7.047333,-0.164169c-1.84848,-0.05912 -3.716705,-0.130333 -5.595001,-0.203995c-1.878387,-0.073669 -3.746613,-0.150764 -5.595001,-0.222c-1.818298,-0.070076 -5.324921,-0.18985 -6.995331,-0.231171c-1.612244,-0.039879 -3.16864,-0.067055 -4.671021,-0.085495c-1.450287,-0.017799 -2.850647,-0.026779 -4.203003,-0.031502c-1.306335,-0.004562 -3.789001,-0.004501 -4.969666,-0.004501c-1.144653,0 -2.257324,0 -3.34198,0c-1.060669,0 -2.101349,0 -3.126007,0c-1.012665,0 -3.018005,0 -4.017853,0c-0.99881,0 -1.995667,0 -2.989471,0c-0.989838,0 -1.974686,0 -2.953522,0c-0.971832,0 -2.890488,0 -3.835159,0c-0.932663,0 -1.851334,0 -2.753998,0c-0.884674,0 -1.749329,0 -2.591995,0c-0.81868,0 -2.376007,-0.001564 -3.111511,0.000504c-0.708496,0.001991 -1.393204,0.006577 -2.056503,0.031494c-0.645752,0.024261 -1.277206,0.065056 -1.894485,0.139503c-0.610916,0.073685 -1.817352,0.315079 -2.413834,0.4935c-0.606567,0.181442 -1.213379,0.408997 -1.821014,0.674995c-0.625366,0.273766 -1.255234,0.591621 -1.89299,0.945007c-0.661194,0.366371 -2.021729,1.210854 -2.728668,1.678993c-0.730499,0.483742 -1.470825,0.994743 -2.229004,1.512001c-0.769165,0.52475 -1.545685,1.053596 -2.33699,1.566002c-0.79007,0.511604 -2.386063,1.467201 -3.191177,1.894165c-0.796371,0.422325 -1.603561,0.81192 -2.410492,1.198502c-0.809402,0.387764 -1.628387,0.771179 -2.446503,1.180504c-0.831314,0.415932 -2.516312,1.340454 -3.364166,1.870827c-0.869797,0.544106 -1.736618,1.135254 -2.604004,1.758003c-0.880081,0.631859 -1.752975,1.293976 -2.621994,1.973999c-0.87236,0.68264 -2.587631,2.080025 -3.431335,2.781998c-0.838974,0.698044 -1.669083,1.399513 -2.496002,2.100006c-0.825745,0.699509 -1.649826,1.400978 -2.477997,2.099998c-0.83049,0.700989 -2.512558,2.101768 -3.368332,2.799835c-0.858887,0.700607 -1.722885,1.395401 -2.583008,2.089493c-0.854538,0.689575 -1.700592,1.372322 -2.528992,2.053505c-0.814224,0.669525 -2.370987,1.985992 -3.102341,2.635666c-0.711243,0.631805 -1.392441,1.260353 -2.04599,1.885498c-0.639069,0.611298 -1.254044,1.222031 -1.848007,1.831505c-0.584671,0.59993 -1.707016,1.801773 -2.248993,2.404663c-0.53801,0.598473 -1.063934,1.201019 -1.575012,1.810501c-0.508911,0.606895 -1.004822,1.221596 -1.485001,1.846497c-0.479843,0.624466 -1.400513,1.905785 -1.839996,2.564339c-0.440552,0.660156 -0.86499,1.332642 -1.274994,2.014496c-0.410004,0.681854 -0.804474,1.372208 -1.184998,2.068504c-0.379486,0.694405 -1.09845,2.093811 -1.44017,2.795334c-0.3396,0.697166 -0.666061,1.394867 -0.985504,2.089493c-0.316879,0.689064 -0.625275,1.374702 -0.931503,2.053505c-0.303101,0.67186 -0.903198,1.991104 -1.204163,2.63533c-0.296387,0.63443 -0.591919,1.255402 -0.878998,1.864502c-0.280228,0.594574 -0.552017,1.173447 -0.807007,1.738495c-0.246262,0.545685 -0.685379,1.583832 -0.87149,2.075668c-0.177704,0.469604 -0.334198,0.923935 -0.481506,1.360504c-0.141647,0.419785 -0.273499,0.826202 -0.4095,1.216507c-0.132065,0.379013 -0.413849,1.101608 -0.572998,1.444656c-0.156952,0.338318 -0.326553,0.664566 -0.4935,0.985504c-0.164063,0.315399 -0.327911,0.623428 -0.475494,0.931503c-0.144348,0.301346 -0.384811,0.902115 -0.466843,1.20433c-0.080536,0.296722 -0.134369,0.594894 -0.17099,0.889496c-0.03595,0.2892 -0.050674,0.574677 -0.063004,0.8535l-0.006332,0.271835" fill="none" id="svg_7" stroke="#000000" stroke-width="5"/>
    <path d="m165,163c0.97467,1.85733 1.025116,2.523315 1.221497,3.643173c0.119034,0.678787 0.299835,1.419205 0.483002,2.222992c0.29631,1.300323 0.496094,2.214767 0.591003,2.677505c0.187454,0.913895 0.367706,1.786179 0.537827,2.956329c0.134674,0.926285 0.101669,1.723953 0.609344,2.699829c0.330872,0.636002 1.073914,1.03154 1.442993,2.042999c0.330902,0.906815 0.114334,1.923843 0.114334,2.59317c0,0.765335 -0.077805,1.783783 0.114334,2.62117c0.227814,0.992889 0.756332,1.76886 1.035004,2.3535c0.55806,1.170776 0.720596,1.785873 0.80899,2.710159c0.060654,0.634277 0.036026,2.000565 0.046173,2.731842c0.010376,0.747437 0.006073,1.500366 0.16217,2.580658c0.146912,1.016769 0.345688,1.648438 0.537827,2.262177c0.378708,1.209656 0.698761,2.089767 0.859497,2.668503c0.29509,1.0625 0.416779,1.999466 0.434677,2.834656c0.021347,0.996613 -0.301376,1.79393 0.011993,2.754669c0.232681,0.713364 1.316467,0.691544 2.114334,0.584167c0.570602,-0.076782 1.712357,-0.426453 2.703003,-0.793503c0.564697,-0.209229 1.163147,-0.450775 1.796997,-0.706497c0.664856,-0.268219 1.354202,-0.552124 2.067001,-0.841507c1.473724,-0.598312 2.229004,-0.89769 2.994659,-1.195999c0.774338,-0.301697 1.559402,-0.601624 2.355011,-0.899994c0.804382,-0.301651 1.619141,-0.602371 2.444992,-0.899994c1.678284,-0.604813 2.534241,-0.902557 3.401337,-1.198669c0.877228,-0.299576 1.767944,-0.595062 2.6745,-0.880508c0.918777,-0.289291 1.85376,-0.572861 2.809494,-0.835495c1.956238,-0.537552 2.970367,-0.770325 4.005341,-1c1.058044,-0.234802 2.146957,-0.454834 3.268494,-0.664505c1.154465,-0.21582 2.347977,-0.422623 3.583511,-0.619492c2.601913,-0.414597 3.976593,-0.602966 5.386658,-0.801331c1.433609,-0.201675 2.878799,-0.398972 4.321503,-0.600006c1.427963,-0.198975 2.828674,-0.39328 4.186493,-0.600006c2.544632,-0.387421 3.704163,-0.593613 4.785339,-0.79866c1.007446,-0.191055 1.93988,-0.385269 2.798996,-0.580505c0.791489,-0.179871 1.514465,-0.356934 2.169006,-0.535492c1.12587,-0.307129 1.594559,-0.46048 2.009338,-0.598663c0.366776,-0.122192 0.687241,-0.238464 0.967499,-0.345001c0.246353,-0.093643 0.460831,-0.182144 0.652496,-0.255005c0.325302,-0.123642 0.471085,-0.168121 0.608002,-0.20134c0.127518,-0.030945 0.249054,-0.051575 0.364502,-0.064499c0.109955,-0.012299 0.216293,-0.017578 0.319489,-0.019501c0.201309,-0.003754 0.890656,-0.249985 0.398666,-0.802658c-0.656342,-0.737305 -1.297409,-1.298935 -1.833328,-1.834671c-0.685883,-0.685623 -1.203384,-1.237579 -1.940002,-1.768494c-0.891785,-0.642746 -1.678879,-1.000443 -2.531998,-1.41684c-0.453903,-0.221542 -1.40976,-0.685013 -1.895996,-0.949326c-1.005066,-0.546326 -1.998703,-1.195297 -2.500504,-1.534668c-0.507568,-0.343277 -1.52861,-1.048401 -2.052658,-1.389343c-0.525314,-0.341751 -1.597244,-0.997086 -2.72818,-1.534668c-0.565964,-0.269028 -1.145584,-0.512146 -2.325333,-0.949326c-0.591354,-0.219131 -1.189728,-0.421463 -2.389328,-0.821335c-1.200409,-0.400131 -1.803207,-0.595215 -2.41066,-0.778671c-0.608902,-0.183899 -1.843658,-0.520126 -2.47467,-0.650665c-1.276108,-0.264008 -1.934738,-0.342758 -3.271835,-0.465332c-0.678192,-0.062164 -1.3638,-0.1035 -2.053497,-0.155991c-0.69397,-0.052826 -1.395187,-0.082779 -2.789337,-0.282669c-1.404083,-0.201324 -2.096451,-0.372253 -2.789337,-0.528c-0.690796,-0.155273 -1.374741,-0.323669 -2.053497,-0.490509c-0.671906,-0.165161 -2.634857,-0.628281 -3.267838,-0.76416c-0.618362,-0.132751 -1.223343,-0.249634 -2.370667,-0.509338c-0.543655,-0.123062 -2.029312,-0.514313 -2.863998,-0.858658c-0.767914,-0.316803 -1.450607,-0.707153 -2.136002,-1.032013c-1.028503,-0.487503 -1.768494,-0.736008 -2.518661,-0.963165c-0.744614,-0.225479 -1.836685,-0.509811 -2.838333,-0.820831c-0.622147,-0.193176 -1.479874,-0.487991 -2.479004,-0.899994c-0.707031,-0.29155 -1.445007,-0.621185 -2.325165,-0.899841c-0.990219,-0.313507 -1.667755,-0.477753 -2.304169,-0.614822c-1.176666,-0.253433 -2.153336,-0.285339 -3.053329,-0.285339l-0.833328,-0.166672l-0.5,-0.666656l-0.852005,-0.192001" fill="none" id="svg_8" stroke="#000000" stroke-width="5"/>
    <text fill="#000000" font-family="Fantasy" font-size="50" id="svg_16" stroke="#000000" stroke-width="0" style="cursor: move; white-space: pre;" text-anchor="middle" x="185" y="294">box3</text>
    <text fill="#000000" font-family="Fantasy" font-size="0.001" id="svg_21" stroke="#000000" stroke-width="0" text-anchor="middle" x="556" y="335" style="white-space: pre;"/>
    <text fill="#000000" font-family="Fantasy" font-size="50" id="svg_23" stroke="#000000" stroke-width="0" text-anchor="middle" x="499.598" y="281.765" style="white-space: pre; font-size: 50px;">true</text>
  </g>
</svg>