<?xml version="1.0"?>
<svg width="720" height="760" xmlns="http://www.w3.org/2000/svg" xmlns:svg="http://www.w3.org/2000/svg">
 <!-- Created with SVG-edit - https://github.com/SVG-Edit/svgedit-->
 <g class="layer">
  <title>Layer 1</title>
  <rect fill="none" height="741.999933" id="svg_2" stroke="#000000" stroke-width="5" width="408.999982" x="7.750021" y="6.194503"/>
  <path d="m5.166707,262.666687c0.893333,1.927979 1.77333,1.998657 2.643167,2c1.039498,0.001587 1.814167,0 2.644833,0c0.878667,0 1.8,0 2.769334,0c0.505166,0 1.5615,0 2.114666,0c1.771501,0 2.402667,0 3.055834,0c0.676167,0 1.376333,0 2.1015,0c0.751167,0 1.529333,0 3.170668,0c0.866667,0 1.773333,0 2.73,0c1.016666,0 2.103333,0 3.27,0c1.256666,0 2.613333,0 5.666666,0c1.713501,0 3.548,0 5.494499,0c2.0495,0 4.193001,0 6.421501,0c2.304501,0 4.675999,0 9.584,0c2.520832,0 5.086666,0 7.702499,0c2.670834,0 5.401665,0 8.197502,0c2.865829,0 5.806664,0 11.933334,0c3.193832,0 6.470665,0 9.823494,0c3.421837,0 6.90567,0 10.444504,0c3.58683,0 7.214668,0 14.565331,0c3.709335,0 7.434669,0 11.172005,0c3.745331,0 7.494659,0 11.244003,0c3.745331,0 7.482666,0 14.917328,0c3.689667,0 7.35733,0 11.001007,0c3.617661,0 7.207321,0 10.766998,0c3.527664,0 7.021332,0 13.898666,0c3.379166,0 6.713333,0 9.997498,0c3.229156,0 6.398331,0 9.502502,0c3.034164,0 5.993332,0 11.666656,0c2.706009,0 5.328003,0 7.872009,0c2.472,0 4.877991,0 7.223999,0c2.291992,0 4.535995,0 8.903992,0c2.134842,0 4.238678,0 6.310501,0c2.038834,0 4.043671,0 6.013504,0c1.933823,0 3.830673,0 7.509323,0c1.780182,0 3.521332,0 5.224518,0c1.666168,0 3.296326,0 4.891479,0c1.561188,0 3.089355,0 6.05069,0c1.435822,0 2.846649,0 4.237488,0c1.375824,0 2.741669,0 4.102509,0c1.36084,0 2.726654,0 5.493317,0c1.40918,0 2.833344,0 4.267517,0c1.439148,0 2.878326,0 4.3125,0c1.424164,0 2.833313,0 5.58667,0c1.333984,0 2.631989,0 3.888,0c1.207977,0 2.362,0 3.455994,0c1.027985,0 1.984009,0 3.656006,0c0.706665,0 1.333313,0 1.889984,0c0.496674,0 0.943329,0 1.350006,0c0.376678,0 0.733337,0 1.426666,0c0.355011,0 0.720001,0 1.095001,0c0.38501,0 0.779999,0 1.184998,0c0.415009,0 0.839996,0 1.720001,0c0.454681,0 0.917328,0 1.385986,0c0.472687,0 0.947357,0 1.422028,0c0.472656,0 0.941315,0 1.858643,0c0.44519,0 0.881348,0 1.309509,0c0.421173,0 0.836334,0 1.24649,0c0.406189,0 0.809357,0 1.610687,0c0.400146,0 0.801331,0 1.204498,0c0.406158,0 0.816315,0 1.231506,0c0.421143,0 0.849304,0 1.730652,0c0.454987,0 0.920013,0 1.394989,0c0.485016,0 0.980011,0 1.485016,0c0.514984,0 1.040009,0 2.119995,0c0.554169,0 1.113342,0 1.672485,0c0.554169,0 1.098358,0 1.627502,0c0.509186,0 0.993347,0 1.866669,0c0.380829,0 0.726685,0 1.042511,0c0.290833,0 0.561676,0 0.817505,0c0.245819,0 0.486664,0 0.973328,0c0.254822,0 0.518677,0 0.790497,0c0.278839,0 0.56366,0 0.853516,0c0.293823,0 0.590668,0 1.189331,0c0.300323,0 0.602661,0 0.908997,0c0.312317,0 0.63266,0 0.962982,0c0.342346,0 0.698669,0 1.461334,0c0.409668,0 0.837341,0 1.281006,0c0.457672,0 0.927338,0 1.407013,0c0.487671,0 0.981323,0 1.978668,0c0.499817,0 0.998657,0 1.495483,0c0.493835,0 0.983673,0 1.468506,0c0.478821,0 0.950653,0 1.869324,0c0.445007,0 0.880005,0 1.305023,0c0.414978,0 0.819977,0 1.214996,0c0.384979,0 0.759979,0 1.47998,0c0.344849,0 0.67868,0 1.000519,0c0.308838,0 0.603668,0 0.883484,0c0.263855,0 0.510681,0 0.949341,0c0.190826,0 0.366669,0 0.532501,0c0.160828,0 0.321655,0 0.487488,0c0.175842,0 0.366669,0 0.813354,0c0.264313,0 0.554657,0 0.867004,0c0.330322,0 0.674652,0 1.028992,0c0.360321,0 0.722656,0 1.437317,0c0.34552,0 0.684021,0 1.018524,0c0.333496,0 0.668976,0 1.009491,0c0.34848,0 0.708008,0 1.471985,0c0.409515,0 0.835999,0 1.27652,0c0.451477,0 0.91098,0 1.375488,0c0.466492,0 0.932007,0 1.847992,0c0.445496,0 0.884003,0 1.318512,0c0.433502,0 0.868988,0 1.309509,0c0.448486,0 0.90799,0 1.871979,0c0.509338,0 1.034668,0 1.572021,0c0.545319,0 1.094666,0 1.643982,0c0.545349,0 1.082672,0 2.11734,0c0.48999,0 0.959991,0 1.410004,0c0.429993,0 0.839996,0 1.230011,0c0.369995,0 0.719971,0 1.359985,0c0.290497,0 0.563995,0 0.823486,0c0.248505,0 0.489014,0 0.724518,0c0.23349,0 0.467987,0 0.951996,0c0.254486,0 0.515991,0 0.781494,0c0.26651,0 0.531006,0 0.790497,0c0.251495,0 0.492004,0 0.928009,0c0.190491,0 0.364014,0 0.523499,0c0.148499,0 0.289001,0 0.4245,0c0.133514,0 0.268005,-0.000122 0.552002,0c0.15451,0.000061 0.31604,-0.000183 0.481506,0.004456c0.166565,0.004639 0.33136,0.012817 0.490479,0.031494c0.151947,0.017822 0.302063,0.024658 0.528015,0.130676c0.095673,0.044922 0.169067,0.114136 0.218994,0.190491c0.048981,0.07489 0.076813,0.162842 0.093018,0.25354c0.016632,0.09314 0.019836,0.190674 0.021332,0.389343c0.000763,0.100159 -0.000092,0.201355 0.004486,0.304504c0.00473,0.106201 0.013916,0.216675 0.031494,0.331482c0.018616,0.121582 0.041016,0.251892 0.130676,0.53064c0.050201,0.156128 0.115967,0.317261 0.190491,0.481506c0.076111,0.167786 0.16037,0.332886 0.25351,0.49054c0.090668,0.153442 0.175079,0.30603 0.389343,0.527954c0.093781,0.097107 0.198639,0.168945 0.304504,0.223511c0.103729,0.053467 0.21579,0.090698 0.331482,0.124512c0.120667,0.035278 0.251495,0.061035 0.53067,0.151978c0.155975,0.050842 0.317719,0.116394 0.485992,0.186035c0.173096,0.071655 0.347351,0.147339 0.522003,0.221985l0.172668,0.072693l0.168671,0.068665" fill="none" id="svg_48" stroke="#000000" stroke-width="5"/>
  <path d="m6.166708,133.666687c-0.572167,-2.600037 -0.172965,-3.460693 0.5,-4c0.839204,-0.672546 1.25894,-0.813416 2.148,-1.127991c0.501903,-0.177612 2.350685,-0.550049 3.080833,-0.629028c0.780616,-0.084473 1.609372,-0.135193 2.476501,-0.171021c0.898579,-0.037109 1.822632,-0.053711 2.764501,-0.062988c0.952808,-0.009399 2.863499,-0.008972 3.809999,-0.008972c0.945499,0 1.899,0 2.869499,0c0.9965,0 2.028,0 3.1035,0c1.1285,0 3.5805,0 4.922001,0c1.4305,0 2.959,0 4.594498,0c1.751503,0 3.628002,0 5.6385,0c2.1535,0 6.925503,0 9.555336,0c2.768833,0 5.645664,0 8.599499,0c2.999832,0 6.014668,0 9.0135,0c2.951836,0 8.5905,0 11.222336,0c2.502831,0 4.887665,0 7.165497,0c2.181831,0 4.278664,0 6.301498,0c1.959839,0 5.734505,0 7.570335,0c1.810837,0 3.601669,0 5.377502,0c1.765831,0 3.526665,0 5.287498,0c1.765831,0 5.332497,0 7.142662,0c1.831169,0 3.684334,0 5.560501,0c1.900169,0 3.825333,0 5.776497,0c1.97818,0 6.019501,0 8.083511,0c2.087997,0 4.194,0 6.311996,0c2.123993,0 4.248001,0 6.365997,0c2.106003,0 6.257996,0 8.292999,0c2.005005,0 3.979996,0 5.925003,0c1.914993,0 3.800003,0 5.654999,0c1.824997,0 5.384995,0 7.120499,0c1.708496,0 3.393005,0 5.056503,0c1.645493,0 3.276001,0 4.894501,0c1.609497,0 4.813492,0 6.414001,0c1.6035,0 3.212997,0 4.831497,0c1.630493,0 3.276001,0 4.939499,0c1.684494,0 5.128494,0 6.89267,0c1.789169,0 3.598328,0 5.422501,0c1.834167,0 3.673325,0 5.512497,0c1.834167,0 5.467499,0 7.258331,0c1.775833,0 3.541672,0 5.302505,0c1.760834,0 3.526657,0 5.30249,0c1.790833,0 5.4375,0 7.301346,0c1.886826,0 3.789658,0 5.701492,0c1.913834,0 3.822678,0 5.719498,0c1.877838,0 5.548492,0 7.328674,0c1.74115,0 3.444336,0 5.110504,0c1.630157,0 3.225311,0 4.786499,0c1.528168,0 4.489502,0 5.925171,0c1.409668,0 2.797333,0 4.166992,0c1.355652,0 2.701324,0 4.040985,0c1.337677,0 4.02301,0 5.377167,0c1.359192,0 2.718353,0 4.07251,0c1.344177,0 2.67334,0 3.982513,0c1.284149,0 3.757477,0 4.938995,0c1.150482,0 2.278992,0 3.394501,0c1.111481,0 2.227997,0 3.35849,0c1.153503,0 3.565491,0 4.838989,0c1.314514,0 2.661011,0 4.030518,0c1.383484,0 2.772003,0 4.156494,0c1.37149,0 4.03949,0 5.320007,0c1.2435,0 2.453003,0 3.6315,0c1.150482,0 2.276001,0 3.379486,0c1.084503,0 3.208496,0 4.253021,0c1.031494,0 2.046997,0 3.043488,0c0.974487,0 1.924011,0 2.84549,0c0.890503,0 2.566498,0 3.347015,0c0.7435,0 1.453003,0 2.1315,0c0.650482,0 1.276001,0 1.879486,0c0.584503,0 1.708496,0 2.253021,0c0.531494,0 1.046997,0 1.543488,0c0.474487,0 0.924011,0 1.34549,0c0.390503,0 1.066498,0 1.347351,0c0.245819,0 0.46167,0 0.652496,0c0.170837,0 0.32666,0 0.472504,0c0.140839,0 0.42749,0 0.582336,0c0.163818,0 0.335663,0 0.514496,0c0.184814,0 0.374664,0 0.568481,0c0.196838,0 0.59552,0 0.796173,0c0.204681,0 0.417328,0 0.641998,0c0.240662,0 0.501343,0 0.786011,0c0.312653,0 1.037994,0 1.457153,0c0.454163,0 0.938354,0 1.44751,0c0.529175,0 1.073334,0 1.627502,0c0.559174,0 1.672485,0 2.217651,0c0.536163,0 1.064331,0 1.58551,0c0.515167,0 1.02533,0 1.531494,0c0.503174,0 1.504517,0 2.003998,0c0.496521,0 0.987,0 1.468506,0c0.469513,0 0.924011,0 1.360504,0c0.415497,0 1.171509,0 1.506836,0c0.307343,0 0.588654,0 0.846008,0c0.235321,0 0.450653,0 0.64798,0c0.181335,0 0.503998,0 0.64917,0c0.136169,0 0.264343,0 0.385498,0c0.115173,0 0.225342,0 0.331512,0c0.103149,0 0.304504,0 0.404816,0c0.102356,0 0.208679,0 0.321014,0c0.120331,0 0.250671,0 0.393005,0c0.156311,0 0.518982,0 0.728333,0c0.225311,0 0.462646,0 0.708008,0c0.249329,0 0.498657,0 0.743988,0c0.237335,0 0.671997,0 0.862671,0c0.174652,0 0.337341,0 0.492004,0c0.150665,0 0.301331,0 0.455994,0c0.162659,0 0.527985,0 0.737671,0c0.227661,0 0.471313,0 0.729004,0c0.269653,0 0.549316,0 0.836975,0c0.293671,0 0.891022,0 1.190674,0c0.297668,0 0.591339,0 0.878998,0c0.279663,0 0.549347,0 0.807007,0c0.243652,0 0.681,0 0.871338,0c0.172333,0 0.328674,0 0.471008,0c0.13031,0 0.250641,0 0.362976,0c0.106354,0 0.309021,0 0.40918,0c0.101166,0 0.204346,0 0.310486,0c0.110168,0 0.225342,0 0.346527,0c0.128143,0 0.409485,0 0.564148,0c0.162659,0 0.331329,0 0.503998,0c0.174683,0 0.349335,0 0.522003,0c0.168671,0 0.485992,0 0.631165,0c0.136169,0 0.264343,0 0.385498,0c0.115173,0 0.225342,0 0.331512,0c0.103149,0 0.304504,0 0.404663,0c0.101166,0 0.204346,0 0.310486,0c0.110168,0 0.225342,0 0.346527,0c0.128143,0 0.409485,0 0.564331,0c0.163818,0 0.335663,0 0.514496,0c0.184814,0 0.374664,0 0.568481,0c0.196838,0 0.59552,0 0.795685,0c0.201172,0 0.404327,0 0.610504,0c0.210144,0 0.425323,0 0.646484,0c0.22818,0 0.709503,0 0.963989,0c0.261505,0 0.527008,0 0.793518,0c0.264496,0 0.523987,0 0.775482,0c0.240509,0 0.676514,0 0.867004,0c0.173523,0 0.333008,0 0.481506,0c0.140503,0 0.276001,0 0.409515,0c0.134491,0 0.418488,0 0.573151,0c0.162659,0 0.331329,0 0.503998,0c0.174683,0 0.349335,0 0.522003,0c0.168671,0 0.485992,0 0.631165,0c0.136169,0 0.264343,0 0.385498,0c0.115173,0 0.225342,0 0.331512,0l0.103149,0" fill="none" id="svg_49" stroke="#000000" stroke-width="5"/>
  <text fill="#000000" font-family="Fantasy" font-size="30" id="svg_59" stroke="#000000" stroke-width="0" text-anchor="middle" x="56.833374" xml:space="preserve" y="322">Heap</text>
  <text fill="#000000" font-family="Fantasy" font-size="30" id="svg_69" stroke="#000000" stroke-width="0" text-anchor="middle" x="63.988281" xml:space="preserve" y="474.675354">Stack</text>
  <path d="m252.488275,466.092021c0,1.671997 0,2.774666 0,3.304001c0,0.976501 0,2.195999 0,2.660332c0,1.00267 0,1.532997 0,2.631668c0,0.560333 0,2.237335 0,2.782501c0,1.064331 0,1.585495 0,2.610832c0,0.506165 0,2.010666 0,3.010666c0,0.5 0,1.5 0,2c0,1 0,2.499832 0,2.998665c0,0.990669 0,1.965332 0,2.444168c0,1.390503 0,2.269165 0,3.099831c0,0.774673 0,1.485336 0,2.686668c0,0.729004 0,1.770668 0,2.570671c0,0.799995 0,1.795494 0,2.714661c0,0.9645 0,1.885338 0,2.785339c0,0.899994 0,1.799995 0,2.699997c0,0.800003 0,1.699997 0,2.599998c0,0.900002 0,1.799995 0,2.700005c0,0.899994 0,1.800003 0,2.699997c0,0.757172 0,1.652664 0,2.516006c0,0.963165 -0.218727,1.912247 0.004501,2.779495c0.183758,0.713898 1.304497,0.704498 1.966164,0.704498c1.039169,0 1.814667,0 2.862667,0c0.930668,0 1.562168,0 2.566669,0c0.799999,0 1.800163,0 2.620831,0c1.145836,0 1.931835,0 2.753834,0c1.058666,0 1.768169,0 2.620834,0c1.005833,0 1.840515,0.005295 2.771168,0c0.790535,-0.004501 1.668205,0.02063 2.833332,-0.333328c0.615253,-0.186905 1.176453,-0.54303 2.042835,-0.961334c1.021225,-0.493073 1.708702,-0.669312 2.790497,-0.705338c0.755581,-0.025162 1.708336,0 2.709503,0c0.718494,0 1.508999,0 2.535664,0c0.900665,0 1.921501,0 2.721504,0c0.799995,0 1.804497,0 2.435997,0c1.185333,0 1.989334,0 2.811333,0c1.031166,0 1.716667,0 2.551331,0c0.996834,0 1.916,0 2.786667,0c0.948006,0 1.865334,0 2.609337,0c1.034668,0 1.802666,0 2.70533,0c0.900002,0 1.800003,0 2.71067,0c0.910667,0 1.764,0 2.70533,0c0.768005,0 1.720001,0 2.485336,0c1.003166,0 1.855835,0 2.820168,0c0.814499,0 1.682999,0 2.578499,0c0.8955,0 1.764,0 2.833336,0c0.704994,0 1.68,0 2.645828,0c0.820839,0 1.720833,0 2.620834,0c0.900002,0 1.700005,0 2.599998,0c0.900002,0 1.800003,0 2.71067,0c0.910667,0 1.764,0 2.704002,0c0.88533,0 1.824455,-0.215836 1.88533,-1.166672c0.042763,-0.667953 0,-1.434662 0,-2.433334c0,-0.799988 0,-1.799988 0,-2.599991c0,-1 -0.006668,-1.800018 0,-2.800003c0.005333,-0.800056 0.029442,-1.616714 0.352669,-2.595497c0.251907,-0.76281 0.615417,-1.779022 0.647499,-2.726006c0.023689,-0.699234 0.152222,-1.68325 0.425163,-2.4785c0.276314,-0.805069 0.542015,-1.798759 0.570168,-2.599998c0.03511,-0.999397 0.004501,-1.799995 0.004501,-2.799835c0,-0.779327 -0.067604,-1.639221 0.036003,-2.461494c0.11261,-0.893707 0.410088,-1.59446 0.611328,-2.390503c0.257965,-1.020432 0.340012,-1.947983 0.351334,-2.632164c0.021065,-1.27301 -0.017944,-1.840698 0.08667,-2.717339c0.143814,-1.205147 0.354889,-1.784256 0.561996,-2.641495c0.249161,-1.031319 0.342247,-1.915344 0.352669,-2.935669c0.007324,-0.716965 -0.011841,-1.672981 0.283997,-2.505501c0.250908,-0.706085 0.673294,-1.627907 0.716003,-2.616165c0.033897,-0.784431 -0.256744,-1.817856 0.221336,-2.657166c0.41597,-0.73027 0.768242,-1.263359 0.778664,-2.358665c0.007301,-0.767967 0,-1.709335 0,-2.400002c0,-1.073334 0,-1.984001 0,-2.884003c0,-0.900002 0,-1.799995 0,-2.699997l0,-0.900002l0,-0.800003" fill="none" id="svg_68" stroke="#000000" stroke-width="5"/>
  <path d="m256.73828,554.925354c0,1.846664 0,2.686668 0,3.688004c0,0.874496 0,1.53083 0,2.645332c0,0.838661 0,1.749329 0,2.229164c0,1.00367 0,1.525497 0,3.158836c0,0.56266 0,1.703995 0,2.278664c0,0.574669 0,1.716003 0,2.833336c0,1.079994 0,1.604996 0,2.625c0,0.979996 0,1.454994 0,2.820168c0,0.864326 0,1.700661 0,2.516998c0,1.204498 0,2.005829 0,2.815163c0,0.825333 0,1.674667 0,2.556c0,0.916 0,1.848 0,2.772003c0,0.4515 0,1.727997 0,2.851501c0,0.688995 0,1.358002 0,2.731331c0,0.735664 0,1.499336 0,2.282997c0,1.195503 0,1.992836 0,2.77417c0,0.749336 0,1.450668 0,2.64933c0,0.914673 0,1.888 0,2.656006c0,0.94133 0,1.949326 0,2.811493c0,0.825333 0,1.788498 0,2.65184c0,0.895493 0,1.854004 0,2.537994c0,0.940002 -0.389313,2.080719 0.057159,2.753006c0.436981,0.65799 1.61351,0.361664 2.518845,0.361664c0.923996,0 1.685333,0 2.574661,0c0.495163,0 1.591507,0 2.194672,0c1.321335,0 2.041504,0 2.802658,0c0.803177,0 1.649338,0 2.539505,0c0.935165,0 1.916336,0 2.944504,0c2.201324,0 3.374664,0 4.587997,0c1.243332,0 2.506668,0 3.779999,0c1.273331,0 2.536667,0 3.779999,0c2.386673,0 3.512329,0 4.591995,0c1.037674,0 2.037338,0 3.003006,0c0.935669,0 1.845337,0 2.733002,0c1.725327,0 2.569824,0 3.401337,0c0.815491,0 1.612,0 2.38649,0c0.749512,0 1.471008,0 2.161499,0c1.276001,0 1.856674,0 2.401337,0c0.512665,0 0.99733,0 1.458008,0c0.440659,0 0.865326,0 1.278,0c0.805328,0 1.20549,0 1.606659,0c0.403168,0 0.809341,0 1.219498,0c0.415176,0 0.836334,0 2.145844,0c0.454666,0 1.386002,0 2.333328,0c0.47467,0 1.416,0 2.778336,0c0.860001,0 1.679993,0 2.459991,0c1.095001,0 2.095505,0 2.699173,0c0.790497,0 2.241028,0.142075 2.541672,-0.5625c0.38504,-0.902344 0.020828,-1.730835 0.020828,-2.330826c0,-1.440002 0,-1.850006 0,-2.730011c0,-0.959991 0,-1.470001 0,-2.550003c0,-1.159988 0,-1.769501 0,-3.036491c0,-0.651505 0,-1.311005 0,-1.975502c0,-1.332001 0,-2.648003 0,-3.293167c0,-0.636169 0,-1.885498 0,-2.500664c0,-0.610168 0,-1.819504 0,-3.020836c0,-0.59967 0,-1.791 0,-2.37867c0,-0.579666 0,-1.707001 0,-2.250664c0,-1.527336 0,-2.447334 0,-3.287331c0,-0.760002 0,-1.75 0,-2.569c0,-0.905334 0,-1.914337 0,-2.714333c0,-0.99984 0,-1.779167 0,-2.778671c0,-0.774002 -0.052719,-1.684746 0.057159,-2.425835c0.14975,-1.009972 0.601715,-1.773689 0.821335,-2.795334c0.165146,-0.76825 0.119217,-1.633499 0.121506,-2.552834c0.002258,-0.904503 -0.006378,-1.668518 0.285339,-2.649994c0.194031,-0.652786 0.544876,-1.358803 0.91333,-2.565338c0.207016,-0.677887 0.403931,-1.374023 0.634659,-2.698662c0.097794,-0.561386 0.161331,-1.547958 0.166672,-2.5c0.004395,-0.785988 -0.006073,-1.608017 0,-2.666672c0.005341,-0.93071 0.057159,-1.562164 0.283997,-2.565331l0.29068,-0.765335" fill="none" id="svg_67" stroke="#000000" stroke-width="5"/>
  <path d="m257.654948,657.342021c-0.057167,1.757172 -0.382862,2.670944 -0.574665,3.390671c-0.168102,0.630798 -0.310596,1.915909 -0.34,2.431992c-0.064075,1.124588 -0.067249,1.718964 -0.074669,2.322678c-0.014812,1.205261 -0.010666,2.35466 -0.010666,3.401321c0,0.490845 0,1.43251 0,2.354172c0,0.465836 0,1.942337 0,3.018005c0,0.563828 0,1.143661 0,2.347321c0,0.621841 0,1.900513 0,2.555176c0,1.331329 0,2.003998 0,2.678665c0,0.674667 0,1.347336 0,2.016006c0,1.962326 0,2.597321 0,3.222321c0,1.220001 0,1.815002 0,2.400009c0,1.694992 0,2.23999 0,3.300003c0,0.514999 0,1.514999 0,2.474991c0,0.919998 0,1.797333 0,2.618668c0,1.091995 -0.000092,1.968002 0,2.926331c0.000084,0.862839 -0.293648,2.006516 0.520832,2.5c0.675034,0.408997 1.8125,0.041672 2.498001,0.041672c0.838501,0 1.469196,0.007828 2.869167,-0.001328c0.769375,-0.005035 1.595016,-0.028397 2.030834,-0.055832c1.415928,-0.089142 2.453281,-0.225937 3,-0.295502c0.56395,-0.071747 1.738182,-0.224686 2.347332,-0.294678c0.621525,-0.071411 2.55545,-0.235397 3.221832,-0.267334c0.677975,-0.032486 1.369286,-0.051941 2.074501,-0.064499c0.720123,-0.012833 1.456329,-0.017593 2.209499,-0.019501c1.561329,-0.003952 2.373501,-0.001328 3.218666,-0.001328c0.891167,0 1.841335,0 2.863503,0c1.107166,0 2.312328,0 3.628498,0c3.017334,0 4.737167,0.000763 6.576004,-0.001328c1.926826,-0.002197 3.910675,-0.006821 5.920494,-0.019501c2.004852,-0.01265 3.973808,-0.028183 5.875504,-0.064499c3.478981,-0.066437 5.001152,-0.129318 6.375999,-0.198669c1.241486,-0.062622 2.361626,-0.137497 3.373497,-0.216003c0.917442,-0.071182 1.752182,-0.149033 2.518501,-0.216003c1.377075,-0.120361 2.012474,-0.165863 2.620003,-0.198669c0.581161,-0.031387 1.138603,-0.051636 1.673996,-0.064499c0.515289,-0.012375 1.012665,-0.017563 1.494003,-0.019501c0.922661,-0.003708 1.367996,-0.001328 1.805336,-0.001328c0.431328,0 0.858665,0 1.283997,0c0.425331,0 0.852669,0 1.283997,0c0.882668,0 1.336838,0.000839 1.796005,-0.001328c0.459175,-0.002167 0.913399,-0.006577 1.357498,-0.019501c0.429253,-0.012497 0.839104,-0.027298 1.222504,-0.064499c0.675056,-0.065491 0.956039,-0.128494 1.198662,-0.198669c0.214684,-0.062088 0.399361,-0.137115 0.557999,-0.216003c0.142601,-0.070908 0.260384,-0.156204 0.378006,-0.216003c0.660614,-0.335815 1.163712,-0.839203 1.489326,-1.769333c0.258186,-0.737518 0.625748,-1.711487 0.68,-2.335999c0.082214,-0.946396 0.036003,-1.821503 0.036003,-2.839996c0,-0.723999 0,-1.456009 0,-2.517334c0,-0.996002 0,-1.646667 0,-2.988007c0,-0.718658 0,-1.46933 0,-2.243988c0,-0.79068 -0.005829,-1.989395 0.004501,-2.789337c0.010338,-0.80011 0.019936,-1.603439 0.162163,-2.800003c0.095436,-0.802902 0.262543,-1.599289 0.408005,-2.399994c0.14521,-0.799316 0.317505,-1.99884 0.368164,-2.795502c0.049782,-0.782944 0.054916,-1.547333 0.057167,-2.637833c0.002083,-1.009506 0,-1.645844 0,-2.565338c0,-1.199997 0,-1.790665 0,-2.644165c0,-1.035675 0,-1.93634 0,-2.957169c0,-0.800003 0,-1.600006 0,-2.595505c0,-0.74733 0,-1.768494 0,-2.704498c0,-0.899994 0,-1.800003 0,-2.699997c0,-0.757172 0,-1.652664 0,-2.516006l0,-0.963165l0,-0.825333" fill="none" id="svg_66" stroke="#000000" stroke-width="5"/>
  <text fill="#000000" font-family="Fantasy" font-size="21" id="svg_64" stroke="#000000" stroke-width="0" text-anchor="middle" x="290.488275" xml:space="preserve" y="495.092021">box1</text>
  <text fill="#000000" font-family="Fantasy" font-size="21" id="svg_63" stroke="#000000" stroke-width="0" text-anchor="middle" x="293.730468" xml:space="preserve" y="589.925354">box2</text>
  <text fill="#000000" font-family="Fantasy" font-size="21" id="svg_61" stroke="#000000" stroke-width="0" text-anchor="middle" x="295.647136" xml:space="preserve" y="684.342021">box3</text>
  <text fill="#000000" font-family="Fantasy" font-size="30" id="svg_70" stroke="#000000" stroke-width="0" text-anchor="middle" x="48.997437" xml:space="preserve" y="175.5">Data</text>
  <text fill="#000000" font-family="Fantasy" font-size="30" id="svg_71" stroke="#000000" stroke-width="0" text-anchor="middle" x="48.997437" xml:space="preserve" y="45.5">Text</text>
  <path d="m7.241994,409.141998c0.893333,1.927979 1.77333,1.998657 2.643167,2c1.039498,0.001587 1.814167,0 2.644833,0c0.878667,0 1.8,0 2.769334,0c0.505166,0 1.5615,0 2.114666,0c1.771501,0 2.402667,0 3.055834,0c0.676167,0 1.376333,0 2.1015,0c0.751167,0 1.529333,0 3.170668,0c0.866667,0 1.773333,0 2.73,0c1.016666,0 2.103333,0 3.27,0c1.256666,0 2.613333,0 5.666666,0c1.713501,0 3.548,0 5.494499,0c2.0495,0 4.193001,0 6.421501,0c2.304501,0 4.675999,0 9.584,0c2.520832,0 5.086666,0 7.702499,0c2.670834,0 5.401665,0 8.197502,0c2.865829,0 5.806664,0 11.933334,0c3.193832,0 6.470665,0 9.823494,0c3.421837,0 6.90567,0 10.444504,0c3.58683,0 7.214668,0 14.565331,0c3.709335,0 7.434669,0 11.172005,0c3.745331,0 7.494659,0 11.244003,0c3.745331,0 7.482666,0 14.917328,0c3.689667,0 7.35733,0 11.001007,0c3.617661,0 7.207321,0 10.766998,0c3.527664,0 7.021332,0 13.898666,0c3.379166,0 6.713333,0 9.997498,0c3.229156,0 6.398331,0 9.502502,0c3.034164,0 5.993332,0 11.666656,0c2.706009,0 5.328003,0 7.872009,0c2.472,0 4.877991,0 7.223999,0c2.291992,0 4.535995,0 8.903992,0c2.134842,0 4.238678,0 6.310501,0c2.038834,0 4.043671,0 6.013504,0c1.933823,0 3.830673,0 7.509323,0c1.780182,0 3.521332,0 5.224518,0c1.666168,0 3.296326,0 4.891479,0c1.561188,0 3.089355,0 6.05069,0c1.435822,0 2.846649,0 4.237488,0c1.375824,0 2.741669,0 4.102509,0c1.36084,0 2.726654,0 5.493317,0c1.40918,0 2.833344,0 4.267517,0c1.439148,0 2.878326,0 4.3125,0c1.424164,0 2.833313,0 5.58667,0c1.333984,0 2.631989,0 3.888,0c1.207977,0 2.362,0 3.455994,0c1.027985,0 1.984009,0 3.656006,0c0.706665,0 1.333313,0 1.889984,0c0.496674,0 0.943329,0 1.350006,0c0.376678,0 0.733337,0 1.426666,0c0.355011,0 0.720001,0 1.095001,0c0.38501,0 0.779999,0 1.184998,0c0.415009,0 0.839996,0 1.720001,0c0.454681,0 0.917328,0 1.385986,0c0.472687,0 0.947357,0 1.422028,0c0.472656,0 0.941315,0 1.858643,0c0.44519,0 0.881348,0 1.309509,0c0.421173,0 0.836334,0 1.24649,0c0.406189,0 0.809357,0 1.610687,0c0.400146,0 0.801331,0 1.204498,0c0.406158,0 0.816315,0 1.231506,0c0.421143,0 0.849304,0 1.730652,0c0.454987,0 0.920013,0 1.394989,0c0.485016,0 0.980011,0 1.485016,0c0.514984,0 1.040009,0 2.119995,0c0.554169,0 1.113342,0 1.672485,0c0.554169,0 1.098358,0 1.627502,0c0.509186,0 0.993347,0 1.866669,0c0.380829,0 0.726685,0 1.042511,0c0.290833,0 0.561676,0 0.817505,0c0.245819,0 0.486664,0 0.973328,0c0.254822,0 0.518677,0 0.790497,0c0.278839,0 0.56366,0 0.853516,0c0.293823,0 0.590668,0 1.189331,0c0.300323,0 0.602661,0 0.908997,0c0.312317,0 0.63266,0 0.962982,0c0.342346,0 0.698669,0 1.461334,0c0.409668,0 0.837341,0 1.281006,0c0.457672,0 0.927338,0 1.407013,0c0.487671,0 0.981323,0 1.978668,0c0.499817,0 0.998657,0 1.495483,0c0.493835,0 0.983673,0 1.468506,0c0.478821,0 0.950653,0 1.869324,0c0.445007,0 0.880005,0 1.305023,0c0.414978,0 0.819977,0 1.214996,0c0.384979,0 0.759979,0 1.47998,0c0.344849,0 0.67868,0 1.000519,0c0.308838,0 0.603668,0 0.883484,0c0.263855,0 0.510681,0 0.949341,0c0.190826,0 0.366669,0 0.532501,0c0.160828,0 0.321655,0 0.487488,0c0.175842,0 0.366669,0 0.813354,0c0.264313,0 0.554657,0 0.867004,0c0.330322,0 0.674652,0 1.028992,0c0.360321,0 0.722656,0 1.437317,0c0.34552,0 0.684021,0 1.018524,0c0.333496,0 0.668976,0 1.009491,0c0.34848,0 0.708008,0 1.471985,0c0.409515,0 0.835999,0 1.27652,0c0.451477,0 0.91098,0 1.375488,0c0.466492,0 0.932007,0 1.847992,0c0.445496,0 0.884003,0 1.318512,0c0.433502,0 0.868988,0 1.309509,0c0.448486,0 0.90799,0 1.871979,0c0.509338,0 1.034668,0 1.572021,0c0.545319,0 1.094666,0 1.643982,0c0.545349,0 1.082672,0 2.11734,0c0.48999,0 0.959991,0 1.410004,0c0.429993,0 0.839996,0 1.230011,0c0.369995,0 0.719971,0 1.359985,0c0.290497,0 0.563995,0 0.823486,0c0.248505,0 0.489014,0 0.724518,0c0.23349,0 0.467987,0 0.951996,0c0.254486,0 0.515991,0 0.781494,0c0.26651,0 0.531006,0 0.790497,0c0.251495,0 0.492004,0 0.928009,0c0.190491,0 0.364014,0 0.523499,0c0.148499,0 0.289001,0 0.4245,0c0.133514,0 0.268005,-0.000122 0.552002,0c0.15451,0.000061 0.31604,-0.000183 0.481506,0.004456c0.166565,0.004639 0.33136,0.012817 0.490479,0.031494c0.151947,0.017822 0.302063,0.024658 0.528015,0.130676c0.095673,0.044922 0.169067,0.114136 0.218994,0.190491c0.048981,0.07489 0.076813,0.162842 0.093018,0.25354c0.016632,0.09314 0.019836,0.190674 0.021332,0.389343c0.000763,0.100159 -0.000092,0.201355 0.004486,0.304504c0.00473,0.106201 0.013916,0.216675 0.031494,0.331482c0.018616,0.121582 0.041016,0.251892 0.130676,0.53064c0.050201,0.156128 0.115967,0.317261 0.190491,0.481506c0.076111,0.167786 0.16037,0.332886 0.25351,0.49054c0.090668,0.153442 0.175079,0.30603 0.389343,0.527954c0.093781,0.097107 0.198639,0.168945 0.304504,0.223511c0.103729,0.053467 0.21579,0.090698 0.331482,0.124512c0.120667,0.035278 0.251495,0.061035 0.53067,0.151978c0.155975,0.050842 0.317719,0.116394 0.485992,0.186035c0.173096,0.071655 0.347351,0.147339 0.522003,0.221985l0.172668,0.072693l0.168671,0.068665" fill="none" id="svg_72" stroke="#000000" stroke-width="5"/>
  <path d="m444.111115,99.666687c1.666168,0.415665 2.306519,1.064438 2.518829,1.447662c0.921844,1.663918 1.132141,2.529282 1.453186,3.463005c0.35553,1.03405 0.713654,2.167068 1.090485,3.380997c0.39798,1.282021 0.801971,2.624519 1.225494,4.011002c0.875153,2.865074 1.331329,4.320633 1.800018,5.790665c0.475586,1.491653 0.967743,3.007187 1.474487,4.552498c0.518555,1.581367 1.055573,3.20192 1.609497,4.8675c1.15976,3.487206 1.770599,5.316032 2.399994,7.200005c0.64624,1.934357 1.309265,3.913803 1.990509,5.932495c0.69339,2.054657 1.400085,4.139557 2.125488,6.247498c1.471436,4.275848 2.229156,6.429504 3,8.58934c0.773468,2.167175 1.561951,4.334763 2.374512,6.496506c0.812775,2.162292 1.640533,4.317352 2.509491,6.451492c1.730011,4.248901 2.664917,6.329895 3.596008,8.406662c0.93161,2.077927 1.886414,4.152985 2.832001,6.246002c0.953125,2.10965 1.915375,4.241867 2.832001,6.42601c1.877228,4.473022 2.738739,6.812439 3.59201,9.186661c0.858185,2.387833 1.670502,4.788971 2.450989,7.179001c0.768738,2.35405 1.493774,4.664017 2.181,6.908997c1.289459,4.212311 1.860535,6.157211 2.401337,7.992004c0.512054,1.737244 0.991821,3.390915 1.438507,4.973999c0.429138,1.520966 0.835907,2.994171 1.213501,4.43399c0.737549,2.812485 1.07251,4.214859 1.405334,5.613342c0.331482,1.392868 0.650604,2.781036 0.964478,4.160995c0.311462,1.369385 0.614838,2.727676 0.919525,4.070999c0.598358,2.638016 0.899048,3.927872 1.201324,5.197342c0.29776,1.250534 0.597626,2.480591 0.899994,3.690002c0.297638,1.190567 0.596252,2.360977 0.899994,3.509995c0.592682,2.241943 0.8992,3.330292 1.197327,4.401337c0.293182,1.053284 0.584137,2.088562 0.861023,3.109497c0.2724,1.004425 0.537292,1.993896 0.770996,2.974487c0.456848,1.916809 0.634644,2.865967 0.801331,3.808014c0.16626,0.939636 0.311462,1.886139 0.448486,2.842499c0.139038,0.970337 0.268433,1.961731 0.403503,2.977509c0.282806,2.126801 0.436768,3.245789 0.602661,4.397308c0.169739,1.178162 0.348633,2.375 0.535522,3.583527c0.187775,1.214111 0.380188,2.426239 0.580505,3.628479c0.391846,2.351807 0.59668,3.486694 0.798645,4.596008c0.19809,1.088043 0.399078,2.157532 0.600006,3.213013c0.199097,1.045837 0.400452,2.085236 0.600006,3.122986c0.40094,2.085144 0.598785,3.140137 0.802673,4.201324c0.204773,1.065826 0.41333,2.133118 0.638977,3.196503c0.225067,1.060638 0.458099,2.114716 0.729004,3.15152c0.534027,2.043701 0.864868,3.028687 1.196014,3.998657c0.327301,0.95871 0.67392,1.898438 1.012482,2.82901c0.334747,0.920105 0.672394,1.827972 0.967529,2.738983c0.581116,1.793915 0.798889,2.700623 1,3.604004c0.200562,0.901031 0.369507,1.808807 0.532471,2.719513c0.163696,0.914642 0.314392,1.837677 0.487488,2.764496c0.351929,1.884125 0.571594,2.836823 0.800049,3.797333c0.229858,0.966522 0.475098,1.93158 0.712463,2.896484c0.235962,0.959076 0.471924,1.908112 0.667542,2.851501c0.379639,1.83075 0.498596,2.725861 0.599976,3.604004c0.10022,0.86795 0.169495,1.735779 0.232483,2.606995c0.06366,0.880798 0.114929,1.778534 0.1875,2.697021c0.152466,1.929169 0.272217,2.947937 0.401367,4.003998c0.133423,1.090973 0.284241,2.211761 0.432007,3.361481c0.15094,1.174286 0.305542,2.369812 0.431946,3.586517c0.256958,2.473755 0.331604,3.730621 0.400024,4.996002c0.06897,1.274658 0.117554,2.559998 0.16803,3.85498c0.050903,1.305023 0.095764,2.620483 0.167969,3.945007c0.146118,2.681122 0.26886,4.034882 0.400024,5.394653c0.13147,1.362915 0.282104,2.722748 0.432007,4.077026c0.148804,1.344391 0.302917,2.673798 0.431946,3.987c0.250854,2.553131 0.329956,3.790222 0.401367,5.001312c0.07019,1.190613 0.124023,2.366821 0.1875,3.532501c0.063171,1.16098 0.126465,2.322968 0.232483,3.487518c0.215759,2.36969 0.403015,3.577332 0.598694,4.802643c0.198303,1.24176 0.424438,2.491943 0.64801,3.751526c0.224426,1.264435 0.456116,2.528748 0.647949,3.796478c0.380127,2.511932 0.498169,3.759949 0.597351,4.99469c0.098083,1.221039 0.162048,2.43045 0.213013,3.625488c0.050293,1.179657 0.082275,2.34375 0.122986,3.490509c0.079407,2.238861 0.135071,3.329987 0.205322,4.406647c0.069763,1.069366 0.155518,2.136414 0.255005,3.207001c0.100464,1.081421 0.215332,2.178558 0.345032,3.296997c0.270142,2.329163 0.433594,3.546143 0.596008,4.792023c0.164551,1.262115 0.333191,2.527832 0.49646,3.78598c0.160645,1.237854 0.317261,2.443268 0.451538,3.606018c0.247437,2.1427 0.332153,3.105042 0.398621,3.996002c0.061768,0.828094 0.10321,1.60379 0.129028,2.33548c0.024597,0.69635 0.035156,1.366974 0.039001,2.020508c0.007629,1.291962 0.002686,1.946503 0.002686,2.608002c0,0.665497 0,1.332001 0,1.99649c0,0.659515 0,1.311005 0,1.951508c0,1.235992 0,1.826508 0,2.399994c0,0.559509 0,1.108002 0,1.648499c0,0.535522 0,1.069 0,1.603516c0,1.083984 0,1.639008 0,2.203979c0,0.575012 0,1.160004 0,1.755005c0,0.605011 0,1.220001 0,1.845001c0,1.279999 0,1.934845 0,2.598663c0,0.671844 0,1.350677 0,2.035522c0,0.689819 0,1.383667 0,2.080475c0,1.398682 0,2.098694 0,2.798676c0,0.700012 0,1.399994 0,2.100006c0,0.700012 0,1.399994 0,2.100006c0,1.399994 0,2.100159 0,2.801331c0,0.703156 0,1.409332 0,2.119507c0,0.715149 0,1.43631 0,2.16449c0,1.481323 0,2.235504 0,2.994659c0,0.759186 0,1.513336 0,2.257507c0,0.729156 0,1.438324 0,2.122498c0,1.273346 0,1.854675 0,2.403992c0,0.52533 0,1.034668 0,1.536011c0,0.501343 0,1.010651 0,1.536011c0,1.130646 0,1.749664 0,2.402649c0,0.681 0,1.384003 0,2.102997c0,0.729004 0,1.462006 0,2.192993c0,1.432007 0.00177,2.121857 -0.002686,2.79068c-0.004272,0.646851 -0.013,1.270935 -0.039001,1.870483c-0.024902,0.575073 -0.056946,1.12561 -0.129028,1.645508c-0.133545,0.963135 -0.263306,1.397644 -0.398621,1.807983c-0.131958,0.400146 -0.290833,0.785828 -0.451538,1.171509c-0.163208,0.391724 -0.340698,0.79071 -0.49646,1.216492c-0.337219,0.921875 -0.466797,1.446655 -0.598694,1.998718c-0.136963,0.573303 -0.258667,1.165283 -0.383972,1.763977c-0.125366,0.598694 -0.243042,1.19165 -0.384033,1.763977c-0.264587,1.073975 -0.430908,1.552795 -0.598633,1.998657c-0.159668,0.424438 -0.333313,0.824829 -0.496521,1.216553c-0.160706,0.385681 -0.324829,0.769653 -0.451538,1.171448c-0.265137,0.840698 -0.33313,1.312805 -0.402649,1.804016c-0.072388,0.511414 -0.124817,1.042847 -0.1875,1.587036c-0.063904,0.554565 -0.125488,1.117493 -0.232483,1.677002c-0.214417,1.121277 -0.400696,1.663452 -0.599976,2.195984c-0.199097,0.531982 -0.430359,1.05072 -0.667542,1.564514c-0.236145,0.511536 -0.485168,1.013184 -0.712463,1.51947c-0.446838,0.995361 -0.629456,1.499512 -0.798706,2.001343c-0.16803,0.49823 -0.317322,1 -0.467957,1.5c-0.150696,0.5 -0.296448,1.002991 -0.468018,1.5c-0.347412,1.006348 -0.568848,1.502991 -0.802673,2.001343c-0.237427,0.506104 -0.498535,1.010864 -0.770996,1.51947c-0.276794,0.516724 -0.568054,1.03595 -0.861023,1.564514c-0.598816,1.080505 -0.897766,1.635437 -1.197327,2.195984c-0.300415,0.562134 -0.597839,1.12384 -0.899963,1.677002c-0.297974,0.545532 -0.592041,1.079468 -0.900024,1.587036c-0.5849,0.963928 -0.896088,1.393372 -1.198669,1.802673c-0.293243,0.396667 -0.592255,0.77478 -0.880493,1.151978c-0.286407,0.374756 -0.574615,0.750671 -0.83551,1.151978c-0.541809,0.833435 -0.770569,1.309265 -1.001343,1.802673c-0.238159,0.509216 -0.460388,1.041931 -0.68399,1.587036c-0.227112,0.553589 -0.44751,1.11676 -0.68399,1.677002c-0.472382,1.119019 -0.730804,1.663452 -1.005341,2.195984c-0.2742,0.53186 -0.570404,1.054443 -0.894012,1.564514c-0.327057,0.515503 -0.679932,1.026184 -1.073975,1.51947c-0.816833,1.022522 -1.302155,1.505798 -1.794678,2.001343c-0.501465,0.504578 -1.024017,1 -1.548004,1.5c-0.523987,0.5 -1.049683,0.99231 -1.548004,1.5c-0.967163,0.985352 -1.393982,1.4953 -1.799988,2.001343c-0.399963,0.498474 -0.777191,1.008484 -1.152008,1.51947c-0.377228,0.514282 -0.751678,1.041138 -1.152008,1.564514c-0.83493,1.091492 -1.307861,1.63916 -1.798645,2.195984c-0.49881,0.565918 -1.013519,1.123779 -1.528503,1.677002c-0.507721,0.54541 -1.008545,1.072021 -1.483521,1.587036c-0.875977,0.949768 -1.253998,1.387878 -1.597321,1.797302c-0.318146,0.379395 -0.606293,0.739014 -0.877502,1.074036c-0.255493,0.315613 -0.49585,0.617737 -0.742493,0.893982c-0.475647,0.532715 -0.739502,0.770325 -1.003998,1.007996c-0.266846,0.239746 -0.543793,0.47467 -0.81601,0.723022c-0.277161,0.252869 -0.55838,0.515381 -0.81601,0.812988c-0.541321,0.625305 -0.768555,1.005981 -1.001312,1.398682c-0.240448,0.40564 -0.467163,0.833801 -0.703522,1.267456c-0.239624,0.439697 -0.476868,0.885803 -0.748474,1.3125c-0.540375,0.848877 -0.865509,1.23053 -1.198669,1.594666c-0.329712,0.360352 -0.678894,0.693542 -1.032013,1.009521c-0.345673,0.309326 -0.694397,0.596619 -1.032013,0.874512c-0.634125,0.521912 -0.926544,0.764709 -1.197327,1.002625c-0.257813,0.226501 -0.499756,0.448181 -0.729004,0.664551c-0.221405,0.208984 -0.433258,0.41571 -0.638977,0.619507c-0.40387,0.400085 -0.603668,0.600647 -0.802673,0.803955c-0.201019,0.205383 -0.402435,0.416504 -0.600006,0.639038c-0.202515,0.228088 -0.405762,0.468262 -0.600006,0.729004c-0.412415,0.553589 -0.602722,0.870056 -0.798645,1.195984c-0.199799,0.332397 -0.391541,0.672852 -0.580505,1.012512c-0.185669,0.333679 -0.361328,0.659607 -0.535522,0.967468c-0.314453,0.555725 -0.460236,0.791321 -0.601318,0.997314c-0.127991,0.186829 -0.254761,0.351501 -0.384003,0.49353c-0.121765,0.13385 -0.248901,0.253662 -0.384003,0.358521c-0.27536,0.213745 -0.436859,0.305176 -0.601318,0.405334c-0.171173,0.104248 -0.351105,0.208557 -0.535522,0.319458c-0.190277,0.114441 -0.386078,0.232666 -0.580475,0.364502c-0.40387,0.273865 -0.600372,0.433777 -0.797333,0.598694c-0.19873,0.166382 -0.391846,0.340027 -0.580505,0.515991c-0.186005,0.173462 -0.364288,0.346741 -0.535522,0.515991c-0.319824,0.316162 -0.464203,0.461975 -0.598663,0.598694c-0.125519,0.127686 -0.241608,0.247864 -0.345001,0.364502c-0.096527,0.108826 -0.184753,0.213013 -0.254974,0.319458c-0.129059,0.195679 -0.167725,0.300354 -0.202667,0.400024c-0.033661,0.096008 -0.057983,0.190857 -0.084015,0.280518c-0.024689,0.085022 -0.045746,0.167053 -0.083984,0.235474c-0.070557,0.126221 -0.135101,0.168457 -0.201355,0.200012c-0.069641,0.033203 -0.150208,0.052063 -0.235504,0.064514c-0.089447,0.013062 -0.183624,0.017578 -0.280487,0.01947c-0.198639,0.003906 -0.298737,-0.000305 -0.398682,0.004028c-0.100067,0.004333 -0.199982,0.018616 -0.299988,0.039001l-0.100006,0.030334l-0.100006,0.042297l-0.099976,0.056335" fill="none" id="svg_93" stroke="#000000" stroke-width="5"/>
  <text fill="#000000" font-family="Fantasy" font-size="42" id="svg_94" stroke="#000000" stroke-width="0" text-anchor="middle" x="631.111116" xml:space="preserve" y="396.666685">Memory</text>
 </g>
</svg>