<svg width="165" height="747" xmlns="http://www.w3.org/2000/svg" xmlns:xlink="http://www.w3.org/1999/xlink" overflow="hidden"><defs><clipPath id="clip0"><rect x="1333" y="372" width="165" height="747"/></clipPath></defs><g clip-path="url(#clip0)" transform="translate(-1333 -372)"><path d="M1337.96 481.609 1376.88 481.609 1376.88 513.368 1337.96 513.368Z" fill="#F0F0F0" fill-rule="evenodd"/><path d="M1376.88 481.609 1415.81 481.609 1415.81 513.368 1376.88 513.368Z" fill="#F0F0F0" fill-rule="evenodd"/><path d="M1415.81 481.609 1454.74 481.609 1454.74 513.368 1415.81 513.368Z" fill="#F0F0F0" fill-rule="evenodd"/><path d="M1454.74 481.609 1493.67 481.609 1493.67 513.368 1454.74 513.368Z" fill="#F0F0F0" fill-rule="evenodd"/><path d="M1337.96 513.368 1376.88 513.368 1376.88 545.127 1337.96 545.127Z" fill="#E1E1E1" fill-rule="evenodd"/><path d="M1376.88 513.368 1415.81 513.368 1415.81 545.127 1376.88 545.127Z" fill="#E1E1E1" fill-rule="evenodd"/><path d="M1415.81 513.368 1454.74 513.368 1454.74 545.127 1415.81 545.127Z" fill="#E1E1E1" fill-rule="evenodd"/><path d="M1454.74 513.368 1493.67 513.368 1493.67 545.127 1454.74 545.127Z" fill="#E1E1E1" fill-rule="evenodd"/><path d="M1337.96 545.127 1376.88 545.127 1376.88 576.886 1337.96 576.886Z" fill="#F0F0F0" fill-rule="evenodd"/><path d="M1376.88 545.127 1415.81 545.127 1415.81 576.886 1376.88 576.886Z" fill="#F0F0F0" fill-rule="evenodd"/><path d="M1415.81 545.127 1454.74 545.127 1454.74 576.886 1415.81 576.886Z" fill="#F0F0F0" fill-rule="evenodd"/><path d="M1454.74 545.127 1493.67 545.127 1493.67 576.886 1454.74 576.886Z" fill="#F0F0F0" fill-rule="evenodd"/><path d="M1337.96 576.886 1376.88 576.886 1376.88 608.645 1337.96 608.645Z" fill="#E1E1E1" fill-rule="evenodd"/><path d="M1376.88 576.886 1415.81 576.886 1415.81 608.645 1376.88 608.645Z" fill="#E1E1E1" fill-rule="evenodd"/><path d="M1415.81 576.886 1454.74 576.886 1454.74 608.645 1415.81 608.645Z" fill="#E1E1E1" fill-rule="evenodd"/><path d="M1454.74 576.886 1493.67 576.886 1493.67 608.645 1454.74 608.645Z" fill="#E1E1E1" fill-rule="evenodd"/><path d="M1337.96 608.645 1376.88 608.645 1376.88 640.404 1337.96 640.404Z" fill="#F0F0F0" fill-rule="evenodd"/><path d="M1376.88 608.645 1415.81 608.645 1415.81 640.404 1376.88 640.404Z" fill="#F0F0F0" fill-rule="evenodd"/><path d="M1415.81 608.645 1454.74 608.645 1454.74 640.404 1415.81 640.404Z" fill="#F0F0F0" fill-rule="evenodd"/><path d="M1454.74 608.645 1493.67 608.645 1493.67 640.404 1454.74 640.404Z" fill="#F0F0F0" fill-rule="evenodd"/><path d="M1337.96 640.404 1376.88 640.404 1376.88 672.163 1337.96 672.163Z" fill="#E1E1E1" fill-rule="evenodd"/><path d="M1376.88 640.404 1415.81 640.404 1415.81 672.163 1376.88 672.163Z" fill="#E1E1E1" fill-rule="evenodd"/><path d="M1415.81 640.404 1454.74 640.404 1454.74 672.163 1415.81 672.163Z" fill="#E1E1E1" fill-rule="evenodd"/><path d="M1454.74 640.404 1493.67 640.404 1493.67 672.163 1454.74 672.163Z" fill="#E1E1E1" fill-rule="evenodd"/><path d="M1337.96 672.163 1376.88 672.163 1376.88 703.922 1337.96 703.922Z" fill="#F0F0F0" fill-rule="evenodd"/><path d="M1376.88 672.163 1415.81 672.163 1415.81 703.922 1376.88 703.922Z" fill="#F0F0F0" fill-rule="evenodd"/><path d="M1415.81 672.163 1454.74 672.163 1454.74 703.922 1415.81 703.922Z" fill="#F0F0F0" fill-rule="evenodd"/><path d="M1454.74 672.163 1493.67 672.163 1493.67 703.922 1454.74 703.922Z" fill="#F0F0F0" fill-rule="evenodd"/><path d="M1337.96 703.922 1376.88 703.922 1376.88 735.682 1337.96 735.682Z" fill="#E1E1E1" fill-rule="evenodd"/><path d="M1376.88 703.922 1415.81 703.922 1415.81 735.682 1376.88 735.682Z" fill="#E1E1E1" fill-rule="evenodd"/><path d="M1415.81 703.922 1454.74 703.922 1454.74 735.682 1415.81 735.682Z" fill="#E1E1E1" fill-rule="evenodd"/><path d="M1454.74 703.922 1493.67 703.922 1493.67 735.682 1454.74 735.682Z" fill="#E1E1E1" fill-rule="evenodd"/><path d="M1337.96 735.682 1376.88 735.682 1376.88 767.441 1337.96 767.441Z" fill="#F0F0F0" fill-rule="evenodd"/><path d="M1376.88 735.682 1415.81 735.682 1415.81 767.441 1376.88 767.441Z" fill="#F0F0F0" fill-rule="evenodd"/><path d="M1415.81 735.682 1454.74 735.682 1454.74 767.441 1415.81 767.441Z" fill="#F0F0F0" fill-rule="evenodd"/><path d="M1454.74 735.682 1493.67 735.682 1493.67 767.441 1454.74 767.441Z" fill="#F0F0F0" fill-rule="evenodd"/><path d="M1337.96 767.441 1376.88 767.441 1376.88 799.2 1337.96 799.2Z" fill="#E1E1E1" fill-rule="evenodd"/><path d="M1376.88 767.441 1415.81 767.441 1415.81 799.2 1376.88 799.2Z" fill="#E1E1E1" fill-rule="evenodd"/><path d="M1415.81 767.441 1454.74 767.441 1454.74 799.2 1415.81 799.2Z" fill="#E1E1E1" fill-rule="evenodd"/><path d="M1454.74 767.441 1493.67 767.441 1493.67 799.2 1454.74 799.2Z" fill="#E1E1E1" fill-rule="evenodd"/><path d="M1337.96 799.2 1376.88 799.2 1376.88 830.959 1337.96 830.959Z" fill="#F0F0F0" fill-rule="evenodd"/><path d="M1376.88 799.2 1415.81 799.2 1415.81 830.959 1376.88 830.959Z" fill="#F0F0F0" fill-rule="evenodd"/><path d="M1415.81 799.2 1454.74 799.2 1454.74 830.959 1415.81 830.959Z" fill="#F0F0F0" fill-rule="evenodd"/><path d="M1454.74 799.2 1493.67 799.2 1493.67 830.959 1454.74 830.959Z" fill="#F0F0F0" fill-rule="evenodd"/><path d="M1337.96 830.959 1376.88 830.959 1376.88 862.718 1337.96 862.718Z" fill="#E1E1E1" fill-rule="evenodd"/><path d="M1376.88 830.959 1415.81 830.959 1415.81 862.718 1376.88 862.718Z" fill="#E1E1E1" fill-rule="evenodd"/><path d="M1415.81 830.959 1454.74 830.959 1454.74 862.718 1415.81 862.718Z" fill="#E1E1E1" fill-rule="evenodd"/><path d="M1454.74 830.959 1493.67 830.959 1493.67 862.718 1454.74 862.718Z" fill="#E1E1E1" fill-rule="evenodd"/><path d="M1337.96 862.718 1376.88 862.718 1376.88 894.477 1337.96 894.477Z" fill="#F0F0F0" fill-rule="evenodd"/><path d="M1376.88 862.718 1415.81 862.718 1415.81 894.477 1376.88 894.477Z" fill="#F0F0F0" fill-rule="evenodd"/><path d="M1415.81 862.718 1454.74 862.718 1454.74 894.477 1415.81 894.477Z" fill="#F0F0F0" fill-rule="evenodd"/><path d="M1454.74 862.718 1493.67 862.718 1493.67 894.477 1454.74 894.477Z" fill="#F0F0F0" fill-rule="evenodd"/><path d="M1337.96 894.477 1376.88 894.477 1376.88 926.236 1337.96 926.236Z" fill="#E1E1E1" fill-rule="evenodd"/><path d="M1376.88 894.477 1415.81 894.477 1415.81 926.236 1376.88 926.236Z" fill="#E1E1E1" fill-rule="evenodd"/><path d="M1415.81 894.477 1454.74 894.477 1454.74 926.236 1415.81 926.236Z" fill="#E1E1E1" fill-rule="evenodd"/><path d="M1454.74 894.477 1493.67 894.477 1493.67 926.236 1454.74 926.236Z" fill="#E1E1E1" fill-rule="evenodd"/><path d="M1337.96 926.236 1376.88 926.236 1376.88 957.995 1337.96 957.995Z" fill="#F0F0F0" fill-rule="evenodd"/><path d="M1376.88 926.236 1415.81 926.236 1415.81 957.995 1376.88 957.995Z" fill="#F0F0F0" fill-rule="evenodd"/><path d="M1415.81 926.236 1454.74 926.236 1454.74 957.995 1415.81 957.995Z" fill="#F0F0F0" fill-rule="evenodd"/><path d="M1454.74 926.236 1493.67 926.236 1493.67 957.995 1454.74 957.995Z" fill="#F0F0F0" fill-rule="evenodd"/><path d="M1337.96 957.995 1376.88 957.995 1376.88 989.754 1337.96 989.754Z" fill="#E1E1E1" fill-rule="evenodd"/><path d="M1376.88 957.995 1415.81 957.995 1415.81 989.754 1376.88 989.754Z" fill="#E1E1E1" fill-rule="evenodd"/><path d="M1415.81 957.995 1454.74 957.995 1454.74 989.754 1415.81 989.754Z" fill="#E1E1E1" fill-rule="evenodd"/><path d="M1454.74 957.995 1493.67 957.995 1493.67 989.754 1454.74 989.754Z" fill="#E1E1E1" fill-rule="evenodd"/><path d="M1337.96 989.754 1376.88 989.754 1376.88 1021.51 1337.96 1021.51Z" fill="#F0F0F0" fill-rule="evenodd"/><path d="M1376.88 989.754 1415.81 989.754 1415.81 1021.51 1376.88 1021.51Z" fill="#F0F0F0" fill-rule="evenodd"/><path d="M1415.81 989.754 1454.74 989.754 1454.74 1021.51 1415.81 1021.51Z" fill="#F0F0F0" fill-rule="evenodd"/><path d="M1454.74 989.754 1493.67 989.754 1493.67 1021.51 1454.74 1021.51Z" fill="#F0F0F0" fill-rule="evenodd"/><path d="M1337.96 1021.51 1376.88 1021.51 1376.88 1053.27 1337.96 1053.27Z" fill="#E1E1E1" fill-rule="evenodd"/><path d="M1376.88 1021.51 1415.81 1021.51 1415.81 1053.27 1376.88 1053.27Z" fill="#E1E1E1" fill-rule="evenodd"/><path d="M1415.81 1021.51 1454.74 1021.51 1454.74 1053.27 1415.81 1053.27Z" fill="#E1E1E1" fill-rule="evenodd"/><path d="M1454.74 1021.51 1493.67 1021.51 1493.67 1053.27 1454.74 1053.27Z" fill="#E1E1E1" fill-rule="evenodd"/><path d="M1337.96 1053.27 1376.88 1053.27 1376.88 1085.03 1337.96 1085.03Z" fill="#F0F0F0" fill-rule="evenodd"/><path d="M1376.88 1053.27 1415.81 1053.27 1415.81 1085.03 1376.88 1085.03Z" fill="#F0F0F0" fill-rule="evenodd"/><path d="M1415.81 1053.27 1454.74 1053.27 1454.74 1085.03 1415.81 1085.03Z" fill="#F0F0F0" fill-rule="evenodd"/><path d="M1454.74 1053.27 1493.67 1053.27 1493.67 1085.03 1454.74 1085.03Z" fill="#F0F0F0" fill-rule="evenodd"/><path d="M1337.96 1085.03 1376.88 1085.03 1376.88 1116.79 1337.96 1116.79Z" fill="#E1E1E1" fill-rule="evenodd"/><path d="M1376.88 1085.03 1415.81 1085.03 1415.81 1116.79 1376.88 1116.79Z" fill="#E1E1E1" fill-rule="evenodd"/><path d="M1415.81 1085.03 1454.74 1085.03 1454.74 1116.79 1415.81 1116.79Z" fill="#E1E1E1" fill-rule="evenodd"/><path d="M1454.74 1085.03 1493.67 1085.03 1493.67 1116.79 1454.74 1116.79Z" fill="#E1E1E1" fill-rule="evenodd"/><path d="M1376.88 480.942 1376.88 1117.46" stroke="#A5A5A5" stroke-width="1.33333" stroke-linejoin="round" stroke-miterlimit="10" fill="none" fill-rule="evenodd"/><path d="M1415.81 480.942 1415.81 1117.46" stroke="#A5A5A5" stroke-width="1.33333" stroke-linejoin="round" stroke-miterlimit="10" fill="none" fill-rule="evenodd"/><path d="M1454.74 480.942 1454.74 1117.46" stroke="#A5A5A5" stroke-width="1.33333" stroke-linejoin="round" stroke-miterlimit="10" fill="none" fill-rule="evenodd"/><path d="M1337.29 513.368 1494.33 513.368" stroke="#A5A5A5" stroke-width="1.33333" stroke-linejoin="round" stroke-miterlimit="10" fill="none" fill-rule="evenodd"/><path d="M1337.29 545.127 1494.33 545.127" stroke="#A5A5A5" stroke-width="1.33333" stroke-linejoin="round" stroke-miterlimit="10" fill="none" fill-rule="evenodd"/><path d="M1337.29 576.886 1494.33 576.886" stroke="#A5A5A5" stroke-width="1.33333" stroke-linejoin="round" stroke-miterlimit="10" fill="none" fill-rule="evenodd"/><path d="M1337.29 608.645 1494.33 608.645" stroke="#A5A5A5" stroke-width="1.33333" stroke-linejoin="round" stroke-miterlimit="10" fill="none" fill-rule="evenodd"/><path d="M1337.29 640.404 1494.33 640.404" stroke="#A5A5A5" stroke-width="1.33333" stroke-linejoin="round" stroke-miterlimit="10" fill="none" fill-rule="evenodd"/><path d="M1337.29 672.163 1494.33 672.163" stroke="#A5A5A5" stroke-width="1.33333" stroke-linejoin="round" stroke-miterlimit="10" fill="none" fill-rule="evenodd"/><path d="M1337.29 703.922 1494.33 703.922" stroke="#A5A5A5" stroke-width="1.33333" stroke-linejoin="round" stroke-miterlimit="10" fill="none" fill-rule="evenodd"/><path d="M1337.29 735.682 1494.33 735.682" stroke="#A5A5A5" stroke-width="1.33333" stroke-linejoin="round" stroke-miterlimit="10" fill="none" fill-rule="evenodd"/><path d="M1337.29 767.441 1494.33 767.441" stroke="#A5A5A5" stroke-width="1.33333" stroke-linejoin="round" stroke-miterlimit="10" fill="none" fill-rule="evenodd"/><path d="M1337.29 799.2 1494.33 799.2" stroke="#A5A5A5" stroke-width="1.33333" stroke-linejoin="round" stroke-miterlimit="10" fill="none" fill-rule="evenodd"/><path d="M1337.29 830.959 1494.33 830.959" stroke="#A5A5A5" stroke-width="1.33333" stroke-linejoin="round" stroke-miterlimit="10" fill="none" fill-rule="evenodd"/><path d="M1337.29 862.718 1494.33 862.718" stroke="#A5A5A5" stroke-width="1.33333" stroke-linejoin="round" stroke-miterlimit="10" fill="none" fill-rule="evenodd"/><path d="M1337.29 894.477 1494.33 894.477" stroke="#A5A5A5" stroke-width="1.33333" stroke-linejoin="round" stroke-miterlimit="10" fill="none" fill-rule="evenodd"/><path d="M1337.29 926.236 1494.33 926.236" stroke="#A5A5A5" stroke-width="1.33333" stroke-linejoin="round" stroke-miterlimit="10" fill="none" fill-rule="evenodd"/><path d="M1337.29 957.995 1494.33 957.995" stroke="#A5A5A5" stroke-width="1.33333" stroke-linejoin="round" stroke-miterlimit="10" fill="none" fill-rule="evenodd"/><path d="M1337.29 989.754 1494.33 989.754" stroke="#A5A5A5" stroke-width="1.33333" stroke-linejoin="round" stroke-miterlimit="10" fill="none" fill-rule="evenodd"/><path d="M1337.29 1021.51 1494.33 1021.51" stroke="#A5A5A5" stroke-width="1.33333" stroke-linejoin="round" stroke-miterlimit="10" fill="none" fill-rule="evenodd"/><path d="M1337.29 1053.27 1494.33 1053.27" stroke="#A5A5A5" stroke-width="1.33333" stroke-linejoin="round" stroke-miterlimit="10" fill="none" fill-rule="evenodd"/><path d="M1337.29 1085.03 1494.33 1085.03" stroke="#A5A5A5" stroke-width="1.33333" stroke-linejoin="round" stroke-miterlimit="10" fill="none" fill-rule="evenodd"/><path d="M1337.96 480.942 1337.96 1117.46" stroke="#A5A5A5" stroke-width="1.33333" stroke-linejoin="round" stroke-miterlimit="10" fill="none" fill-rule="evenodd"/><path d="M1493.67 480.942 1493.67 1117.46" stroke="#A5A5A5" stroke-width="1.33333" stroke-linejoin="round" stroke-miterlimit="10" fill="none" fill-rule="evenodd"/><path d="M1337.29 481.609 1494.33 481.609" stroke="#A5A5A5" stroke-width="1.33333" stroke-linejoin="round" stroke-miterlimit="10" fill="none" fill-rule="evenodd"/><path d="M1337.29 1116.79 1494.33 1116.79" stroke="#A5A5A5" stroke-width="1.33333" stroke-linejoin="round" stroke-miterlimit="10" fill="none" fill-rule="evenodd"/><rect x="1337" y="864" width="156" height="254" fill="#00B050" fill-opacity="0.74902"/><text font-family="NanumGothic,NanumGothic_MSFontService,sans-serif" font-weight="600" font-size="21" transform="translate(1387.8 985)">alpha<tspan font-weight="400" font-size="21" x="-25.8334" y="26">(value = 3)</tspan></text><rect x="1337" y="482" width="156" height="254" fill="#92D050" fill-opacity="0.74902"/><text font-family="NanumGothic,NanumGothic_MSFontService,sans-serif" font-weight="600" font-size="21" transform="translate(1392.46 591)">beta<tspan font-weight="400" font-size="21" x="-17.7467" y="26">(value = </tspan><tspan fill="#171717" font-weight="400" font-size="21" x="-46.2467" y="52">2147483647</tspan><tspan font-weight="400" font-size="21" x="83.7533" y="52">)</tspan></text><rect x="1425" y="439" width="69" height="42"/><text fill="#FFFFFF" font-family="NanumGothic,NanumGothic_MSFontService,sans-serif" font-weight="400" font-size="19" transform="translate(1436.5 467)">Stack</text><path d="M1337 428.5 1392.5 373 1448 428.5 1420.25 428.5 1420.25 525 1364.75 525 1364.75 428.5Z" fill="#404040" fill-rule="evenodd"/><text fill="#FFFFFF" font-family="NanumGothic,NanumGothic_MSFontService,sans-serif" font-weight="400" font-size="16" transform="translate(1388.14 449)">P<tspan font-size="16" x="-1.75342" y="20">O</tspan><tspan font-size="16" x="0" y="39">P</tspan></text></g></svg>