<svg width="165" height="680" xmlns="http://www.w3.org/2000/svg" xmlns:xlink="http://www.w3.org/1999/xlink" overflow="hidden"><defs><clipPath id="clip0"><rect x="1121" y="439" width="165" height="680"/></clipPath></defs><g clip-path="url(#clip0)" transform="translate(-1121 -439)"><path d="M1125.96 481.609 1164.88 481.609 1164.88 513.368 1125.96 513.368Z" fill="#F0F0F0" fill-rule="evenodd"/><path d="M1164.88 481.609 1203.81 481.609 1203.81 513.368 1164.88 513.368Z" fill="#F0F0F0" fill-rule="evenodd"/><path d="M1203.81 481.609 1242.74 481.609 1242.74 513.368 1203.81 513.368Z" fill="#F0F0F0" fill-rule="evenodd"/><path d="M1242.74 481.609 1281.67 481.609 1281.67 513.368 1242.74 513.368Z" fill="#F0F0F0" fill-rule="evenodd"/><path d="M1125.96 513.368 1164.88 513.368 1164.88 545.127 1125.96 545.127Z" fill="#E1E1E1" fill-rule="evenodd"/><path d="M1164.88 513.368 1203.81 513.368 1203.81 545.127 1164.88 545.127Z" fill="#E1E1E1" fill-rule="evenodd"/><path d="M1203.81 513.368 1242.74 513.368 1242.74 545.127 1203.81 545.127Z" fill="#E1E1E1" fill-rule="evenodd"/><path d="M1242.74 513.368 1281.67 513.368 1281.67 545.127 1242.74 545.127Z" fill="#E1E1E1" fill-rule="evenodd"/><path d="M1125.96 545.127 1164.88 545.127 1164.88 576.886 1125.96 576.886Z" fill="#F0F0F0" fill-rule="evenodd"/><path d="M1164.88 545.127 1203.81 545.127 1203.81 576.886 1164.88 576.886Z" fill="#F0F0F0" fill-rule="evenodd"/><path d="M1203.81 545.127 1242.74 545.127 1242.74 576.886 1203.81 576.886Z" fill="#F0F0F0" fill-rule="evenodd"/><path d="M1242.74 545.127 1281.67 545.127 1281.67 576.886 1242.74 576.886Z" fill="#F0F0F0" fill-rule="evenodd"/><path d="M1125.96 576.886 1164.88 576.886 1164.88 608.646 1125.96 608.646Z" fill="#E1E1E1" fill-rule="evenodd"/><path d="M1164.88 576.886 1203.81 576.886 1203.81 608.646 1164.88 608.646Z" fill="#E1E1E1" fill-rule="evenodd"/><path d="M1203.81 576.886 1242.74 576.886 1242.74 608.646 1203.81 608.646Z" fill="#E1E1E1" fill-rule="evenodd"/><path d="M1242.74 576.886 1281.67 576.886 1281.67 608.646 1242.74 608.646Z" fill="#E1E1E1" fill-rule="evenodd"/><path d="M1125.96 608.646 1164.88 608.646 1164.88 640.405 1125.96 640.405Z" fill="#F0F0F0" fill-rule="evenodd"/><path d="M1164.88 608.646 1203.81 608.646 1203.81 640.405 1164.88 640.405Z" fill="#F0F0F0" fill-rule="evenodd"/><path d="M1203.81 608.646 1242.74 608.646 1242.74 640.405 1203.81 640.405Z" fill="#F0F0F0" fill-rule="evenodd"/><path d="M1242.74 608.646 1281.67 608.646 1281.67 640.405 1242.74 640.405Z" fill="#F0F0F0" fill-rule="evenodd"/><path d="M1125.96 640.405 1164.88 640.405 1164.88 672.164 1125.96 672.164Z" fill="#E1E1E1" fill-rule="evenodd"/><path d="M1164.88 640.405 1203.81 640.405 1203.81 672.164 1164.88 672.164Z" fill="#E1E1E1" fill-rule="evenodd"/><path d="M1203.81 640.405 1242.74 640.405 1242.74 672.164 1203.81 672.164Z" fill="#E1E1E1" fill-rule="evenodd"/><path d="M1242.74 640.405 1281.67 640.405 1281.67 672.164 1242.74 672.164Z" fill="#E1E1E1" fill-rule="evenodd"/><path d="M1125.96 672.164 1164.88 672.164 1164.88 703.923 1125.96 703.923Z" fill="#F0F0F0" fill-rule="evenodd"/><path d="M1164.88 672.164 1203.81 672.164 1203.81 703.923 1164.88 703.923Z" fill="#F0F0F0" fill-rule="evenodd"/><path d="M1203.81 672.164 1242.74 672.164 1242.74 703.923 1203.81 703.923Z" fill="#F0F0F0" fill-rule="evenodd"/><path d="M1242.74 672.164 1281.67 672.164 1281.67 703.923 1242.74 703.923Z" fill="#F0F0F0" fill-rule="evenodd"/><path d="M1125.96 703.923 1164.88 703.923 1164.88 735.682 1125.96 735.682Z" fill="#E1E1E1" fill-rule="evenodd"/><path d="M1164.88 703.923 1203.81 703.923 1203.81 735.682 1164.88 735.682Z" fill="#E1E1E1" fill-rule="evenodd"/><path d="M1203.81 703.923 1242.74 703.923 1242.74 735.682 1203.81 735.682Z" fill="#E1E1E1" fill-rule="evenodd"/><path d="M1242.74 703.923 1281.67 703.923 1281.67 735.682 1242.74 735.682Z" fill="#E1E1E1" fill-rule="evenodd"/><path d="M1125.96 735.682 1164.88 735.682 1164.88 767.441 1125.96 767.441Z" fill="#F0F0F0" fill-rule="evenodd"/><path d="M1164.88 735.682 1203.81 735.682 1203.81 767.441 1164.88 767.441Z" fill="#F0F0F0" fill-rule="evenodd"/><path d="M1203.81 735.682 1242.74 735.682 1242.74 767.441 1203.81 767.441Z" fill="#F0F0F0" fill-rule="evenodd"/><path d="M1242.74 735.682 1281.67 735.682 1281.67 767.441 1242.74 767.441Z" fill="#F0F0F0" fill-rule="evenodd"/><path d="M1125.96 767.441 1164.88 767.441 1164.88 799.2 1125.96 799.2Z" fill="#E1E1E1" fill-rule="evenodd"/><path d="M1164.88 767.441 1203.81 767.441 1203.81 799.2 1164.88 799.2Z" fill="#E1E1E1" fill-rule="evenodd"/><path d="M1203.81 767.441 1242.74 767.441 1242.74 799.2 1203.81 799.2Z" fill="#E1E1E1" fill-rule="evenodd"/><path d="M1242.74 767.441 1281.67 767.441 1281.67 799.2 1242.74 799.2Z" fill="#E1E1E1" fill-rule="evenodd"/><path d="M1125.96 799.2 1164.88 799.2 1164.88 830.959 1125.96 830.959Z" fill="#F0F0F0" fill-rule="evenodd"/><path d="M1164.88 799.2 1203.81 799.2 1203.81 830.959 1164.88 830.959Z" fill="#F0F0F0" fill-rule="evenodd"/><path d="M1203.81 799.2 1242.74 799.2 1242.74 830.959 1203.81 830.959Z" fill="#F0F0F0" fill-rule="evenodd"/><path d="M1242.74 799.2 1281.67 799.2 1281.67 830.959 1242.74 830.959Z" fill="#F0F0F0" fill-rule="evenodd"/><path d="M1125.96 830.959 1164.88 830.959 1164.88 862.718 1125.96 862.718Z" fill="#E1E1E1" fill-rule="evenodd"/><path d="M1164.88 830.959 1203.81 830.959 1203.81 862.718 1164.88 862.718Z" fill="#E1E1E1" fill-rule="evenodd"/><path d="M1203.81 830.959 1242.74 830.959 1242.74 862.718 1203.81 862.718Z" fill="#E1E1E1" fill-rule="evenodd"/><path d="M1242.74 830.959 1281.67 830.959 1281.67 862.718 1242.74 862.718Z" fill="#E1E1E1" fill-rule="evenodd"/><path d="M1125.96 862.718 1164.88 862.718 1164.88 894.477 1125.96 894.477Z" fill="#F0F0F0" fill-rule="evenodd"/><path d="M1164.88 862.718 1203.81 862.718 1203.81 894.477 1164.88 894.477Z" fill="#F0F0F0" fill-rule="evenodd"/><path d="M1203.81 862.718 1242.74 862.718 1242.74 894.477 1203.81 894.477Z" fill="#F0F0F0" fill-rule="evenodd"/><path d="M1242.74 862.718 1281.67 862.718 1281.67 894.477 1242.74 894.477Z" fill="#F0F0F0" fill-rule="evenodd"/><path d="M1125.96 894.477 1164.88 894.477 1164.88 926.236 1125.96 926.236Z" fill="#E1E1E1" fill-rule="evenodd"/><path d="M1164.88 894.477 1203.81 894.477 1203.81 926.236 1164.88 926.236Z" fill="#E1E1E1" fill-rule="evenodd"/><path d="M1203.81 894.477 1242.74 894.477 1242.74 926.236 1203.81 926.236Z" fill="#E1E1E1" fill-rule="evenodd"/><path d="M1242.74 894.477 1281.67 894.477 1281.67 926.236 1242.74 926.236Z" fill="#E1E1E1" fill-rule="evenodd"/><path d="M1125.96 926.236 1164.88 926.236 1164.88 957.995 1125.96 957.995Z" fill="#F0F0F0" fill-rule="evenodd"/><path d="M1164.88 926.236 1203.81 926.236 1203.81 957.995 1164.88 957.995Z" fill="#F0F0F0" fill-rule="evenodd"/><path d="M1203.81 926.236 1242.74 926.236 1242.74 957.995 1203.81 957.995Z" fill="#F0F0F0" fill-rule="evenodd"/><path d="M1242.74 926.236 1281.67 926.236 1281.67 957.995 1242.74 957.995Z" fill="#F0F0F0" fill-rule="evenodd"/><path d="M1125.96 957.995 1164.88 957.995 1164.88 989.754 1125.96 989.754Z" fill="#E1E1E1" fill-rule="evenodd"/><path d="M1164.88 957.995 1203.81 957.995 1203.81 989.754 1164.88 989.754Z" fill="#E1E1E1" fill-rule="evenodd"/><path d="M1203.81 957.995 1242.74 957.995 1242.74 989.754 1203.81 989.754Z" fill="#E1E1E1" fill-rule="evenodd"/><path d="M1242.74 957.995 1281.67 957.995 1281.67 989.754 1242.74 989.754Z" fill="#E1E1E1" fill-rule="evenodd"/><path d="M1125.96 989.754 1164.88 989.754 1164.88 1021.51 1125.96 1021.51Z" fill="#F0F0F0" fill-rule="evenodd"/><path d="M1164.88 989.754 1203.81 989.754 1203.81 1021.51 1164.88 1021.51Z" fill="#F0F0F0" fill-rule="evenodd"/><path d="M1203.81 989.754 1242.74 989.754 1242.74 1021.51 1203.81 1021.51Z" fill="#F0F0F0" fill-rule="evenodd"/><path d="M1242.74 989.754 1281.67 989.754 1281.67 1021.51 1242.74 1021.51Z" fill="#F0F0F0" fill-rule="evenodd"/><path d="M1125.96 1021.51 1164.88 1021.51 1164.88 1053.27 1125.96 1053.27Z" fill="#E1E1E1" fill-rule="evenodd"/><path d="M1164.88 1021.51 1203.81 1021.51 1203.81 1053.27 1164.88 1053.27Z" fill="#E1E1E1" fill-rule="evenodd"/><path d="M1203.81 1021.51 1242.74 1021.51 1242.74 1053.27 1203.81 1053.27Z" fill="#E1E1E1" fill-rule="evenodd"/><path d="M1242.74 1021.51 1281.67 1021.51 1281.67 1053.27 1242.74 1053.27Z" fill="#E1E1E1" fill-rule="evenodd"/><path d="M1125.96 1053.27 1164.88 1053.27 1164.88 1085.03 1125.96 1085.03Z" fill="#F0F0F0" fill-rule="evenodd"/><path d="M1164.88 1053.27 1203.81 1053.27 1203.81 1085.03 1164.88 1085.03Z" fill="#F0F0F0" fill-rule="evenodd"/><path d="M1203.81 1053.27 1242.74 1053.27 1242.74 1085.03 1203.81 1085.03Z" fill="#F0F0F0" fill-rule="evenodd"/><path d="M1242.74 1053.27 1281.67 1053.27 1281.67 1085.03 1242.74 1085.03Z" fill="#F0F0F0" fill-rule="evenodd"/><path d="M1125.96 1085.03 1164.88 1085.03 1164.88 1116.79 1125.96 1116.79Z" fill="#E1E1E1" fill-rule="evenodd"/><path d="M1164.88 1085.03 1203.81 1085.03 1203.81 1116.79 1164.88 1116.79Z" fill="#E1E1E1" fill-rule="evenodd"/><path d="M1203.81 1085.03 1242.74 1085.03 1242.74 1116.79 1203.81 1116.79Z" fill="#E1E1E1" fill-rule="evenodd"/><path d="M1242.74 1085.03 1281.67 1085.03 1281.67 1116.79 1242.74 1116.79Z" fill="#E1E1E1" fill-rule="evenodd"/><path d="M1164.88 480.943 1164.88 1117.46" stroke="#A5A5A5" stroke-width="1.33333" stroke-linejoin="round" stroke-miterlimit="10" fill="none" fill-rule="evenodd"/><path d="M1203.81 480.943 1203.81 1117.46" stroke="#A5A5A5" stroke-width="1.33333" stroke-linejoin="round" stroke-miterlimit="10" fill="none" fill-rule="evenodd"/><path d="M1242.74 480.943 1242.74 1117.46" stroke="#A5A5A5" stroke-width="1.33333" stroke-linejoin="round" stroke-miterlimit="10" fill="none" fill-rule="evenodd"/><path d="M1125.29 513.368 1282.33 513.368" stroke="#A5A5A5" stroke-width="1.33333" stroke-linejoin="round" stroke-miterlimit="10" fill="none" fill-rule="evenodd"/><path d="M1125.29 545.127 1282.33 545.127" stroke="#A5A5A5" stroke-width="1.33333" stroke-linejoin="round" stroke-miterlimit="10" fill="none" fill-rule="evenodd"/><path d="M1125.29 576.886 1282.33 576.886" stroke="#A5A5A5" stroke-width="1.33333" stroke-linejoin="round" stroke-miterlimit="10" fill="none" fill-rule="evenodd"/><path d="M1125.29 608.646 1282.33 608.646" stroke="#A5A5A5" stroke-width="1.33333" stroke-linejoin="round" stroke-miterlimit="10" fill="none" fill-rule="evenodd"/><path d="M1125.29 640.405 1282.33 640.405" stroke="#A5A5A5" stroke-width="1.33333" stroke-linejoin="round" stroke-miterlimit="10" fill="none" fill-rule="evenodd"/><path d="M1125.29 672.164 1282.33 672.164" stroke="#A5A5A5" stroke-width="1.33333" stroke-linejoin="round" stroke-miterlimit="10" fill="none" fill-rule="evenodd"/><path d="M1125.29 703.923 1282.33 703.923" stroke="#A5A5A5" stroke-width="1.33333" stroke-linejoin="round" stroke-miterlimit="10" fill="none" fill-rule="evenodd"/><path d="M1125.29 735.682 1282.33 735.682" stroke="#A5A5A5" stroke-width="1.33333" stroke-linejoin="round" stroke-miterlimit="10" fill="none" fill-rule="evenodd"/><path d="M1125.29 767.441 1282.33 767.441" stroke="#A5A5A5" stroke-width="1.33333" stroke-linejoin="round" stroke-miterlimit="10" fill="none" fill-rule="evenodd"/><path d="M1125.29 799.2 1282.33 799.2" stroke="#A5A5A5" stroke-width="1.33333" stroke-linejoin="round" stroke-miterlimit="10" fill="none" fill-rule="evenodd"/><path d="M1125.29 830.959 1282.33 830.959" stroke="#A5A5A5" stroke-width="1.33333" stroke-linejoin="round" stroke-miterlimit="10" fill="none" fill-rule="evenodd"/><path d="M1125.29 862.718 1282.33 862.718" stroke="#A5A5A5" stroke-width="1.33333" stroke-linejoin="round" stroke-miterlimit="10" fill="none" fill-rule="evenodd"/><path d="M1125.29 894.477 1282.33 894.477" stroke="#A5A5A5" stroke-width="1.33333" stroke-linejoin="round" stroke-miterlimit="10" fill="none" fill-rule="evenodd"/><path d="M1125.29 926.236 1282.33 926.236" stroke="#A5A5A5" stroke-width="1.33333" stroke-linejoin="round" stroke-miterlimit="10" fill="none" fill-rule="evenodd"/><path d="M1125.29 957.995 1282.33 957.995" stroke="#A5A5A5" stroke-width="1.33333" stroke-linejoin="round" stroke-miterlimit="10" fill="none" fill-rule="evenodd"/><path d="M1125.29 989.754 1282.33 989.754" stroke="#A5A5A5" stroke-width="1.33333" stroke-linejoin="round" stroke-miterlimit="10" fill="none" fill-rule="evenodd"/><path d="M1125.29 1021.51 1282.33 1021.51" stroke="#A5A5A5" stroke-width="1.33333" stroke-linejoin="round" stroke-miterlimit="10" fill="none" fill-rule="evenodd"/><path d="M1125.29 1053.27 1282.33 1053.27" stroke="#A5A5A5" stroke-width="1.33333" stroke-linejoin="round" stroke-miterlimit="10" fill="none" fill-rule="evenodd"/><path d="M1125.29 1085.03 1282.33 1085.03" stroke="#A5A5A5" stroke-width="1.33333" stroke-linejoin="round" stroke-miterlimit="10" fill="none" fill-rule="evenodd"/><path d="M1125.96 480.943 1125.96 1117.46" stroke="#A5A5A5" stroke-width="1.33333" stroke-linejoin="round" stroke-miterlimit="10" fill="none" fill-rule="evenodd"/><path d="M1281.67 480.943 1281.67 1117.46" stroke="#A5A5A5" stroke-width="1.33333" stroke-linejoin="round" stroke-miterlimit="10" fill="none" fill-rule="evenodd"/><path d="M1125.29 481.609 1282.33 481.609" stroke="#A5A5A5" stroke-width="1.33333" stroke-linejoin="round" stroke-miterlimit="10" fill="none" fill-rule="evenodd"/><path d="M1125.29 1116.79 1282.33 1116.79" stroke="#A5A5A5" stroke-width="1.33333" stroke-linejoin="round" stroke-miterlimit="10" fill="none" fill-rule="evenodd"/><rect x="1126" y="862" width="156" height="255" fill="#00B050" fill-opacity="0.74902"/><text font-family="NanumGothic,NanumGothic_MSFontService,sans-serif" font-weight="600" font-size="21" transform="translate(1176.56 984)">alpha<tspan font-weight="400" font-size="21" x="-25.8333" y="26">(value = 3)</tspan></text><rect x="1126" y="608" width="156" height="254" fill="#92D050" fill-opacity="0.74902"/><text font-family="NanumGothic,NanumGothic_MSFontService,sans-serif" font-weight="600" font-size="21" transform="translate(1181.22 717)">beta<tspan font-weight="400" font-size="21" x="-17.7467" y="26">(value = </tspan><tspan fill="#171717" font-weight="400" font-size="21" x="-46.2467" y="52">2147483647</tspan><tspan font-weight="400" font-size="21" x="83.7533" y="52">)</tspan></text><rect x="1213" y="439" width="69" height="42"/><text fill="#FFFFFF" font-family="NanumGothic,NanumGothic_MSFontService,sans-serif" font-weight="400" font-size="19" transform="translate(1224.5 467)">Stack</text><path d="M1125 579.5 1151.25 579.5 1151.25 480 1203.75 480 1203.75 579.5 1230 579.5 1177.5 632Z" fill="#404040" fill-rule="evenodd"/><text fill="#FFFFFF" font-family="NanumGothic,NanumGothic_MSFontService,sans-serif" font-weight="400" font-size="16" transform="translate(1172.53 519)">P<tspan font-size="16" x="-1.2533" y="20">U</tspan><tspan font-size="16" x="0.246704" y="39">S</tspan><tspan font-size="16" x="-1.2533" y="58">H</tspan></text></g></svg>