<svg width="159" height="680" xmlns="http://www.w3.org/2000/svg" xmlns:xlink="http://www.w3.org/1999/xlink" overflow="hidden"><defs><clipPath id="clip0"><rect x="913" y="439" width="159" height="680"/></clipPath></defs><g clip-path="url(#clip0)" transform="translate(-913 -439)"><path d="M913.956 481.609 952.884 481.609 952.884 513.368 913.956 513.368Z" fill="#F0F0F0" fill-rule="evenodd"/><path d="M952.884 481.609 991.811 481.609 991.811 513.368 952.884 513.368Z" fill="#F0F0F0" fill-rule="evenodd"/><path d="M991.811 481.609 1030.74 481.609 1030.74 513.368 991.811 513.368Z" fill="#F0F0F0" fill-rule="evenodd"/><path d="M1030.74 481.609 1069.67 481.609 1069.67 513.368 1030.74 513.368Z" fill="#F0F0F0" fill-rule="evenodd"/><path d="M913.956 513.368 952.884 513.368 952.884 545.128 913.956 545.128Z" fill="#E1E1E1" fill-rule="evenodd"/><path d="M952.884 513.368 991.811 513.368 991.811 545.128 952.884 545.128Z" fill="#E1E1E1" fill-rule="evenodd"/><path d="M991.811 513.368 1030.74 513.368 1030.74 545.128 991.811 545.128Z" fill="#E1E1E1" fill-rule="evenodd"/><path d="M1030.74 513.368 1069.67 513.368 1069.67 545.128 1030.74 545.128Z" fill="#E1E1E1" fill-rule="evenodd"/><path d="M913.956 545.128 952.884 545.128 952.884 576.887 913.956 576.887Z" fill="#F0F0F0" fill-rule="evenodd"/><path d="M952.884 545.128 991.811 545.128 991.811 576.887 952.884 576.887Z" fill="#F0F0F0" fill-rule="evenodd"/><path d="M991.811 545.128 1030.74 545.128 1030.74 576.887 991.811 576.887Z" fill="#F0F0F0" fill-rule="evenodd"/><path d="M1030.74 545.128 1069.67 545.128 1069.67 576.887 1030.74 576.887Z" fill="#F0F0F0" fill-rule="evenodd"/><path d="M913.956 576.887 952.884 576.887 952.884 608.646 913.956 608.646Z" fill="#E1E1E1" fill-rule="evenodd"/><path d="M952.884 576.887 991.811 576.887 991.811 608.646 952.884 608.646Z" fill="#E1E1E1" fill-rule="evenodd"/><path d="M991.811 576.887 1030.74 576.887 1030.74 608.646 991.811 608.646Z" fill="#E1E1E1" fill-rule="evenodd"/><path d="M1030.74 576.887 1069.67 576.887 1069.67 608.646 1030.74 608.646Z" fill="#E1E1E1" fill-rule="evenodd"/><path d="M913.956 608.646 952.884 608.646 952.884 640.405 913.956 640.405Z" fill="#F0F0F0" fill-rule="evenodd"/><path d="M952.884 608.646 991.811 608.646 991.811 640.405 952.884 640.405Z" fill="#F0F0F0" fill-rule="evenodd"/><path d="M991.811 608.646 1030.74 608.646 1030.74 640.405 991.811 640.405Z" fill="#F0F0F0" fill-rule="evenodd"/><path d="M1030.74 608.646 1069.67 608.646 1069.67 640.405 1030.74 640.405Z" fill="#F0F0F0" fill-rule="evenodd"/><path d="M913.956 640.405 952.884 640.405 952.884 672.164 913.956 672.164Z" fill="#E1E1E1" fill-rule="evenodd"/><path d="M952.884 640.405 991.811 640.405 991.811 672.164 952.884 672.164Z" fill="#E1E1E1" fill-rule="evenodd"/><path d="M991.811 640.405 1030.74 640.405 1030.74 672.164 991.811 672.164Z" fill="#E1E1E1" fill-rule="evenodd"/><path d="M1030.74 640.405 1069.67 640.405 1069.67 672.164 1030.74 672.164Z" fill="#E1E1E1" fill-rule="evenodd"/><path d="M913.956 672.164 952.884 672.164 952.884 703.923 913.956 703.923Z" fill="#F0F0F0" fill-rule="evenodd"/><path d="M952.884 672.164 991.811 672.164 991.811 703.923 952.884 703.923Z" fill="#F0F0F0" fill-rule="evenodd"/><path d="M991.811 672.164 1030.74 672.164 1030.74 703.923 991.811 703.923Z" fill="#F0F0F0" fill-rule="evenodd"/><path d="M1030.74 672.164 1069.67 672.164 1069.67 703.923 1030.74 703.923Z" fill="#F0F0F0" fill-rule="evenodd"/><path d="M913.956 703.923 952.884 703.923 952.884 735.682 913.956 735.682Z" fill="#E1E1E1" fill-rule="evenodd"/><path d="M952.884 703.923 991.811 703.923 991.811 735.682 952.884 735.682Z" fill="#E1E1E1" fill-rule="evenodd"/><path d="M991.811 703.923 1030.74 703.923 1030.74 735.682 991.811 735.682Z" fill="#E1E1E1" fill-rule="evenodd"/><path d="M1030.74 703.923 1069.67 703.923 1069.67 735.682 1030.74 735.682Z" fill="#E1E1E1" fill-rule="evenodd"/><path d="M913.956 735.682 952.884 735.682 952.884 767.441 913.956 767.441Z" fill="#F0F0F0" fill-rule="evenodd"/><path d="M952.884 735.682 991.811 735.682 991.811 767.441 952.884 767.441Z" fill="#F0F0F0" fill-rule="evenodd"/><path d="M991.811 735.682 1030.74 735.682 1030.74 767.441 991.811 767.441Z" fill="#F0F0F0" fill-rule="evenodd"/><path d="M1030.74 735.682 1069.67 735.682 1069.67 767.441 1030.74 767.441Z" fill="#F0F0F0" fill-rule="evenodd"/><path d="M913.956 767.441 952.884 767.441 952.884 799.2 913.956 799.2Z" fill="#E1E1E1" fill-rule="evenodd"/><path d="M952.884 767.441 991.811 767.441 991.811 799.2 952.884 799.2Z" fill="#E1E1E1" fill-rule="evenodd"/><path d="M991.811 767.441 1030.74 767.441 1030.74 799.2 991.811 799.2Z" fill="#E1E1E1" fill-rule="evenodd"/><path d="M1030.74 767.441 1069.67 767.441 1069.67 799.2 1030.74 799.2Z" fill="#E1E1E1" fill-rule="evenodd"/><path d="M913.956 799.2 952.884 799.2 952.884 830.959 913.956 830.959Z" fill="#F0F0F0" fill-rule="evenodd"/><path d="M952.884 799.2 991.811 799.2 991.811 830.959 952.884 830.959Z" fill="#F0F0F0" fill-rule="evenodd"/><path d="M991.811 799.2 1030.74 799.2 1030.74 830.959 991.811 830.959Z" fill="#F0F0F0" fill-rule="evenodd"/><path d="M1030.74 799.2 1069.67 799.2 1069.67 830.959 1030.74 830.959Z" fill="#F0F0F0" fill-rule="evenodd"/><path d="M913.956 830.959 952.884 830.959 952.884 862.718 913.956 862.718Z" fill="#E1E1E1" fill-rule="evenodd"/><path d="M952.884 830.959 991.811 830.959 991.811 862.718 952.884 862.718Z" fill="#E1E1E1" fill-rule="evenodd"/><path d="M991.811 830.959 1030.74 830.959 1030.74 862.718 991.811 862.718Z" fill="#E1E1E1" fill-rule="evenodd"/><path d="M1030.74 830.959 1069.67 830.959 1069.67 862.718 1030.74 862.718Z" fill="#E1E1E1" fill-rule="evenodd"/><path d="M913.956 862.718 952.884 862.718 952.884 894.477 913.956 894.477Z" fill="#F0F0F0" fill-rule="evenodd"/><path d="M952.884 862.718 991.811 862.718 991.811 894.477 952.884 894.477Z" fill="#F0F0F0" fill-rule="evenodd"/><path d="M991.811 862.718 1030.74 862.718 1030.74 894.477 991.811 894.477Z" fill="#F0F0F0" fill-rule="evenodd"/><path d="M1030.74 862.718 1069.67 862.718 1069.67 894.477 1030.74 894.477Z" fill="#F0F0F0" fill-rule="evenodd"/><path d="M913.956 894.477 952.884 894.477 952.884 926.236 913.956 926.236Z" fill="#E1E1E1" fill-rule="evenodd"/><path d="M952.884 894.477 991.811 894.477 991.811 926.236 952.884 926.236Z" fill="#E1E1E1" fill-rule="evenodd"/><path d="M991.811 894.477 1030.74 894.477 1030.74 926.236 991.811 926.236Z" fill="#E1E1E1" fill-rule="evenodd"/><path d="M1030.74 894.477 1069.67 894.477 1069.67 926.236 1030.74 926.236Z" fill="#E1E1E1" fill-rule="evenodd"/><path d="M913.956 926.236 952.884 926.236 952.884 957.995 913.956 957.995Z" fill="#F0F0F0" fill-rule="evenodd"/><path d="M952.884 926.236 991.811 926.236 991.811 957.995 952.884 957.995Z" fill="#F0F0F0" fill-rule="evenodd"/><path d="M991.811 926.236 1030.74 926.236 1030.74 957.995 991.811 957.995Z" fill="#F0F0F0" fill-rule="evenodd"/><path d="M1030.74 926.236 1069.67 926.236 1069.67 957.995 1030.74 957.995Z" fill="#F0F0F0" fill-rule="evenodd"/><path d="M913.956 957.995 952.884 957.995 952.884 989.754 913.956 989.754Z" fill="#E1E1E1" fill-rule="evenodd"/><path d="M952.884 957.995 991.811 957.995 991.811 989.754 952.884 989.754Z" fill="#E1E1E1" fill-rule="evenodd"/><path d="M991.811 957.995 1030.74 957.995 1030.74 989.754 991.811 989.754Z" fill="#E1E1E1" fill-rule="evenodd"/><path d="M1030.74 957.995 1069.67 957.995 1069.67 989.754 1030.74 989.754Z" fill="#E1E1E1" fill-rule="evenodd"/><path d="M913.956 989.754 952.884 989.754 952.884 1021.51 913.956 1021.51Z" fill="#F0F0F0" fill-rule="evenodd"/><path d="M952.884 989.754 991.811 989.754 991.811 1021.51 952.884 1021.51Z" fill="#F0F0F0" fill-rule="evenodd"/><path d="M991.811 989.754 1030.74 989.754 1030.74 1021.51 991.811 1021.51Z" fill="#F0F0F0" fill-rule="evenodd"/><path d="M1030.74 989.754 1069.67 989.754 1069.67 1021.51 1030.74 1021.51Z" fill="#F0F0F0" fill-rule="evenodd"/><path d="M913.956 1021.51 952.884 1021.51 952.884 1053.27 913.956 1053.27Z" fill="#E1E1E1" fill-rule="evenodd"/><path d="M952.884 1021.51 991.811 1021.51 991.811 1053.27 952.884 1053.27Z" fill="#E1E1E1" fill-rule="evenodd"/><path d="M991.811 1021.51 1030.74 1021.51 1030.74 1053.27 991.811 1053.27Z" fill="#E1E1E1" fill-rule="evenodd"/><path d="M1030.74 1021.51 1069.67 1021.51 1069.67 1053.27 1030.74 1053.27Z" fill="#E1E1E1" fill-rule="evenodd"/><path d="M913.956 1053.27 952.884 1053.27 952.884 1085.03 913.956 1085.03Z" fill="#F0F0F0" fill-rule="evenodd"/><path d="M952.884 1053.27 991.811 1053.27 991.811 1085.03 952.884 1085.03Z" fill="#F0F0F0" fill-rule="evenodd"/><path d="M991.811 1053.27 1030.74 1053.27 1030.74 1085.03 991.811 1085.03Z" fill="#F0F0F0" fill-rule="evenodd"/><path d="M1030.74 1053.27 1069.67 1053.27 1069.67 1085.03 1030.74 1085.03Z" fill="#F0F0F0" fill-rule="evenodd"/><path d="M913.956 1085.03 952.884 1085.03 952.884 1116.79 913.956 1116.79Z" fill="#E1E1E1" fill-rule="evenodd"/><path d="M952.884 1085.03 991.811 1085.03 991.811 1116.79 952.884 1116.79Z" fill="#E1E1E1" fill-rule="evenodd"/><path d="M991.811 1085.03 1030.74 1085.03 1030.74 1116.79 991.811 1116.79Z" fill="#E1E1E1" fill-rule="evenodd"/><path d="M1030.74 1085.03 1069.67 1085.03 1069.67 1116.79 1030.74 1116.79Z" fill="#E1E1E1" fill-rule="evenodd"/><path d="M952.884 480.943 952.884 1117.46" stroke="#A5A5A5" stroke-width="1.33333" stroke-linejoin="round" stroke-miterlimit="10" fill="none" fill-rule="evenodd"/><path d="M991.811 480.943 991.811 1117.46" stroke="#A5A5A5" stroke-width="1.33333" stroke-linejoin="round" stroke-miterlimit="10" fill="none" fill-rule="evenodd"/><path d="M1030.74 480.943 1030.74 1117.46" stroke="#A5A5A5" stroke-width="1.33333" stroke-linejoin="round" stroke-miterlimit="10" fill="none" fill-rule="evenodd"/><path d="M913.289 513.368 1070.33 513.368" stroke="#A5A5A5" stroke-width="1.33333" stroke-linejoin="round" stroke-miterlimit="10" fill="none" fill-rule="evenodd"/><path d="M913.289 545.128 1070.33 545.128" stroke="#A5A5A5" stroke-width="1.33333" stroke-linejoin="round" stroke-miterlimit="10" fill="none" fill-rule="evenodd"/><path d="M913.289 576.887 1070.33 576.887" stroke="#A5A5A5" stroke-width="1.33333" stroke-linejoin="round" stroke-miterlimit="10" fill="none" fill-rule="evenodd"/><path d="M913.289 608.646 1070.33 608.646" stroke="#A5A5A5" stroke-width="1.33333" stroke-linejoin="round" stroke-miterlimit="10" fill="none" fill-rule="evenodd"/><path d="M913.289 640.405 1070.33 640.405" stroke="#A5A5A5" stroke-width="1.33333" stroke-linejoin="round" stroke-miterlimit="10" fill="none" fill-rule="evenodd"/><path d="M913.289 672.164 1070.33 672.164" stroke="#A5A5A5" stroke-width="1.33333" stroke-linejoin="round" stroke-miterlimit="10" fill="none" fill-rule="evenodd"/><path d="M913.289 703.923 1070.33 703.923" stroke="#A5A5A5" stroke-width="1.33333" stroke-linejoin="round" stroke-miterlimit="10" fill="none" fill-rule="evenodd"/><path d="M913.289 735.682 1070.33 735.682" stroke="#A5A5A5" stroke-width="1.33333" stroke-linejoin="round" stroke-miterlimit="10" fill="none" fill-rule="evenodd"/><path d="M913.289 767.441 1070.33 767.441" stroke="#A5A5A5" stroke-width="1.33333" stroke-linejoin="round" stroke-miterlimit="10" fill="none" fill-rule="evenodd"/><path d="M913.289 799.2 1070.33 799.2" stroke="#A5A5A5" stroke-width="1.33333" stroke-linejoin="round" stroke-miterlimit="10" fill="none" fill-rule="evenodd"/><path d="M913.289 830.959 1070.33 830.959" stroke="#A5A5A5" stroke-width="1.33333" stroke-linejoin="round" stroke-miterlimit="10" fill="none" fill-rule="evenodd"/><path d="M913.289 862.718 1070.33 862.718" stroke="#A5A5A5" stroke-width="1.33333" stroke-linejoin="round" stroke-miterlimit="10" fill="none" fill-rule="evenodd"/><path d="M913.289 894.477 1070.33 894.477" stroke="#A5A5A5" stroke-width="1.33333" stroke-linejoin="round" stroke-miterlimit="10" fill="none" fill-rule="evenodd"/><path d="M913.289 926.236 1070.33 926.236" stroke="#A5A5A5" stroke-width="1.33333" stroke-linejoin="round" stroke-miterlimit="10" fill="none" fill-rule="evenodd"/><path d="M913.289 957.995 1070.33 957.995" stroke="#A5A5A5" stroke-width="1.33333" stroke-linejoin="round" stroke-miterlimit="10" fill="none" fill-rule="evenodd"/><path d="M913.289 989.754 1070.33 989.754" stroke="#A5A5A5" stroke-width="1.33333" stroke-linejoin="round" stroke-miterlimit="10" fill="none" fill-rule="evenodd"/><path d="M913.289 1021.51 1070.33 1021.51" stroke="#A5A5A5" stroke-width="1.33333" stroke-linejoin="round" stroke-miterlimit="10" fill="none" fill-rule="evenodd"/><path d="M913.289 1053.27 1070.33 1053.27" stroke="#A5A5A5" stroke-width="1.33333" stroke-linejoin="round" stroke-miterlimit="10" fill="none" fill-rule="evenodd"/><path d="M913.289 1085.03 1070.33 1085.03" stroke="#A5A5A5" stroke-width="1.33333" stroke-linejoin="round" stroke-miterlimit="10" fill="none" fill-rule="evenodd"/><path d="M913.956 480.943 913.956 1117.46" stroke="#A5A5A5" stroke-width="1.33333" stroke-linejoin="round" stroke-miterlimit="10" fill="none" fill-rule="evenodd"/><path d="M1069.67 480.943 1069.67 1117.46" stroke="#A5A5A5" stroke-width="1.33333" stroke-linejoin="round" stroke-miterlimit="10" fill="none" fill-rule="evenodd"/><path d="M913.289 481.609 1070.33 481.609" stroke="#A5A5A5" stroke-width="1.33333" stroke-linejoin="round" stroke-miterlimit="10" fill="none" fill-rule="evenodd"/><path d="M913.289 1116.79 1070.33 1116.79" stroke="#A5A5A5" stroke-width="1.33333" stroke-linejoin="round" stroke-miterlimit="10" fill="none" fill-rule="evenodd"/><rect x="914" y="862" width="156" height="255" fill="#00B050" fill-opacity="0.74902"/><text font-family="NanumGothic,NanumGothic_MSFontService,sans-serif" font-weight="600" font-size="21" transform="translate(964.561 984)">alpha<tspan font-weight="400" font-size="21" x="-25.8334" y="26">(value = 3)</tspan></text><rect x="913" y="439" width="69" height="42"/><text fill="#FFFFFF" font-family="NanumGothic,NanumGothic_MSFontService,sans-serif" font-weight="400" font-size="19" transform="translate(924.688 467)">Stack</text><path d="M986 843 1007 843 1007 764 1049 764 1049 843 1070 843 1028 885Z" fill="#404040" fill-rule="evenodd"/><text fill="#FFFFFF" font-family="NanumGothic,NanumGothic_MSFontService,sans-serif" font-weight="400" font-size="16" transform="translate(1023.24 791)">P<tspan font-size="16" x="-1.25336" y="20">U</tspan><tspan font-size="16" x="0.246643" y="39">S</tspan><tspan font-size="16" x="-1.25336" y="58">H</tspan></text></g></svg>