<svg width="165" height="680" xmlns="http://www.w3.org/2000/svg" xmlns:xlink="http://www.w3.org/1999/xlink" overflow="hidden"><defs><clipPath id="clip0"><rect x="1249" y="337" width="165" height="680"/></clipPath></defs><g clip-path="url(#clip0)" transform="translate(-1249 -337)"><path d="M1254.03 380.133 1292.95 380.133 1292.95 411.892 1254.03 411.892Z" fill="#F0F0F0" fill-rule="evenodd"/><path d="M1292.95 380.133 1331.88 380.133 1331.88 411.892 1292.95 411.892Z" fill="#F0F0F0" fill-rule="evenodd"/><path d="M1331.88 380.133 1370.81 380.133 1370.81 411.892 1331.88 411.892Z" fill="#F0F0F0" fill-rule="evenodd"/><path d="M1370.81 380.133 1409.74 380.133 1409.74 411.892 1370.81 411.892Z" fill="#F0F0F0" fill-rule="evenodd"/><path d="M1254.03 411.892 1292.95 411.892 1292.95 443.651 1254.03 443.651Z" fill="#E1E1E1" fill-rule="evenodd"/><path d="M1292.95 411.892 1331.88 411.892 1331.88 443.651 1292.95 443.651Z" fill="#E1E1E1" fill-rule="evenodd"/><path d="M1331.88 411.892 1370.81 411.892 1370.81 443.651 1331.88 443.651Z" fill="#E1E1E1" fill-rule="evenodd"/><path d="M1370.81 411.892 1409.74 411.892 1409.74 443.651 1370.81 443.651Z" fill="#E1E1E1" fill-rule="evenodd"/><path d="M1254.03 443.651 1292.95 443.651 1292.95 475.41 1254.03 475.41Z" fill="#F0F0F0" fill-rule="evenodd"/><path d="M1292.95 443.651 1331.88 443.651 1331.88 475.41 1292.95 475.41Z" fill="#F0F0F0" fill-rule="evenodd"/><path d="M1331.88 443.651 1370.81 443.651 1370.81 475.41 1331.88 475.41Z" fill="#F0F0F0" fill-rule="evenodd"/><path d="M1370.81 443.651 1409.74 443.651 1409.74 475.41 1370.81 475.41Z" fill="#F0F0F0" fill-rule="evenodd"/><path d="M1254.03 475.41 1292.95 475.41 1292.95 507.17 1254.03 507.17Z" fill="#E1E1E1" fill-rule="evenodd"/><path d="M1292.95 475.41 1331.88 475.41 1331.88 507.17 1292.95 507.17Z" fill="#E1E1E1" fill-rule="evenodd"/><path d="M1331.88 475.41 1370.81 475.41 1370.81 507.17 1331.88 507.17Z" fill="#E1E1E1" fill-rule="evenodd"/><path d="M1370.81 475.41 1409.74 475.41 1409.74 507.17 1370.81 507.17Z" fill="#E1E1E1" fill-rule="evenodd"/><path d="M1254.03 507.17 1292.95 507.17 1292.95 538.929 1254.03 538.929Z" fill="#F0F0F0" fill-rule="evenodd"/><path d="M1292.95 507.17 1331.88 507.17 1331.88 538.929 1292.95 538.929Z" fill="#F0F0F0" fill-rule="evenodd"/><path d="M1331.88 507.17 1370.81 507.17 1370.81 538.929 1331.88 538.929Z" fill="#F0F0F0" fill-rule="evenodd"/><path d="M1370.81 507.17 1409.74 507.17 1409.74 538.929 1370.81 538.929Z" fill="#F0F0F0" fill-rule="evenodd"/><path d="M1254.03 538.929 1292.95 538.929 1292.95 570.688 1254.03 570.688Z" fill="#E1E1E1" fill-rule="evenodd"/><path d="M1292.95 538.929 1331.88 538.929 1331.88 570.688 1292.95 570.688Z" fill="#E1E1E1" fill-rule="evenodd"/><path d="M1331.88 538.929 1370.81 538.929 1370.81 570.688 1331.88 570.688Z" fill="#E1E1E1" fill-rule="evenodd"/><path d="M1370.81 538.929 1409.74 538.929 1409.74 570.688 1370.81 570.688Z" fill="#E1E1E1" fill-rule="evenodd"/><path d="M1254.03 570.688 1292.95 570.688 1292.95 602.447 1254.03 602.447Z" fill="#F0F0F0" fill-rule="evenodd"/><path d="M1292.95 570.688 1331.88 570.688 1331.88 602.447 1292.95 602.447Z" fill="#F0F0F0" fill-rule="evenodd"/><path d="M1331.88 570.688 1370.81 570.688 1370.81 602.447 1331.88 602.447Z" fill="#F0F0F0" fill-rule="evenodd"/><path d="M1370.81 570.688 1409.74 570.688 1409.74 602.447 1370.81 602.447Z" fill="#F0F0F0" fill-rule="evenodd"/><path d="M1254.03 602.447 1292.95 602.447 1292.95 634.206 1254.03 634.206Z" fill="#E1E1E1" fill-rule="evenodd"/><path d="M1292.95 602.447 1331.88 602.447 1331.88 634.206 1292.95 634.206Z" fill="#E1E1E1" fill-rule="evenodd"/><path d="M1331.88 602.447 1370.81 602.447 1370.81 634.206 1331.88 634.206Z" fill="#E1E1E1" fill-rule="evenodd"/><path d="M1370.81 602.447 1409.74 602.447 1409.74 634.206 1370.81 634.206Z" fill="#E1E1E1" fill-rule="evenodd"/><path d="M1254.03 634.206 1292.95 634.206 1292.95 665.965 1254.03 665.965Z" fill="#F0F0F0" fill-rule="evenodd"/><path d="M1292.95 634.206 1331.88 634.206 1331.88 665.965 1292.95 665.965Z" fill="#F0F0F0" fill-rule="evenodd"/><path d="M1331.88 634.206 1370.81 634.206 1370.81 665.965 1331.88 665.965Z" fill="#F0F0F0" fill-rule="evenodd"/><path d="M1370.81 634.206 1409.74 634.206 1409.74 665.965 1370.81 665.965Z" fill="#F0F0F0" fill-rule="evenodd"/><path d="M1254.03 665.965 1292.95 665.965 1292.95 697.724 1254.03 697.724Z" fill="#E1E1E1" fill-rule="evenodd"/><path d="M1292.95 665.965 1331.88 665.965 1331.88 697.724 1292.95 697.724Z" fill="#E1E1E1" fill-rule="evenodd"/><path d="M1331.88 665.965 1370.81 665.965 1370.81 697.724 1331.88 697.724Z" fill="#E1E1E1" fill-rule="evenodd"/><path d="M1370.81 665.965 1409.74 665.965 1409.74 697.724 1370.81 697.724Z" fill="#E1E1E1" fill-rule="evenodd"/><path d="M1254.03 697.724 1292.95 697.724 1292.95 729.483 1254.03 729.483Z" fill="#F0F0F0" fill-rule="evenodd"/><path d="M1292.95 697.724 1331.88 697.724 1331.88 729.483 1292.95 729.483Z" fill="#F0F0F0" fill-rule="evenodd"/><path d="M1331.88 697.724 1370.81 697.724 1370.81 729.483 1331.88 729.483Z" fill="#F0F0F0" fill-rule="evenodd"/><path d="M1370.81 697.724 1409.74 697.724 1409.74 729.483 1370.81 729.483Z" fill="#F0F0F0" fill-rule="evenodd"/><path d="M1254.03 729.483 1292.95 729.483 1292.95 761.242 1254.03 761.242Z" fill="#E1E1E1" fill-rule="evenodd"/><path d="M1292.95 729.483 1331.88 729.483 1331.88 761.242 1292.95 761.242Z" fill="#E1E1E1" fill-rule="evenodd"/><path d="M1331.88 729.483 1370.81 729.483 1370.81 761.242 1331.88 761.242Z" fill="#E1E1E1" fill-rule="evenodd"/><path d="M1370.81 729.483 1409.74 729.483 1409.74 761.242 1370.81 761.242Z" fill="#E1E1E1" fill-rule="evenodd"/><path d="M1254.03 761.242 1292.95 761.242 1292.95 793.001 1254.03 793.001Z" fill="#F0F0F0" fill-rule="evenodd"/><path d="M1292.95 761.242 1331.88 761.242 1331.88 793.001 1292.95 793.001Z" fill="#F0F0F0" fill-rule="evenodd"/><path d="M1331.88 761.242 1370.81 761.242 1370.81 793.001 1331.88 793.001Z" fill="#F0F0F0" fill-rule="evenodd"/><path d="M1370.81 761.242 1409.74 761.242 1409.74 793.001 1370.81 793.001Z" fill="#F0F0F0" fill-rule="evenodd"/><path d="M1254.03 793.001 1292.95 793.001 1292.95 824.76 1254.03 824.76Z" fill="#E1E1E1" fill-rule="evenodd"/><path d="M1292.95 793.001 1331.88 793.001 1331.88 824.76 1292.95 824.76Z" fill="#E1E1E1" fill-rule="evenodd"/><path d="M1331.88 793.001 1370.81 793.001 1370.81 824.76 1331.88 824.76Z" fill="#E1E1E1" fill-rule="evenodd"/><path d="M1370.81 793.001 1409.74 793.001 1409.74 824.76 1370.81 824.76Z" fill="#E1E1E1" fill-rule="evenodd"/><path d="M1254.03 824.76 1292.95 824.76 1292.95 856.519 1254.03 856.519Z" fill="#F0F0F0" fill-rule="evenodd"/><path d="M1292.95 824.76 1331.88 824.76 1331.88 856.519 1292.95 856.519Z" fill="#F0F0F0" fill-rule="evenodd"/><path d="M1331.88 824.76 1370.81 824.76 1370.81 856.519 1331.88 856.519Z" fill="#F0F0F0" fill-rule="evenodd"/><path d="M1370.81 824.76 1409.74 824.76 1409.74 856.519 1370.81 856.519Z" fill="#F0F0F0" fill-rule="evenodd"/><path d="M1254.03 856.519 1292.95 856.519 1292.95 888.278 1254.03 888.278Z" fill="#E1E1E1" fill-rule="evenodd"/><path d="M1292.95 856.519 1331.88 856.519 1331.88 888.278 1292.95 888.278Z" fill="#E1E1E1" fill-rule="evenodd"/><path d="M1331.88 856.519 1370.81 856.519 1370.81 888.278 1331.88 888.278Z" fill="#E1E1E1" fill-rule="evenodd"/><path d="M1370.81 856.519 1409.74 856.519 1409.74 888.278 1370.81 888.278Z" fill="#E1E1E1" fill-rule="evenodd"/><path d="M1254.03 888.278 1292.95 888.278 1292.95 920.037 1254.03 920.037Z" fill="#F0F0F0" fill-rule="evenodd"/><path d="M1292.95 888.278 1331.88 888.278 1331.88 920.037 1292.95 920.037Z" fill="#F0F0F0" fill-rule="evenodd"/><path d="M1331.88 888.278 1370.81 888.278 1370.81 920.037 1331.88 920.037Z" fill="#F0F0F0" fill-rule="evenodd"/><path d="M1370.81 888.278 1409.74 888.278 1409.74 920.037 1370.81 920.037Z" fill="#F0F0F0" fill-rule="evenodd"/><path d="M1254.03 920.037 1292.95 920.037 1292.95 951.796 1254.03 951.796Z" fill="#E1E1E1" fill-rule="evenodd"/><path d="M1292.95 920.037 1331.88 920.037 1331.88 951.796 1292.95 951.796Z" fill="#E1E1E1" fill-rule="evenodd"/><path d="M1331.88 920.037 1370.81 920.037 1370.81 951.796 1331.88 951.796Z" fill="#E1E1E1" fill-rule="evenodd"/><path d="M1370.81 920.037 1409.74 920.037 1409.74 951.796 1370.81 951.796Z" fill="#E1E1E1" fill-rule="evenodd"/><path d="M1254.03 951.796 1292.95 951.796 1292.95 983.555 1254.03 983.555Z" fill="#F0F0F0" fill-rule="evenodd"/><path d="M1292.95 951.796 1331.88 951.796 1331.88 983.555 1292.95 983.555Z" fill="#F0F0F0" fill-rule="evenodd"/><path d="M1331.88 951.796 1370.81 951.796 1370.81 983.555 1331.88 983.555Z" fill="#F0F0F0" fill-rule="evenodd"/><path d="M1370.81 951.796 1409.74 951.796 1409.74 983.555 1370.81 983.555Z" fill="#F0F0F0" fill-rule="evenodd"/><path d="M1254.03 983.555 1292.95 983.555 1292.95 1015.31 1254.03 1015.31Z" fill="#E1E1E1" fill-rule="evenodd"/><path d="M1292.95 983.555 1331.88 983.555 1331.88 1015.31 1292.95 1015.31Z" fill="#E1E1E1" fill-rule="evenodd"/><path d="M1331.88 983.555 1370.81 983.555 1370.81 1015.31 1331.88 1015.31Z" fill="#E1E1E1" fill-rule="evenodd"/><path d="M1370.81 983.555 1409.74 983.555 1409.74 1015.31 1370.81 1015.31Z" fill="#E1E1E1" fill-rule="evenodd"/><path d="M1292.95 379.467 1292.95 1015.98" stroke="#A5A5A5" stroke-width="1.33333" stroke-linejoin="round" stroke-miterlimit="10" fill="none" fill-rule="evenodd"/><path d="M1331.88 379.467 1331.88 1015.98" stroke="#A5A5A5" stroke-width="1.33333" stroke-linejoin="round" stroke-miterlimit="10" fill="none" fill-rule="evenodd"/><path d="M1370.81 379.467 1370.81 1015.98" stroke="#A5A5A5" stroke-width="1.33333" stroke-linejoin="round" stroke-miterlimit="10" fill="none" fill-rule="evenodd"/><path d="M1253.36 411.892 1410.4 411.892" stroke="#A5A5A5" stroke-width="1.33333" stroke-linejoin="round" stroke-miterlimit="10" fill="none" fill-rule="evenodd"/><path d="M1253.36 443.651 1410.4 443.651" stroke="#A5A5A5" stroke-width="1.33333" stroke-linejoin="round" stroke-miterlimit="10" fill="none" fill-rule="evenodd"/><path d="M1253.36 475.41 1410.4 475.41" stroke="#A5A5A5" stroke-width="1.33333" stroke-linejoin="round" stroke-miterlimit="10" fill="none" fill-rule="evenodd"/><path d="M1253.36 507.17 1410.4 507.17" stroke="#A5A5A5" stroke-width="1.33333" stroke-linejoin="round" stroke-miterlimit="10" fill="none" fill-rule="evenodd"/><path d="M1253.36 538.929 1410.4 538.929" stroke="#A5A5A5" stroke-width="1.33333" stroke-linejoin="round" stroke-miterlimit="10" fill="none" fill-rule="evenodd"/><path d="M1253.36 570.688 1410.4 570.688" stroke="#A5A5A5" stroke-width="1.33333" stroke-linejoin="round" stroke-miterlimit="10" fill="none" fill-rule="evenodd"/><path d="M1253.36 602.447 1410.4 602.447" stroke="#A5A5A5" stroke-width="1.33333" stroke-linejoin="round" stroke-miterlimit="10" fill="none" fill-rule="evenodd"/><path d="M1253.36 634.206 1410.4 634.206" stroke="#A5A5A5" stroke-width="1.33333" stroke-linejoin="round" stroke-miterlimit="10" fill="none" fill-rule="evenodd"/><path d="M1253.36 665.965 1410.4 665.965" stroke="#A5A5A5" stroke-width="1.33333" stroke-linejoin="round" stroke-miterlimit="10" fill="none" fill-rule="evenodd"/><path d="M1253.36 697.724 1410.4 697.724" stroke="#A5A5A5" stroke-width="1.33333" stroke-linejoin="round" stroke-miterlimit="10" fill="none" fill-rule="evenodd"/><path d="M1253.36 729.483 1410.4 729.483" stroke="#A5A5A5" stroke-width="1.33333" stroke-linejoin="round" stroke-miterlimit="10" fill="none" fill-rule="evenodd"/><path d="M1253.36 761.242 1410.4 761.242" stroke="#A5A5A5" stroke-width="1.33333" stroke-linejoin="round" stroke-miterlimit="10" fill="none" fill-rule="evenodd"/><path d="M1253.36 793.001 1410.4 793.001" stroke="#A5A5A5" stroke-width="1.33333" stroke-linejoin="round" stroke-miterlimit="10" fill="none" fill-rule="evenodd"/><path d="M1253.36 824.76 1410.4 824.76" stroke="#A5A5A5" stroke-width="1.33333" stroke-linejoin="round" stroke-miterlimit="10" fill="none" fill-rule="evenodd"/><path d="M1253.36 856.519 1410.4 856.519" stroke="#A5A5A5" stroke-width="1.33333" stroke-linejoin="round" stroke-miterlimit="10" fill="none" fill-rule="evenodd"/><path d="M1253.36 888.278 1410.4 888.278" stroke="#A5A5A5" stroke-width="1.33333" stroke-linejoin="round" stroke-miterlimit="10" fill="none" fill-rule="evenodd"/><path d="M1253.36 920.037 1410.4 920.037" stroke="#A5A5A5" stroke-width="1.33333" stroke-linejoin="round" stroke-miterlimit="10" fill="none" fill-rule="evenodd"/><path d="M1253.36 951.796 1410.4 951.796" stroke="#A5A5A5" stroke-width="1.33333" stroke-linejoin="round" stroke-miterlimit="10" fill="none" fill-rule="evenodd"/><path d="M1253.36 983.555 1410.4 983.555" stroke="#A5A5A5" stroke-width="1.33333" stroke-linejoin="round" stroke-miterlimit="10" fill="none" fill-rule="evenodd"/><path d="M1254.03 379.467 1254.03 1015.98" stroke="#A5A5A5" stroke-width="1.33333" stroke-linejoin="round" stroke-miterlimit="10" fill="none" fill-rule="evenodd"/><path d="M1409.74 379.467 1409.74 1015.98" stroke="#A5A5A5" stroke-width="1.33333" stroke-linejoin="round" stroke-miterlimit="10" fill="none" fill-rule="evenodd"/><path d="M1253.36 380.133 1410.4 380.133" stroke="#A5A5A5" stroke-width="1.33333" stroke-linejoin="round" stroke-miterlimit="10" fill="none" fill-rule="evenodd"/><path d="M1253.36 1015.31 1410.4 1015.31" stroke="#A5A5A5" stroke-width="1.33333" stroke-linejoin="round" stroke-miterlimit="10" fill="none" fill-rule="evenodd"/><rect x="1254" y="761" width="156" height="254" fill="#00B050" fill-opacity="0.74902"/><text font-family="NanumGothic,NanumGothic_MSFontService,sans-serif" font-weight="600" font-size="21" transform="translate(1288.71 882)">int alpha<tspan font-weight="400" font-size="21" x="-9.91333" y="26">(value = 3)</tspan></text><rect x="1253" y="507" width="156" height="254" fill="#92D050" fill-opacity="0.74902"/><text font-family="NanumGothic,NanumGothic_MSFontService,sans-serif" font-weight="600" font-size="21" transform="translate(1292.62 615)">int beta<tspan font-weight="400" font-size="21" x="-1.83337" y="26">(value = </tspan><tspan fill="#171717" font-weight="400" font-size="21" x="-30.3334" y="52">2147483647</tspan><tspan font-weight="400" font-size="21" x="99.6666" y="52">)</tspan></text><rect x="1253" y="338" width="69" height="42"/><text fill="#FFFFFF" font-family="NanumGothic,NanumGothic_MSFontService,sans-serif" font-weight="400" font-size="19" transform="translate(1264.76 366)">Stack</text><path d="M1324 451 1366 409 1408 451 1387 451 1387 531 1345 531 1345 451Z" fill="#404040" fill-rule="evenodd"/><text fill="#FFFFFF" font-family="NanumGothic,NanumGothic_MSFontService,sans-serif" font-weight="400" font-size="16" transform="translate(1361.73 467)">P<tspan font-size="16" x="-1.7467" y="20">O</tspan><tspan font-size="16" x="0" y="39">P</tspan></text></g></svg>