<svg width="165" height="945" xmlns="http://www.w3.org/2000/svg" xmlns:xlink="http://www.w3.org/1999/xlink" overflow="hidden"><defs><clipPath id="clip0"><rect x="1545" y="174" width="165" height="945"/></clipPath></defs><g clip-path="url(#clip0)" transform="translate(-1545 -174)"><path d="M1549.96 481.609 1588.88 481.609 1588.88 513.368 1549.96 513.368Z" fill="#F0F0F0" fill-rule="evenodd"/><path d="M1588.88 481.609 1627.81 481.609 1627.81 513.368 1588.88 513.368Z" fill="#F0F0F0" fill-rule="evenodd"/><path d="M1627.81 481.609 1666.74 481.609 1666.74 513.368 1627.81 513.368Z" fill="#F0F0F0" fill-rule="evenodd"/><path d="M1666.74 481.609 1705.67 481.609 1705.67 513.368 1666.74 513.368Z" fill="#F0F0F0" fill-rule="evenodd"/><path d="M1549.96 513.368 1588.88 513.368 1588.88 545.127 1549.96 545.127Z" fill="#E1E1E1" fill-rule="evenodd"/><path d="M1588.88 513.368 1627.81 513.368 1627.81 545.127 1588.88 545.127Z" fill="#E1E1E1" fill-rule="evenodd"/><path d="M1627.81 513.368 1666.74 513.368 1666.74 545.127 1627.81 545.127Z" fill="#E1E1E1" fill-rule="evenodd"/><path d="M1666.74 513.368 1705.67 513.368 1705.67 545.127 1666.74 545.127Z" fill="#E1E1E1" fill-rule="evenodd"/><path d="M1549.96 545.127 1588.88 545.127 1588.88 576.886 1549.96 576.886Z" fill="#F0F0F0" fill-rule="evenodd"/><path d="M1588.88 545.127 1627.81 545.127 1627.81 576.886 1588.88 576.886Z" fill="#F0F0F0" fill-rule="evenodd"/><path d="M1627.81 545.127 1666.74 545.127 1666.74 576.886 1627.81 576.886Z" fill="#F0F0F0" fill-rule="evenodd"/><path d="M1666.74 545.127 1705.67 545.127 1705.67 576.886 1666.74 576.886Z" fill="#F0F0F0" fill-rule="evenodd"/><path d="M1549.96 576.886 1588.88 576.886 1588.88 608.645 1549.96 608.645Z" fill="#E1E1E1" fill-rule="evenodd"/><path d="M1588.88 576.886 1627.81 576.886 1627.81 608.645 1588.88 608.645Z" fill="#E1E1E1" fill-rule="evenodd"/><path d="M1627.81 576.886 1666.74 576.886 1666.74 608.645 1627.81 608.645Z" fill="#E1E1E1" fill-rule="evenodd"/><path d="M1666.74 576.886 1705.67 576.886 1705.67 608.645 1666.74 608.645Z" fill="#E1E1E1" fill-rule="evenodd"/><path d="M1549.96 608.645 1588.88 608.645 1588.88 640.404 1549.96 640.404Z" fill="#F0F0F0" fill-rule="evenodd"/><path d="M1588.88 608.645 1627.81 608.645 1627.81 640.404 1588.88 640.404Z" fill="#F0F0F0" fill-rule="evenodd"/><path d="M1627.81 608.645 1666.74 608.645 1666.74 640.404 1627.81 640.404Z" fill="#F0F0F0" fill-rule="evenodd"/><path d="M1666.74 608.645 1705.67 608.645 1705.67 640.404 1666.74 640.404Z" fill="#F0F0F0" fill-rule="evenodd"/><path d="M1549.96 640.404 1588.88 640.404 1588.88 672.163 1549.96 672.163Z" fill="#E1E1E1" fill-rule="evenodd"/><path d="M1588.88 640.404 1627.81 640.404 1627.81 672.163 1588.88 672.163Z" fill="#E1E1E1" fill-rule="evenodd"/><path d="M1627.81 640.404 1666.74 640.404 1666.74 672.163 1627.81 672.163Z" fill="#E1E1E1" fill-rule="evenodd"/><path d="M1666.74 640.404 1705.67 640.404 1705.67 672.163 1666.74 672.163Z" fill="#E1E1E1" fill-rule="evenodd"/><path d="M1549.96 672.163 1588.88 672.163 1588.88 703.922 1549.96 703.922Z" fill="#F0F0F0" fill-rule="evenodd"/><path d="M1588.88 672.163 1627.81 672.163 1627.81 703.922 1588.88 703.922Z" fill="#F0F0F0" fill-rule="evenodd"/><path d="M1627.81 672.163 1666.74 672.163 1666.74 703.922 1627.81 703.922Z" fill="#F0F0F0" fill-rule="evenodd"/><path d="M1666.74 672.163 1705.67 672.163 1705.67 703.922 1666.74 703.922Z" fill="#F0F0F0" fill-rule="evenodd"/><path d="M1549.96 703.922 1588.88 703.922 1588.88 735.681 1549.96 735.681Z" fill="#E1E1E1" fill-rule="evenodd"/><path d="M1588.88 703.922 1627.81 703.922 1627.81 735.681 1588.88 735.681Z" fill="#E1E1E1" fill-rule="evenodd"/><path d="M1627.81 703.922 1666.74 703.922 1666.74 735.681 1627.81 735.681Z" fill="#E1E1E1" fill-rule="evenodd"/><path d="M1666.74 703.922 1705.67 703.922 1705.67 735.681 1666.74 735.681Z" fill="#E1E1E1" fill-rule="evenodd"/><path d="M1549.96 735.681 1588.88 735.681 1588.88 767.441 1549.96 767.441Z" fill="#F0F0F0" fill-rule="evenodd"/><path d="M1588.88 735.681 1627.81 735.681 1627.81 767.441 1588.88 767.441Z" fill="#F0F0F0" fill-rule="evenodd"/><path d="M1627.81 735.681 1666.74 735.681 1666.74 767.441 1627.81 767.441Z" fill="#F0F0F0" fill-rule="evenodd"/><path d="M1666.74 735.681 1705.67 735.681 1705.67 767.441 1666.74 767.441Z" fill="#F0F0F0" fill-rule="evenodd"/><path d="M1549.96 767.441 1588.88 767.441 1588.88 799.2 1549.96 799.2Z" fill="#E1E1E1" fill-rule="evenodd"/><path d="M1588.88 767.441 1627.81 767.441 1627.81 799.2 1588.88 799.2Z" fill="#E1E1E1" fill-rule="evenodd"/><path d="M1627.81 767.441 1666.74 767.441 1666.74 799.2 1627.81 799.2Z" fill="#E1E1E1" fill-rule="evenodd"/><path d="M1666.74 767.441 1705.67 767.441 1705.67 799.2 1666.74 799.2Z" fill="#E1E1E1" fill-rule="evenodd"/><path d="M1549.96 799.2 1588.88 799.2 1588.88 830.959 1549.96 830.959Z" fill="#F0F0F0" fill-rule="evenodd"/><path d="M1588.88 799.2 1627.81 799.2 1627.81 830.959 1588.88 830.959Z" fill="#F0F0F0" fill-rule="evenodd"/><path d="M1627.81 799.2 1666.74 799.2 1666.74 830.959 1627.81 830.959Z" fill="#F0F0F0" fill-rule="evenodd"/><path d="M1666.74 799.2 1705.67 799.2 1705.67 830.959 1666.74 830.959Z" fill="#F0F0F0" fill-rule="evenodd"/><path d="M1549.96 830.959 1588.88 830.959 1588.88 862.718 1549.96 862.718Z" fill="#E1E1E1" fill-rule="evenodd"/><path d="M1588.88 830.959 1627.81 830.959 1627.81 862.718 1588.88 862.718Z" fill="#E1E1E1" fill-rule="evenodd"/><path d="M1627.81 830.959 1666.74 830.959 1666.74 862.718 1627.81 862.718Z" fill="#E1E1E1" fill-rule="evenodd"/><path d="M1666.74 830.959 1705.67 830.959 1705.67 862.718 1666.74 862.718Z" fill="#E1E1E1" fill-rule="evenodd"/><path d="M1549.96 862.718 1588.88 862.718 1588.88 894.477 1549.96 894.477Z" fill="#F0F0F0" fill-rule="evenodd"/><path d="M1588.88 862.718 1627.81 862.718 1627.81 894.477 1588.88 894.477Z" fill="#F0F0F0" fill-rule="evenodd"/><path d="M1627.81 862.718 1666.74 862.718 1666.74 894.477 1627.81 894.477Z" fill="#F0F0F0" fill-rule="evenodd"/><path d="M1666.74 862.718 1705.67 862.718 1705.67 894.477 1666.74 894.477Z" fill="#F0F0F0" fill-rule="evenodd"/><path d="M1549.96 894.477 1588.88 894.477 1588.88 926.236 1549.96 926.236Z" fill="#E1E1E1" fill-rule="evenodd"/><path d="M1588.88 894.477 1627.81 894.477 1627.81 926.236 1588.88 926.236Z" fill="#E1E1E1" fill-rule="evenodd"/><path d="M1627.81 894.477 1666.74 894.477 1666.74 926.236 1627.81 926.236Z" fill="#E1E1E1" fill-rule="evenodd"/><path d="M1666.74 894.477 1705.67 894.477 1705.67 926.236 1666.74 926.236Z" fill="#E1E1E1" fill-rule="evenodd"/><path d="M1549.96 926.236 1588.88 926.236 1588.88 957.995 1549.96 957.995Z" fill="#F0F0F0" fill-rule="evenodd"/><path d="M1588.88 926.236 1627.81 926.236 1627.81 957.995 1588.88 957.995Z" fill="#F0F0F0" fill-rule="evenodd"/><path d="M1627.81 926.236 1666.74 926.236 1666.74 957.995 1627.81 957.995Z" fill="#F0F0F0" fill-rule="evenodd"/><path d="M1666.74 926.236 1705.67 926.236 1705.67 957.995 1666.74 957.995Z" fill="#F0F0F0" fill-rule="evenodd"/><path d="M1549.96 957.995 1588.88 957.995 1588.88 989.754 1549.96 989.754Z" fill="#E1E1E1" fill-rule="evenodd"/><path d="M1588.88 957.995 1627.81 957.995 1627.81 989.754 1588.88 989.754Z" fill="#E1E1E1" fill-rule="evenodd"/><path d="M1627.81 957.995 1666.74 957.995 1666.74 989.754 1627.81 989.754Z" fill="#E1E1E1" fill-rule="evenodd"/><path d="M1666.74 957.995 1705.67 957.995 1705.67 989.754 1666.74 989.754Z" fill="#E1E1E1" fill-rule="evenodd"/><path d="M1549.96 989.754 1588.88 989.754 1588.88 1021.51 1549.96 1021.51Z" fill="#F0F0F0" fill-rule="evenodd"/><path d="M1588.88 989.754 1627.81 989.754 1627.81 1021.51 1588.88 1021.51Z" fill="#F0F0F0" fill-rule="evenodd"/><path d="M1627.81 989.754 1666.74 989.754 1666.74 1021.51 1627.81 1021.51Z" fill="#F0F0F0" fill-rule="evenodd"/><path d="M1666.74 989.754 1705.67 989.754 1705.67 1021.51 1666.74 1021.51Z" fill="#F0F0F0" fill-rule="evenodd"/><path d="M1549.96 1021.51 1588.88 1021.51 1588.88 1053.27 1549.96 1053.27Z" fill="#E1E1E1" fill-rule="evenodd"/><path d="M1588.88 1021.51 1627.81 1021.51 1627.81 1053.27 1588.88 1053.27Z" fill="#E1E1E1" fill-rule="evenodd"/><path d="M1627.81 1021.51 1666.74 1021.51 1666.74 1053.27 1627.81 1053.27Z" fill="#E1E1E1" fill-rule="evenodd"/><path d="M1666.74 1021.51 1705.67 1021.51 1705.67 1053.27 1666.74 1053.27Z" fill="#E1E1E1" fill-rule="evenodd"/><path d="M1549.96 1053.27 1588.88 1053.27 1588.88 1085.03 1549.96 1085.03Z" fill="#F0F0F0" fill-rule="evenodd"/><path d="M1588.88 1053.27 1627.81 1053.27 1627.81 1085.03 1588.88 1085.03Z" fill="#F0F0F0" fill-rule="evenodd"/><path d="M1627.81 1053.27 1666.74 1053.27 1666.74 1085.03 1627.81 1085.03Z" fill="#F0F0F0" fill-rule="evenodd"/><path d="M1666.74 1053.27 1705.67 1053.27 1705.67 1085.03 1666.74 1085.03Z" fill="#F0F0F0" fill-rule="evenodd"/><path d="M1549.96 1085.03 1588.88 1085.03 1588.88 1116.79 1549.96 1116.79Z" fill="#E1E1E1" fill-rule="evenodd"/><path d="M1588.88 1085.03 1627.81 1085.03 1627.81 1116.79 1588.88 1116.79Z" fill="#E1E1E1" fill-rule="evenodd"/><path d="M1627.81 1085.03 1666.74 1085.03 1666.74 1116.79 1627.81 1116.79Z" fill="#E1E1E1" fill-rule="evenodd"/><path d="M1666.74 1085.03 1705.67 1085.03 1705.67 1116.79 1666.74 1116.79Z" fill="#E1E1E1" fill-rule="evenodd"/><path d="M1588.88 480.942 1588.88 1117.46" stroke="#A5A5A5" stroke-width="1.33333" stroke-linejoin="round" stroke-miterlimit="10" fill="none" fill-rule="evenodd"/><path d="M1627.81 480.942 1627.81 1117.46" stroke="#A5A5A5" stroke-width="1.33333" stroke-linejoin="round" stroke-miterlimit="10" fill="none" fill-rule="evenodd"/><path d="M1666.74 480.942 1666.74 1117.46" stroke="#A5A5A5" stroke-width="1.33333" stroke-linejoin="round" stroke-miterlimit="10" fill="none" fill-rule="evenodd"/><path d="M1549.29 513.368 1706.33 513.368" stroke="#A5A5A5" stroke-width="1.33333" stroke-linejoin="round" stroke-miterlimit="10" fill="none" fill-rule="evenodd"/><path d="M1549.29 545.127 1706.33 545.127" stroke="#A5A5A5" stroke-width="1.33333" stroke-linejoin="round" stroke-miterlimit="10" fill="none" fill-rule="evenodd"/><path d="M1549.29 576.886 1706.33 576.886" stroke="#A5A5A5" stroke-width="1.33333" stroke-linejoin="round" stroke-miterlimit="10" fill="none" fill-rule="evenodd"/><path d="M1549.29 608.645 1706.33 608.645" stroke="#A5A5A5" stroke-width="1.33333" stroke-linejoin="round" stroke-miterlimit="10" fill="none" fill-rule="evenodd"/><path d="M1549.29 640.404 1706.33 640.404" stroke="#A5A5A5" stroke-width="1.33333" stroke-linejoin="round" stroke-miterlimit="10" fill="none" fill-rule="evenodd"/><path d="M1549.29 672.163 1706.33 672.163" stroke="#A5A5A5" stroke-width="1.33333" stroke-linejoin="round" stroke-miterlimit="10" fill="none" fill-rule="evenodd"/><path d="M1549.29 703.922 1706.33 703.922" stroke="#A5A5A5" stroke-width="1.33333" stroke-linejoin="round" stroke-miterlimit="10" fill="none" fill-rule="evenodd"/><path d="M1549.29 735.681 1706.33 735.681" stroke="#A5A5A5" stroke-width="1.33333" stroke-linejoin="round" stroke-miterlimit="10" fill="none" fill-rule="evenodd"/><path d="M1549.29 767.441 1706.33 767.441" stroke="#A5A5A5" stroke-width="1.33333" stroke-linejoin="round" stroke-miterlimit="10" fill="none" fill-rule="evenodd"/><path d="M1549.29 799.2 1706.33 799.2" stroke="#A5A5A5" stroke-width="1.33333" stroke-linejoin="round" stroke-miterlimit="10" fill="none" fill-rule="evenodd"/><path d="M1549.29 830.959 1706.33 830.959" stroke="#A5A5A5" stroke-width="1.33333" stroke-linejoin="round" stroke-miterlimit="10" fill="none" fill-rule="evenodd"/><path d="M1549.29 862.718 1706.33 862.718" stroke="#A5A5A5" stroke-width="1.33333" stroke-linejoin="round" stroke-miterlimit="10" fill="none" fill-rule="evenodd"/><path d="M1549.29 894.477 1706.33 894.477" stroke="#A5A5A5" stroke-width="1.33333" stroke-linejoin="round" stroke-miterlimit="10" fill="none" fill-rule="evenodd"/><path d="M1549.29 926.236 1706.33 926.236" stroke="#A5A5A5" stroke-width="1.33333" stroke-linejoin="round" stroke-miterlimit="10" fill="none" fill-rule="evenodd"/><path d="M1549.29 957.995 1706.33 957.995" stroke="#A5A5A5" stroke-width="1.33333" stroke-linejoin="round" stroke-miterlimit="10" fill="none" fill-rule="evenodd"/><path d="M1549.29 989.754 1706.33 989.754" stroke="#A5A5A5" stroke-width="1.33333" stroke-linejoin="round" stroke-miterlimit="10" fill="none" fill-rule="evenodd"/><path d="M1549.29 1021.51 1706.33 1021.51" stroke="#A5A5A5" stroke-width="1.33333" stroke-linejoin="round" stroke-miterlimit="10" fill="none" fill-rule="evenodd"/><path d="M1549.29 1053.27 1706.33 1053.27" stroke="#A5A5A5" stroke-width="1.33333" stroke-linejoin="round" stroke-miterlimit="10" fill="none" fill-rule="evenodd"/><path d="M1549.29 1085.03 1706.33 1085.03" stroke="#A5A5A5" stroke-width="1.33333" stroke-linejoin="round" stroke-miterlimit="10" fill="none" fill-rule="evenodd"/><path d="M1549.96 480.942 1549.96 1117.46" stroke="#A5A5A5" stroke-width="1.33333" stroke-linejoin="round" stroke-miterlimit="10" fill="none" fill-rule="evenodd"/><path d="M1705.67 480.942 1705.67 1117.46" stroke="#A5A5A5" stroke-width="1.33333" stroke-linejoin="round" stroke-miterlimit="10" fill="none" fill-rule="evenodd"/><path d="M1549.29 481.609 1706.33 481.609" stroke="#A5A5A5" stroke-width="1.33333" stroke-linejoin="round" stroke-miterlimit="10" fill="none" fill-rule="evenodd"/><path d="M1549.29 1116.79 1706.33 1116.79" stroke="#A5A5A5" stroke-width="1.33333" stroke-linejoin="round" stroke-miterlimit="10" fill="none" fill-rule="evenodd"/><rect x="1550" y="862" width="156" height="255" fill="#00B050" fill-opacity="0.74902"/><text font-family="NanumGothic,NanumGothic_MSFontService,sans-serif" font-weight="600" font-size="21" transform="translate(1600.56 984)">alpha<tspan font-weight="400" font-size="21" x="-25.8333" y="26">(value = 3)</tspan></text><rect x="1550" y="608" width="156" height="254" fill="#92D050" fill-opacity="0.74902"/><text font-family="NanumGothic,NanumGothic_MSFontService,sans-serif" font-weight="600" font-size="21" transform="translate(1605.22 717)">beta<tspan font-weight="400" font-size="21" x="-17.7467" y="26">(value = </tspan><tspan fill="#171717" font-weight="400" font-size="21" x="-46.2467" y="52">2147483647</tspan><tspan font-weight="400" font-size="21" x="83.7533" y="52">)</tspan></text><rect x="1637" y="439" width="69" height="42"/><text fill="#FFFFFF" font-family="NanumGothic,NanumGothic_MSFontService,sans-serif" font-weight="400" font-size="19" transform="translate(1648.5 467)">Stack</text><rect x="1550" y="175" width="156" height="254" fill="#FFC000" fill-opacity="0.74902"/><text font-family="NanumGothic,NanumGothic_MSFontService,sans-serif" font-weight="600" font-size="21" transform="translate(1590.31 296)">gamma<tspan font-weight="400" font-size="21" x="-22.08" y="26">(value = </tspan><tspan fill="#171717" font-weight="400" font-size="21" x="63.42" y="26">22</tspan><tspan font-weight="400" font-size="21" x="89.42" y="26">)</tspan></text><path d="M1633.25 367.117 1657.13 344 1655.23 374.757 1680.22 360.888 1668.54 378.777 1706 379.378 1672.88 394.057 1682.1 404.109 1668.54 409.539 1686.46 427.226 1656.06 420.4 1658.22 436.479 1638.4 428.839 1634.33 444.316 1621.84 436.479 1613.43 448.948 1605.01 440.499 1586.28 459 1585.48 441.111 1560.22 438.902 1574.9 425.831 1551 412.558 1579.24 405.717 1559.41 388.03 1589.55 385.618 1583.31 363.3 1612.35 377.978 1620.76 354.047Z" fill="#FF0000" fill-rule="evenodd"/><text font-family="NanumGothic,NanumGothic_MSFontService,sans-serif" font-weight="600" font-size="16" transform="translate(1590.74 410)">Overflow</text></g></svg>