<svg width="159" height="680" xmlns="http://www.w3.org/2000/svg" xmlns:xlink="http://www.w3.org/1999/xlink" overflow="hidden"><defs><clipPath id="clip0"><rect x="701" y="439" width="159" height="680"/></clipPath></defs><g clip-path="url(#clip0)" transform="translate(-701 -439)"><path d="M701.956 481.609 740.884 481.609 740.884 513.368 701.956 513.368Z" fill="#F0F0F0" fill-rule="evenodd"/><path d="M740.884 481.609 779.811 481.609 779.811 513.368 740.884 513.368Z" fill="#F0F0F0" fill-rule="evenodd"/><path d="M779.811 481.609 818.739 481.609 818.739 513.368 779.811 513.368Z" fill="#F0F0F0" fill-rule="evenodd"/><path d="M818.739 481.609 857.667 481.609 857.667 513.368 818.739 513.368Z" fill="#F0F0F0" fill-rule="evenodd"/><path d="M701.956 513.368 740.884 513.368 740.884 545.128 701.956 545.128Z" fill="#E1E1E1" fill-rule="evenodd"/><path d="M740.884 513.368 779.811 513.368 779.811 545.128 740.884 545.128Z" fill="#E1E1E1" fill-rule="evenodd"/><path d="M779.811 513.368 818.739 513.368 818.739 545.128 779.811 545.128Z" fill="#E1E1E1" fill-rule="evenodd"/><path d="M818.739 513.368 857.667 513.368 857.667 545.128 818.739 545.128Z" fill="#E1E1E1" fill-rule="evenodd"/><path d="M701.956 545.128 740.884 545.128 740.884 576.887 701.956 576.887Z" fill="#F0F0F0" fill-rule="evenodd"/><path d="M740.884 545.128 779.811 545.128 779.811 576.887 740.884 576.887Z" fill="#F0F0F0" fill-rule="evenodd"/><path d="M779.811 545.128 818.739 545.128 818.739 576.887 779.811 576.887Z" fill="#F0F0F0" fill-rule="evenodd"/><path d="M818.739 545.128 857.667 545.128 857.667 576.887 818.739 576.887Z" fill="#F0F0F0" fill-rule="evenodd"/><path d="M701.956 576.887 740.884 576.887 740.884 608.646 701.956 608.646Z" fill="#E1E1E1" fill-rule="evenodd"/><path d="M740.884 576.887 779.811 576.887 779.811 608.646 740.884 608.646Z" fill="#E1E1E1" fill-rule="evenodd"/><path d="M779.811 576.887 818.739 576.887 818.739 608.646 779.811 608.646Z" fill="#E1E1E1" fill-rule="evenodd"/><path d="M818.739 576.887 857.667 576.887 857.667 608.646 818.739 608.646Z" fill="#E1E1E1" fill-rule="evenodd"/><path d="M701.956 608.646 740.884 608.646 740.884 640.405 701.956 640.405Z" fill="#F0F0F0" fill-rule="evenodd"/><path d="M740.884 608.646 779.811 608.646 779.811 640.405 740.884 640.405Z" fill="#F0F0F0" fill-rule="evenodd"/><path d="M779.811 608.646 818.739 608.646 818.739 640.405 779.811 640.405Z" fill="#F0F0F0" fill-rule="evenodd"/><path d="M818.739 608.646 857.667 608.646 857.667 640.405 818.739 640.405Z" fill="#F0F0F0" fill-rule="evenodd"/><path d="M701.956 640.405 740.884 640.405 740.884 672.164 701.956 672.164Z" fill="#E1E1E1" fill-rule="evenodd"/><path d="M740.884 640.405 779.811 640.405 779.811 672.164 740.884 672.164Z" fill="#E1E1E1" fill-rule="evenodd"/><path d="M779.811 640.405 818.739 640.405 818.739 672.164 779.811 672.164Z" fill="#E1E1E1" fill-rule="evenodd"/><path d="M818.739 640.405 857.667 640.405 857.667 672.164 818.739 672.164Z" fill="#E1E1E1" fill-rule="evenodd"/><path d="M701.956 672.164 740.884 672.164 740.884 703.923 701.956 703.923Z" fill="#F0F0F0" fill-rule="evenodd"/><path d="M740.884 672.164 779.811 672.164 779.811 703.923 740.884 703.923Z" fill="#F0F0F0" fill-rule="evenodd"/><path d="M779.811 672.164 818.739 672.164 818.739 703.923 779.811 703.923Z" fill="#F0F0F0" fill-rule="evenodd"/><path d="M818.739 672.164 857.667 672.164 857.667 703.923 818.739 703.923Z" fill="#F0F0F0" fill-rule="evenodd"/><path d="M701.956 703.923 740.884 703.923 740.884 735.682 701.956 735.682Z" fill="#E1E1E1" fill-rule="evenodd"/><path d="M740.884 703.923 779.811 703.923 779.811 735.682 740.884 735.682Z" fill="#E1E1E1" fill-rule="evenodd"/><path d="M779.811 703.923 818.739 703.923 818.739 735.682 779.811 735.682Z" fill="#E1E1E1" fill-rule="evenodd"/><path d="M818.739 703.923 857.667 703.923 857.667 735.682 818.739 735.682Z" fill="#E1E1E1" fill-rule="evenodd"/><path d="M701.956 735.682 740.884 735.682 740.884 767.441 701.956 767.441Z" fill="#F0F0F0" fill-rule="evenodd"/><path d="M740.884 735.682 779.811 735.682 779.811 767.441 740.884 767.441Z" fill="#F0F0F0" fill-rule="evenodd"/><path d="M779.811 735.682 818.739 735.682 818.739 767.441 779.811 767.441Z" fill="#F0F0F0" fill-rule="evenodd"/><path d="M818.739 735.682 857.667 735.682 857.667 767.441 818.739 767.441Z" fill="#F0F0F0" fill-rule="evenodd"/><path d="M701.956 767.441 740.884 767.441 740.884 799.2 701.956 799.2Z" fill="#E1E1E1" fill-rule="evenodd"/><path d="M740.884 767.441 779.811 767.441 779.811 799.2 740.884 799.2Z" fill="#E1E1E1" fill-rule="evenodd"/><path d="M779.811 767.441 818.739 767.441 818.739 799.2 779.811 799.2Z" fill="#E1E1E1" fill-rule="evenodd"/><path d="M818.739 767.441 857.667 767.441 857.667 799.2 818.739 799.2Z" fill="#E1E1E1" fill-rule="evenodd"/><path d="M701.956 799.2 740.884 799.2 740.884 830.959 701.956 830.959Z" fill="#F0F0F0" fill-rule="evenodd"/><path d="M740.884 799.2 779.811 799.2 779.811 830.959 740.884 830.959Z" fill="#F0F0F0" fill-rule="evenodd"/><path d="M779.811 799.2 818.739 799.2 818.739 830.959 779.811 830.959Z" fill="#F0F0F0" fill-rule="evenodd"/><path d="M818.739 799.2 857.667 799.2 857.667 830.959 818.739 830.959Z" fill="#F0F0F0" fill-rule="evenodd"/><path d="M701.956 830.959 740.884 830.959 740.884 862.718 701.956 862.718Z" fill="#E1E1E1" fill-rule="evenodd"/><path d="M740.884 830.959 779.811 830.959 779.811 862.718 740.884 862.718Z" fill="#E1E1E1" fill-rule="evenodd"/><path d="M779.811 830.959 818.739 830.959 818.739 862.718 779.811 862.718Z" fill="#E1E1E1" fill-rule="evenodd"/><path d="M818.739 830.959 857.667 830.959 857.667 862.718 818.739 862.718Z" fill="#E1E1E1" fill-rule="evenodd"/><path d="M701.956 862.718 740.884 862.718 740.884 894.477 701.956 894.477Z" fill="#F0F0F0" fill-rule="evenodd"/><path d="M740.884 862.718 779.811 862.718 779.811 894.477 740.884 894.477Z" fill="#F0F0F0" fill-rule="evenodd"/><path d="M779.811 862.718 818.739 862.718 818.739 894.477 779.811 894.477Z" fill="#F0F0F0" fill-rule="evenodd"/><path d="M818.739 862.718 857.667 862.718 857.667 894.477 818.739 894.477Z" fill="#F0F0F0" fill-rule="evenodd"/><path d="M701.956 894.477 740.884 894.477 740.884 926.236 701.956 926.236Z" fill="#E1E1E1" fill-rule="evenodd"/><path d="M740.884 894.477 779.811 894.477 779.811 926.236 740.884 926.236Z" fill="#E1E1E1" fill-rule="evenodd"/><path d="M779.811 894.477 818.739 894.477 818.739 926.236 779.811 926.236Z" fill="#E1E1E1" fill-rule="evenodd"/><path d="M818.739 894.477 857.667 894.477 857.667 926.236 818.739 926.236Z" fill="#E1E1E1" fill-rule="evenodd"/><path d="M701.956 926.236 740.884 926.236 740.884 957.995 701.956 957.995Z" fill="#F0F0F0" fill-rule="evenodd"/><path d="M740.884 926.236 779.811 926.236 779.811 957.995 740.884 957.995Z" fill="#F0F0F0" fill-rule="evenodd"/><path d="M779.811 926.236 818.739 926.236 818.739 957.995 779.811 957.995Z" fill="#F0F0F0" fill-rule="evenodd"/><path d="M818.739 926.236 857.667 926.236 857.667 957.995 818.739 957.995Z" fill="#F0F0F0" fill-rule="evenodd"/><path d="M701.956 957.995 740.884 957.995 740.884 989.754 701.956 989.754Z" fill="#E1E1E1" fill-rule="evenodd"/><path d="M740.884 957.995 779.811 957.995 779.811 989.754 740.884 989.754Z" fill="#E1E1E1" fill-rule="evenodd"/><path d="M779.811 957.995 818.739 957.995 818.739 989.754 779.811 989.754Z" fill="#E1E1E1" fill-rule="evenodd"/><path d="M818.739 957.995 857.667 957.995 857.667 989.754 818.739 989.754Z" fill="#E1E1E1" fill-rule="evenodd"/><path d="M701.956 989.754 740.884 989.754 740.884 1021.51 701.956 1021.51Z" fill="#F0F0F0" fill-rule="evenodd"/><path d="M740.884 989.754 779.811 989.754 779.811 1021.51 740.884 1021.51Z" fill="#F0F0F0" fill-rule="evenodd"/><path d="M779.811 989.754 818.739 989.754 818.739 1021.51 779.811 1021.51Z" fill="#F0F0F0" fill-rule="evenodd"/><path d="M818.739 989.754 857.667 989.754 857.667 1021.51 818.739 1021.51Z" fill="#F0F0F0" fill-rule="evenodd"/><path d="M701.956 1021.51 740.884 1021.51 740.884 1053.27 701.956 1053.27Z" fill="#E1E1E1" fill-rule="evenodd"/><path d="M740.884 1021.51 779.811 1021.51 779.811 1053.27 740.884 1053.27Z" fill="#E1E1E1" fill-rule="evenodd"/><path d="M779.811 1021.51 818.739 1021.51 818.739 1053.27 779.811 1053.27Z" fill="#E1E1E1" fill-rule="evenodd"/><path d="M818.739 1021.51 857.667 1021.51 857.667 1053.27 818.739 1053.27Z" fill="#E1E1E1" fill-rule="evenodd"/><path d="M701.956 1053.27 740.884 1053.27 740.884 1085.03 701.956 1085.03Z" fill="#F0F0F0" fill-rule="evenodd"/><path d="M740.884 1053.27 779.811 1053.27 779.811 1085.03 740.884 1085.03Z" fill="#F0F0F0" fill-rule="evenodd"/><path d="M779.811 1053.27 818.739 1053.27 818.739 1085.03 779.811 1085.03Z" fill="#F0F0F0" fill-rule="evenodd"/><path d="M818.739 1053.27 857.667 1053.27 857.667 1085.03 818.739 1085.03Z" fill="#F0F0F0" fill-rule="evenodd"/><path d="M701.956 1085.03 740.884 1085.03 740.884 1116.79 701.956 1116.79Z" fill="#E1E1E1" fill-rule="evenodd"/><path d="M740.884 1085.03 779.811 1085.03 779.811 1116.79 740.884 1116.79Z" fill="#E1E1E1" fill-rule="evenodd"/><path d="M779.811 1085.03 818.739 1085.03 818.739 1116.79 779.811 1116.79Z" fill="#E1E1E1" fill-rule="evenodd"/><path d="M818.739 1085.03 857.667 1085.03 857.667 1116.79 818.739 1116.79Z" fill="#E1E1E1" fill-rule="evenodd"/><path d="M740.884 480.943 740.884 1117.46" stroke="#A5A5A5" stroke-width="1.33333" stroke-linejoin="round" stroke-miterlimit="10" fill="none" fill-rule="evenodd"/><path d="M779.811 480.943 779.811 1117.46" stroke="#A5A5A5" stroke-width="1.33333" stroke-linejoin="round" stroke-miterlimit="10" fill="none" fill-rule="evenodd"/><path d="M818.739 480.943 818.739 1117.46" stroke="#A5A5A5" stroke-width="1.33333" stroke-linejoin="round" stroke-miterlimit="10" fill="none" fill-rule="evenodd"/><path d="M701.289 513.368 858.334 513.368" stroke="#A5A5A5" stroke-width="1.33333" stroke-linejoin="round" stroke-miterlimit="10" fill="none" fill-rule="evenodd"/><path d="M701.289 545.128 858.334 545.128" stroke="#A5A5A5" stroke-width="1.33333" stroke-linejoin="round" stroke-miterlimit="10" fill="none" fill-rule="evenodd"/><path d="M701.289 576.887 858.334 576.887" stroke="#A5A5A5" stroke-width="1.33333" stroke-linejoin="round" stroke-miterlimit="10" fill="none" fill-rule="evenodd"/><path d="M701.289 608.646 858.334 608.646" stroke="#A5A5A5" stroke-width="1.33333" stroke-linejoin="round" stroke-miterlimit="10" fill="none" fill-rule="evenodd"/><path d="M701.289 640.405 858.334 640.405" stroke="#A5A5A5" stroke-width="1.33333" stroke-linejoin="round" stroke-miterlimit="10" fill="none" fill-rule="evenodd"/><path d="M701.289 672.164 858.334 672.164" stroke="#A5A5A5" stroke-width="1.33333" stroke-linejoin="round" stroke-miterlimit="10" fill="none" fill-rule="evenodd"/><path d="M701.289 703.923 858.334 703.923" stroke="#A5A5A5" stroke-width="1.33333" stroke-linejoin="round" stroke-miterlimit="10" fill="none" fill-rule="evenodd"/><path d="M701.289 735.682 858.334 735.682" stroke="#A5A5A5" stroke-width="1.33333" stroke-linejoin="round" stroke-miterlimit="10" fill="none" fill-rule="evenodd"/><path d="M701.289 767.441 858.334 767.441" stroke="#A5A5A5" stroke-width="1.33333" stroke-linejoin="round" stroke-miterlimit="10" fill="none" fill-rule="evenodd"/><path d="M701.289 799.2 858.334 799.2" stroke="#A5A5A5" stroke-width="1.33333" stroke-linejoin="round" stroke-miterlimit="10" fill="none" fill-rule="evenodd"/><path d="M701.289 830.959 858.334 830.959" stroke="#A5A5A5" stroke-width="1.33333" stroke-linejoin="round" stroke-miterlimit="10" fill="none" fill-rule="evenodd"/><path d="M701.289 862.718 858.334 862.718" stroke="#A5A5A5" stroke-width="1.33333" stroke-linejoin="round" stroke-miterlimit="10" fill="none" fill-rule="evenodd"/><path d="M701.289 894.477 858.334 894.477" stroke="#A5A5A5" stroke-width="1.33333" stroke-linejoin="round" stroke-miterlimit="10" fill="none" fill-rule="evenodd"/><path d="M701.289 926.236 858.334 926.236" stroke="#A5A5A5" stroke-width="1.33333" stroke-linejoin="round" stroke-miterlimit="10" fill="none" fill-rule="evenodd"/><path d="M701.289 957.995 858.334 957.995" stroke="#A5A5A5" stroke-width="1.33333" stroke-linejoin="round" stroke-miterlimit="10" fill="none" fill-rule="evenodd"/><path d="M701.289 989.754 858.334 989.754" stroke="#A5A5A5" stroke-width="1.33333" stroke-linejoin="round" stroke-miterlimit="10" fill="none" fill-rule="evenodd"/><path d="M701.289 1021.51 858.334 1021.51" stroke="#A5A5A5" stroke-width="1.33333" stroke-linejoin="round" stroke-miterlimit="10" fill="none" fill-rule="evenodd"/><path d="M701.289 1053.27 858.334 1053.27" stroke="#A5A5A5" stroke-width="1.33333" stroke-linejoin="round" stroke-miterlimit="10" fill="none" fill-rule="evenodd"/><path d="M701.289 1085.03 858.334 1085.03" stroke="#A5A5A5" stroke-width="1.33333" stroke-linejoin="round" stroke-miterlimit="10" fill="none" fill-rule="evenodd"/><path d="M701.956 480.943 701.956 1117.46" stroke="#A5A5A5" stroke-width="1.33333" stroke-linejoin="round" stroke-miterlimit="10" fill="none" fill-rule="evenodd"/><path d="M857.667 480.943 857.667 1117.46" stroke="#A5A5A5" stroke-width="1.33333" stroke-linejoin="round" stroke-miterlimit="10" fill="none" fill-rule="evenodd"/><path d="M701.289 481.609 858.334 481.609" stroke="#A5A5A5" stroke-width="1.33333" stroke-linejoin="round" stroke-miterlimit="10" fill="none" fill-rule="evenodd"/><path d="M701.289 1116.79 858.334 1116.79" stroke="#A5A5A5" stroke-width="1.33333" stroke-linejoin="round" stroke-miterlimit="10" fill="none" fill-rule="evenodd"/><rect x="701" y="439" width="69" height="42"/><text fill="#FFFFFF" font-family="NanumGothic,NanumGothic_MSFontService,sans-serif" font-weight="400" font-size="19" transform="translate(712.688 467)">Stack</text></g></svg>