<svg width="413" height="445" xmlns="http://www.w3.org/2000/svg" xmlns:xlink="http://www.w3.org/1999/xlink" overflow="hidden"><defs><clipPath id="clip0"><rect x="226" y="156" width="413" height="445"/></clipPath></defs><g clip-path="url(#clip0)" transform="translate(-226 -156)"><rect x="227.5" y="257.5" width="411" height="243" stroke="#000000" stroke-width="1.33333" stroke-miterlimit="8" fill="#F2F2F2"/><rect x="439.5" y="215.5" width="199" height="42" stroke="#000000" stroke-width="1.33333" stroke-miterlimit="8"/><text fill="#FFFFFF" font-family="NanumGothic,NanumGothic_MSFontService,sans-serif" font-weight="400" font-size="19" transform="translate(462.587 242)">Vending Machine</text><path d="M250 224 271.577 224 271.577 157 374.423 157 374.423 224 396 224 323 291Z" fill-rule="evenodd"/><text fill="#FFFFFF" font-family="NanumGothic,NanumGothic_MSFontService,sans-serif" font-weight="400" font-size="19" transform="translate(288.777 206)">₩1,000<tspan font-size="19" x="5" y="23">Button</tspan></text><rect x="272" y="346" width="324" height="64"/><text fill="#FFFFFF" font-family="NanumGothic,NanumGothic_MSFontService,sans-serif" font-weight="400" font-size="19" transform="translate(358.704 385)">If(money &gt;= 900)</text><path d="M471 533 492.577 533 492.577 466 595.423 466 595.423 533 617 533 544 600Z" fill-rule="evenodd"/><text fill="#FFFFFF" font-family="NanumGothic,NanumGothic_MSFontService,sans-serif" font-weight="400" font-size="19" transform="translate(511.694 516)">Orange <tspan font-size="19" x="11.3333" y="23">Juice</tspan></text></g></svg>