<?xml version="1.0"?>
<svg width="800" height="420" xmlns="http://www.w3.org/2000/svg" xmlns:svg="http://www.w3.org/2000/svg">
 <!-- Created with SVG-edit - https://github.com/SVG-Edit/svgedit-->
 <g class="layer">
  <title>Layer 1</title>
  <path d="m68.9343,35.534613c0.562941,3.089912 0.979247,4.324502 1.494343,5.100061c1.086078,1.635255 1.974651,2.233648 3.197529,3.19496c1.194165,0.938739 2.307989,1.849269 2.995103,2.498785c1.06544,1.007139 2.185669,2.153636 3.015864,2.983831c0.891687,0.891687 1.8449,1.844853 2.344526,2.344526c1.590753,1.590894 2.717491,2.719556 3.287974,3.304378c1.157023,1.186112 1.732128,1.789866 2.291749,2.406539c1.654901,1.823611 2.658856,3.069532 3.148594,3.687701c0.969388,1.223611 1.433978,1.843446 2.822657,3.689753c0.461599,0.613718 1.363179,1.834783 2.274061,2.978705c0.853994,1.072478 2.046675,2.442449 2.821895,3.084786c0.979851,0.811897 2.603493,1.599703 3.49962,2.084702c1.08382,0.586599 2.110811,1.720668 2.166198,3.126038c0.056184,1.425603 0,2.642024 0,4.220931c0,1.086166 0,2.598966 0,3.941372c0,1.533549 0,2.568727 0,4.393107c0,1.217618 0,2.613569 0,3.997228c0,1.383659 0,2.613569 0,3.997228c0,1.261943 0,2.744762 0,3.859888c0,1.520998 0,2.75092 0,4.288316c0,1.213512 0.033429,2.818974 0,4.144045c-0.032045,1.270071 -0.698474,2.485765 -1.537396,3.574958c-0.678839,0.881347 -1.437297,2.41275 -1.523567,3.569844c-0.116731,1.565652 0.377652,3.422358 -0.684141,4.029765c-1.153985,0.660154 -2.714008,0.055351 -4.198117,0.055351c-1.02902,0 -2.818552,0 -4.032076,0c-1.115126,0 -2.694033,0 -4.167363,0c-1.332929,0 -2.37016,0 -3.468877,0c-1.655781,0 -3.19394,0 -4.552234,0c-1.459501,0 -2.676609,0 -4.157123,0c-1.402103,0 -2.442149,0 -3.634402,0c-1.988368,0 -3.058395,0 -4.456399,0c-1.539449,0 -2.823942,0 -3.72127,0c-1.838466,0 -3.254411,0 -4.254741,0c-1.074126,0 -2.876214,0 -4.209137,0c-1.400567,0 -2.114688,0 -3.54754,0c-2.092396,0 -3.414558,0 -4.675222,0c-1.199167,0 -2.882618,0 -4.420782,0c-0.928077,0 -2.280243,-0.668881 -4.00287,0.032021c-1.150097,0.467956 -1.917663,1.655687 -2.215385,2.867757c-0.320043,1.302949 -0.176868,2.448255 -0.184744,3.696674c-0.012914,2.046241 -0.004264,3.491503 -0.01845,4.237059c-0.029253,1.537607 -0.034086,2.332005 -0.239831,4.79668c-0.07135,0.854698 -0.289828,2.613217 -0.414071,3.521659c-0.127305,0.930822 -0.270416,1.883543 -0.561662,3.866046c-0.307422,2.092607 -0.462191,3.18377 -0.610861,4.304702c-0.152224,1.147734 -0.298138,2.321929 -0.431237,3.521413c-0.135527,1.221418 -0.262117,2.464605 -0.362057,3.728953c-0.203869,2.579166 -0.256903,3.894537 -0.309527,5.220991c-0.052976,1.335299 -0.090205,2.677119 -0.129147,4.021824c-0.038947,1.344729 -0.072928,2.686666 -0.129141,4.021848c-0.111189,2.640945 -0.204748,3.940094 -0.309527,5.225097c-0.103864,1.273766 -0.227416,2.536108 -0.362057,3.788902c-0.133915,1.246014 -0.280239,2.485202 -0.431237,3.719722c-0.301185,2.4624 -0.460244,3.691384 -0.610861,4.919687c-0.150198,1.224878 -0.296516,2.445111 -0.431237,3.659761c-0.133786,1.206228 -0.260416,2.40319 -0.362057,3.590581c-0.199734,2.3334 -0.257839,3.480395 -0.30748,4.614253c-0.049214,1.124099 -0.079687,2.242474 -0.09916,3.357659c-0.019474,1.115067 -0.027042,2.233325 -0.02998,3.357682c-0.005959,2.279445 -0.00205,3.439671 -0.00205,4.612189c0,1.181737 0,2.369644 0,3.560601c0,1.19098 0,2.378863 0,3.560624c0,2.332743 0,3.477838 0,4.606042c0,2.199497 0,3.267718 0,4.312901c0,1.020575 0,2.015017 0,4.826907c0,0.879916 0,2.568997 0,3.384331c0,1.587621 0,2.366055 0,4.675738c0,0.765109 0,2.273792 0,3.733304c0,1.385712 0,3.273629 0,4.407206c0,1.08436 0,2.168743 0,3.902935c0,1.283197 0,2.640218 0,4.021824c0,1.356998 0,3.24006 0,4.353649c0,1.009034 0,2.353505 0,3.899088c0,1.451302 0,3.099401 0,4.077187c0,1.61657 0,2.740411 0,4.4031c0,1.045418 0,2.498269 0,3.812736c0,1.539437 0,2.884166 0,4.437702c0,1.198135 0,2.734757 0,3.924705c0,1.390568 0,2.539533 0,4.067944c0,1.176623 0,2.835231 0,4.153029c0,1.383647 0,2.613569 0,3.997239c0,1.383647 0,2.83136 0,4.371056c0,1.136907 0,2.495196 0,4.033366c0,1.100781 0,2.226147 0,3.879617c0,1.50127 0,2.767318 0,3.881165c0,1.855122 0,3.09119 0,4.354916c0,1.585064 0,2.622812 0,4.283202c0,1.162266 0,2.562311 0,3.945982c0,1.390568 0,2.954097 0,4.029261c0,1.505351 0,2.751671 0,4.096376c0,1.533314 0,2.75784 0,3.913187c0,1.68704 -0.231629,3.047228 0.000255,4.411053c0.222472,1.308438 1.850771,1.383905 2.876982,1.383905c1.827195,0 2.872624,0 4.10254,0c1.414408,0 3.013295,0 3.880901,0c1.848976,0 2.818048,0 3.808642,0c1.005972,0 3.039434,0 5.060598,0c0.991363,0 1.965818,0 3.857841,0c0.914489,0 1.805923,0.000094 3.51346,0c2.351446,-0.000141 3.083167,0.010251 4.507644,-0.016398c1.424935,-0.026649 2.158533,-0.041381 4.519943,-0.239819c0.868609,-0.073004 2.716617,-0.285658 3.685654,-0.397674c0.99063,-0.114502 1.995717,-0.237614 3.011759,-0.341302c3.037082,-0.309961 4.031249,-0.361336 5.011399,-0.410998c0.970327,-0.04917 2.896406,-0.102257 3.857836,-0.114807c0.964427,-0.012597 1.93507,-0.015366 4.914291,-0.016398c1.024164,-0.000352 2.066779,0 3.129369,0c1.084125,0 2.191299,0 3.32308,0c3.558302,0 4.802827,0 6.073484,0c1.292181,0 2.601276,0 3.922664,0c1.329082,0 2.661237,0 3.991856,0c2.638165,0 3.938041,0 5.227149,0c1.28295,0 2.564376,0 3.848863,0c1.292181,0 2.596667,0 3.918054,0c2.711967,0 4.110745,0 5.538729,0c1.455654,0 2.937453,0 4.443848,0c1.529455,0 3.080422,0 4.651388,0c3.195734,0 4.817172,0 6.450913,0c1.642961,0 3.29208,0 4.944271,0c1.65218,0 3.301299,0 4.94426,0c3.255179,0 4.860735,0 6.444767,0c1.556363,0 3.078898,0 4.561459,0c1.436441,0 2.820605,0 4.146355,0c2.451633,0 3.568811,0 4.624493,0c1.00955,0 1.988357,0 2.951798,0c0.96343,0 1.942237,0 2.951798,0c2.172848,0 3.36255,0 4.618347,0c1.311136,0 2.666867,0 4.056403,0c1.412619,0 2.83753,0 4.263966,0c2.81447,0 4.184042,0 5.53053,0c1.331146,0 2.654575,0 3.978027,0c1.331123,0 2.677635,0 4.047183,0c2.839055,0 4.321112,0 5.840069,0c1.546616,0 3.111693,0 4.685967,0c1.574297,0 3.139374,0 4.68599,0c3.000991,0 4.438969,0 5.8339,0c1.354957,0 2.673037,0 3.957266,0c1.253498,0 2.479314,0 3.680522,0c2.340954,0 3.486823,0 4.620399,0c1.124334,0 2.242544,0 3.357659,0c1.115138,0 2.233325,0 3.357682,0c2.279445,0 3.439694,0.002534 4.612189,-0.004082c1.181761,-0.006686 2.369879,-0.021019 3.560601,-0.059961c1.191262,-0.038942 2.380482,-0.091865 3.560624,-0.198321c2.336614,-0.210801 3.480114,-0.408136 4.610124,-0.610867c1.121307,-0.201183 2.228375,-0.433824 3.327702,-0.664166c1.091984,-0.228817 2.174725,-0.467604 3.258522,-0.664142c2.149319,-0.389768 3.229269,-0.51044 4.304691,-0.612908c1.070378,-0.101975 2.137801,-0.169678 3.198561,-0.228301c1.052667,-0.058178 2.096842,-0.099723 3.129381,-0.159121c2.028061,-0.116661 3.020063,-0.205405 3.997216,-0.313644c0.96669,-0.107089 1.922003,-0.237825 2.866478,-0.39202c0.939431,-0.153374 1.872435,-0.326828 2.797298,-0.530404c1.852073,-0.407691 2.770274,-0.66555 3.693847,-0.916301c0.927983,-0.251948 1.858031,-0.514944 2.797298,-0.763303c0.944545,-0.249766 1.896809,-0.496482 2.866478,-0.694146c1.962681,-0.40009 2.975327,-0.514405 3.997216,-0.612908c1.031718,-0.099465 2.076198,-0.159473 3.129381,-0.198321c1.060291,-0.039106 2.127221,-0.054073 3.198538,-0.059961c2.150281,-0.011823 3.226242,-0.004105 4.300609,-0.004105c1.071317,0 2.138012,0 3.198561,0c1.052855,0 2.09649,0 3.129381,0c2.02731,0 3.01943,0 3.99928,0c0.970608,0 1.93507,0 2.896435,0c0.961389,0 1.925851,0 2.896459,0c1.971971,0 3.99928,0 5.032148,0c1.043635,0 2.096513,0 3.157062,0c1.066695,0 4.288293,0 5.364489,0c1.076173,0 2.152345,0 3.228518,0c1.076173,0 2.152369,0 4.304714,0c2.152345,0 3.228541,0 4.304714,0c1.076173,0 2.152345,0 3.228518,0c2.152369,0 3.228541,0 5.380887,0c1.075938,0 2.150304,0 3.221621,0c1.066695,0 3.180099,0 4.223734,0c1.032891,0 3.060201,0 4.051312,0c1.923786,0 2.850315,0 4.617326,0c0.834289,0 3.103459,0 4.403077,0c1.164307,0 2.242568,0 3.283904,0c2.162573,0 3.345366,0 4.614206,0c0.670593,0 2.845225,0 4.44413,0c0.845549,0 1.721876,0 3.566724,0c0.968567,0 1.967865,0 4.058748,0c1.090271,0 2.203579,0 4.468715,0c1.136391,0 2.265088,0 3.378396,0c1.090271,0 3.17088,0 5.083429,0c0.898566,0 1.7649,0 3.419168,0c0.79713,0 3.123962,0 4.659294,0c0.763866,0 2.276161,0 3.757678,0c0.725393,0 2.82139,0 4.130204,0c1.210474,0 2.297884,0 4.329322,0c1.227365,0 2.760773,-0.450878 3.820923,0.131205c1.230555,0.675637 0.875295,2.43934 0.875295,3.778392c0,1.120768 0,2.407577 0,4.238865c0,0.929109 0,2.361176 0,3.359465c0,2.150304 0,3.290027 0,4.442065c0,1.139723 0,2.773206 0,4.288293c0,1.43209 0,2.822657 0,4.199407c0,1.335228 0,2.979221 0,4.063065c0,1.229945 0,2.806799 0,4.245809c0,1.383647 0.13775,2.790612 -0.131182,3.974672c-0.278644,1.226802 -0.968661,2.327348 -1.713666,3.87014c-0.471944,0.977341 -0.948862,2.094308 -1.383694,3.443518c-0.491227,1.524212 -0.660225,2.608947 -1.383647,4.393083c-0.402318,0.992214 -1.367226,1.875109 -2.27405,3.074792c-0.862909,1.141599 -1.051705,2.564423 -1.454634,3.574981c-0.619172,1.552926 -0.81463,2.804969 -1.322185,4.085351c-0.414845,1.046497 -1.55302,2.163887 -2.613545,2.986681l-0.897862,0.752277l-1.203014,0.124285" fill="none" id="svg_3" stroke="#000000" stroke-width="5"/>
  <path d="m363.90543,31.534613c-0.978709,2.622046 -1.740107,3.734949 -2.437456,4.841542c-1.00226,1.590476 -1.834994,2.521179 -2.650634,3.550279c-0.561743,0.708757 -1.537371,2.307395 -2.090726,3.628549c-0.542594,1.295451 -1.112432,2.927306 -1.636122,3.940014c-0.741931,1.434707 -1.732819,2.444597 -2.136946,3.80645c-0.314816,1.06091 -0.226287,2.396395 -0.534231,4.273905c-0.236118,1.439573 -0.594195,2.321751 -1.068485,4.273911c-0.30611,1.259984 -1.069292,2.487638 -1.602716,3.739669c-0.513174,1.204507 -0.354458,2.726997 -1.068485,4.00679c-0.712682,1.277354 -1.868816,2.097653 -2.370668,3.23882c-0.560716,1.275024 -1.022338,2.302608 -2.150862,3.435155c-0.898666,0.90187 -1.504821,1.660027 -2.301226,3.514488c-0.477457,1.111784 -0.389454,2.666653 -0.389454,4.210345c0,1.106942 0,2.8189 0,4.193239c0,1.144334 0,2.672791 0,3.845983c0,1.869831 -0.000269,3.138644 0,4.664973c0.000269,1.459541 -0.154437,2.990285 0.709735,4.115238c0.733555,0.954914 2.776923,0.980739 3.638955,1.908838c0.972962,1.047527 0.459446,2.899848 0.459446,4.140341c0,1.442447 -0.282755,2.858482 0.033406,4.369807c0.289749,1.385074 1.718953,2.337665 2.988267,2.435328c1.254934,0.09655 2.709645,0.00214 4.190549,0.00214c1.211672,0 2.57717,0 4.058098,0c0.771693,0 3.154124,0 4.76112,0c0.811507,0 2.466582,0 3.316558,0c1.760845,0 3.624281,0 4.600863,0c2.023693,0 3.05799,0 4.098669,0c1.040704,0 3.096458,0 5.075275,0c0.946673,0 2.769488,0 3.65847,0c1.765125,0 2.654083,0 3.555879,0c2.844567,0 3.848661,0 4.875205,0c1.044177,0 3.166156,0 4.234373,0c1.066602,0 3.175792,0 5.229394,0c1.006784,0 2.002319,0 2.988267,0c1.949446,0 2.916148,0 4.84153,0c1.923279,0 2.884894,0 3.846533,0c1.923254,0 2.884894,0 3.846509,0c2.884625,0 3.844381,0 4.800934,0c1.897087,0 2.834417,0 4.678607,0c1.792906,0 2.666922,0 4.379687,0c0.845158,0 2.52909,0 4.225813,0c1.735216,0 2.62525,0 4.466235,0c0.95736,0 1.943577,0 4.015349,0c1.091987,0 3.404157,0 4.628106,0c1.259189,0 2.540829,0 3.832104,0c1.288047,0 2.560051,0 3.803247,0c1.201499,0 3.428197,0 5.366418,0c0.87695,0 2.50263,0 3.27381,0c1.515092,0 3.885515,0 4.731211,0c1.765125,0 2.678147,0 3.607187,0c1.893345,0 3.81232,0 4.773959,0c1.923254,0 2.884894,0 3.846509,0c1.923279,0 2.884894,0 4.808148,0c1.918999,0 2.870465,0 3.812344,0c1.842038,0 2.735837,0 5.269721,0c1.542873,0 2.274264,0 3.672899,0c1.334512,0 3.272195,0 4.552246,0c1.267211,0 2.508768,-0.000575 3.711881,0c2.248072,0.001076 3.320079,-0.010565 4.402138,0.057691c2.363771,0.149105 3.69733,0.394859 4.397833,0.507525c1.43478,0.230774 2.862346,0.512221 4.906459,0.770373c1.221699,0.15429 2.358709,0.225455 3.442626,0.250033c2.166391,0.049131 3.31871,0.017094 4.521798,0.017094c1.241582,0 2.508792,0 4.42965,0c1.275232,0 2.531218,0 3.755167,0c2.300432,0 3.35126,0 4.767283,0c1.521499,0 3.040871,0 4.438454,0c1.218055,0 3.101423,-0.011653 3.966707,0.007214c1.418957,0.030936 3.53563,0.250155 4.694381,0.447951c1.26479,0.215893 1.940055,0.378938 3.433797,0.582322c2.61087,0.355497 3.609437,0.377752 4.654567,0.42846c1.08602,0.052689 2.203099,0.084714 3.339252,0.103373c2.28478,0.037527 3.411396,0.032318 5.5761,0.033394c1.018816,0.000501 2.937791,0 3.850813,0c0.890572,0 2.630043,-0.000086 3.491757,0c2.629016,0.000269 3.534897,-0.012521 5.393711,0.034189c0.953863,0.023966 1.927485,0.034543 3.910582,0.239334c2.057099,0.212433 3.102376,0.427653 4.162816,0.636821c1.073352,0.211724 2.148563,0.458492 4.312386,0.931706c1.07751,0.235653 2.143134,0.49235 4.261078,0.829139c1.031142,0.163974 3.059775,0.360352 4.055945,0.418849c0.985459,0.057862 2.935296,0.104963 3.902071,0.111114c1.925333,0.012252 3.852916,0.00428 4.82468,0.00428c0.981399,0 2.98587,0 4.015349,0c1.051929,0 3.235903,-0.001577 4.37196,0.000526c1.156892,0.00214 2.324056,-0.009831 4.640383,0.06625c1.128475,0.037062 2.224717,0.079346 3.267158,0.206747c2.764793,0.337902 3.537831,0.591114 4.878678,1.089847c1.180174,0.438952 3.158966,1.368432 4.137138,1.568527c1.457939,0.298247 2.493483,0.26632 4.679903,0.273535c1.172152,0.003864 2.369885,0 3.567667,0c1.740547,0 3.351285,0 4.344961,0c1.370291,0 2.975159,0 4.376997,0c1.620373,0 2.9688,0 4.137138,0c1.923279,0 3.047303,0 4.248264,0c1.252269,0 3.171096,-0.019503 4.439017,0.014417c1.230503,0.032929 2.464773,-0.049522 4.43393,0.69505c1.349601,0.510301 2.060376,1.320793 4.074874,1.961723c1.175087,0.373864 2.524835,0.43938 3.885002,0.500054c0.669543,0.029872 3.064128,0.034189 4.028409,0.034189c1.704206,0 3.038499,0 4.610743,0c1.165745,0 2.395515,0 4.304365,0c1.275795,0 2.513048,0 3.673412,0c1.936093,0 3.239621,0 4.874422,0c1.098639,0 2.442518,0 4.541045,0c1.149653,0 2.3378,0 3.53876,0c1.188146,0 3.427684,0 4.453445,0c1.41837,0 3.085453,0 4.529013,0c1.636073,0 2.901157,0 4.063673,0c1.57919,0 3.158428,0 4.320896,0c1.585891,0 2.901205,0 3.966194,0c2.023986,0 3.290928,0 4.778263,0c1.268801,0 2.863299,-0.17954 4.062304,0.457306c1.212797,0.644158 2.298182,1.729065 3.622692,2.175684c1.500492,0.505972 2.808813,0.537287 4.052473,0.565228c1.665078,0.037417 3.221181,0.004194 4.434712,0.007214c1.449673,0.003607 2.746549,0.016825 4.269393,0.354996c1.270219,0.28207 2.921944,0.286472 3.858492,1.742956c0.900305,1.40009 0.27488,2.747588 0.27488,4.141955c0,1.089847 0,2.965291 0,4.382622c0,0.763158 0,2.406483 0,3.28984c0,2.916148 0,3.98061 0,5.085155c0,1.136594 0,2.297228 0,3.47388c0,1.184674 0,2.369359 0,5.843239c0,1.107749 0,2.194649 0,3.271951c0,1.078891 0,2.170609 0,4.437378c0,1.1975 0,3.776798 0,5.177304c0,1.469433 0,2.996545 0,4.570147c0,1.608854 0,3.241773 0,4.887482c0,1.647323 0,4.90191 0,6.489146c0,1.558354 0,3.091102 0,4.601377c0,1.491077 0,2.96611 0,4.428305c0,1.452608 0,4.341757 0,5.783678c0,1.438693 0,2.871003 0,4.293677c0,1.40986 0,2.803677 0,4.178272c0,1.352169 0,3.976343 0,5.243285c0,1.239698 0,2.456971 0,3.656612c0,1.186801 0,2.365605 0,3.541182c0,1.177215 0,3.555635 0,4.764617c0,1.218593 0,2.440415 0,3.659008c0,1.208982 0,2.401922 0,3.572436c0,1.141681 0,3.312816 0,4.331608c0,0.977144 0,1.918999 0,2.832021c0,0.890572 0,1.765125 0,2.630043c0,0.861739 0,2.60121 0,3.489923c0,0.899914 0,1.806259 0,3.618926c0,0.89671 0,1.78063 0,4.307299c0,1.545025 0,2.281479 0,3.706281c0,1.392765 0,3.505941 0,4.976157c0,0.751151 0,2.269446 0,3.787766c0,0.751126 0,2.93537 0,4.334543c0,1.392765 0,2.817568 0,3.554021c0,2.361595 0,3.205432 0,4.95559c0,0.896734 0,2.709401 0,3.615746c0,2.663425 0,3.530225 0,5.271849c0,0.890841 0,1.805746 0,3.739687c0,2.126259 0,3.278334 0,4.48333c0,1.246644 0,2.523735 0,3.820072c0,1.304334 0,2.605465 0,3.892191c0,2.485266 0,3.663801 0,4.797461c0,2.145506 0,3.16376 0,4.149977c0,0.957335 0,3.688379 0,4.562395c0,1.712766 0,2.557924 0,4.241856c0,0.845158 0,3.431939 0,4.320383c0,1.799314 0,2.697369 0,4.458214c0,0.849976 0,3.201152 0,4.551707c0,1.183891 0,2.703263 0,4.384505c0,1.081838 0.611094,3.0699 -0.183221,4.102949c-0.815249,1.060293 -2.522243,0.596592 -4.118454,0.577517c-1.308125,-0.015627 -2.631168,-0.064367 -4.224786,-0.453038c-1.204042,-0.293662 -2.589496,-0.746822 -4.433098,-0.95308c-0.727649,-0.081412 -2.336772,-0.154094 -3.201128,-0.19447c-1.818511,-0.084934 -2.762054,-0.106406 -4.674621,-0.267103c-1.925822,-0.161822 -2.88575,-0.298651 -3.846509,-0.431664c-1.925186,-0.266565 -2.885212,-0.42824 -3.846509,-0.585538c-2.885114,-0.472089 -3.839759,-0.638851 -4.786529,-0.792016c-1.844092,-0.298333 -2.73124,-0.446142 -4.419501,-0.671793c-1.530328,-0.204546 -2.88125,-0.349225 -4.604042,-0.423912c-0.981351,-0.042553 -3.045395,0.024309 -4.10696,-0.066788c-1.646687,-0.141328 -2.876408,-0.715739 -4.063673,-1.114144c-1.519078,-0.509751 -3.021673,-0.45519 -4.464108,-0.45519c-1.442435,0 -3.042803,-0.31709 -4.194853,0.45519c-1.056331,0.708109 -2.032204,1.138966 -3.741546,1.147526c-1.149947,0.005747 -2.817568,0 -4.060494,0c-1.679604,0 -2.809644,-0.017241 -4.372204,0c-1.514823,0.016703 -2.077446,1.036033 -3.081491,2.226723c-0.852128,1.010501 -2.50664,0.978709 -3.788794,0.978709c-1.397583,0 -2.793014,0 -4.327353,0c-1.173179,0 -3.341111,-0.370207 -3.949075,0.73298c-0.678249,1.23065 -0.057715,2.92549 -0.057715,3.846533c0,2.098478 -0.010858,3.246273 0.017119,4.419208c0.027684,1.160756 0.170455,3.309857 0.555336,4.601401c0.337731,1.133415 1.030262,2.427038 1.688457,3.743404c0.555336,1.110696 1.193918,2.432442 1.99777,3.973946c0.570351,1.093772 1.094041,2.219997 2.152182,3.524625c0.880545,1.085653 1.958495,1.721325 3.205432,2.671201c0.983649,0.749292 2.213957,1.9369 3.170999,3.258598c0.662059,0.914342 1.213971,2.184268 2.139612,3.288776c0.812363,0.969343 2.324007,2.070379 3.283983,2.817543c1.054032,0.820384 2.158443,1.650257 3.692928,2.92258c0.913707,0.757632 1.669284,1.537028 2.855229,2.412095c1.502497,1.108666 2.417231,1.4597 3.786397,2.062675c0.945792,0.416526 2.86599,1.373421 3.81232,1.90616c0.921386,0.518701 2.603631,1.501421 4.143545,1.784371c1.073352,0.197209 2.641879,0.063144 3.94482,0.14957c1.39685,0.092637 2.861881,0.424303 4.276877,1.11791c1.015539,0.497816 2.01753,1.183695 3.625626,2.320485c1.152588,0.814809 2.296959,1.671925 3.423379,2.46174c1.02405,0.718063 2.22819,1.730423 3.688379,2.027997c1.38291,0.281825 2.79409,0.051259 4.423512,0.051259c1.339868,0 2.782547,0 4.040979,0l1.489438,0.017119" fill="none" id="svg_2" stroke="#000000" stroke-width="5"/>
  <text fill="#000000" font-family="Serif" font-size="26" id="svg_1" stroke="#000000" stroke-width="0" text-anchor="middle" x="174.46343" xml:space="preserve" y="63.534613">\1,000</text>
  <text fill="#000000" font-family="Serif" font-size="26" font-weight="normal" id="svg_4" stroke="#000000" stroke-width="0" text-anchor="middle" x="194.502493" xml:space="preserve" y="105.05979">Orange Juice</text>
  <text fill="#000000" font-family="Fantasy" font-size="52" id="svg_5" stroke="#000000" stroke-width="0" style="cursor: move;" text-anchor="middle" x="388.479055" xml:space="preserve" y="240.163092">vending machine</text>
  <text fill="#000000" font-family="Serif" font-size="26" id="svg_6" stroke="#000000" stroke-width="0" text-anchor="middle" transform="matrix(1 0 0 1 0 0)" x="532.479055" xml:space="preserve" y="366.163092">Orange Juice</text>
  <path d="m298,15.111114c0,1.744 -0.006683,2.666726 0.002655,3.338666c0.010895,0.784147 0.023987,1.638393 0.16803,2.496c0.207428,1.234966 0.521332,1.959526 0.850159,2.623667c0.471283,0.951899 0.981934,1.831894 1.217499,2.446167c0.352081,0.918121 0.516602,1.57505 0.640167,2.616667c0.129211,1.089201 0.115112,1.817455 0.120148,2.509501c0.008728,1.198635 0.001343,1.927666 0.001343,2.969334c0,0.810665 0,1.685333 0,2.686665c0,0.855 -0.007935,1.475029 0.000336,2.834499c0.004425,0.727039 -0.01236,1.465553 0.114014,2.169003c0.231354,1.287907 0.743927,2.021763 1.180328,2.643665c0.54422,0.775547 0.703979,1.550163 0.705322,2.512833c0.00116,0.84 0,1.84 0,2.695c0,0.620003 0,1.625 0,2.706501c0,0.730999 0,1.442001 0,2.708836c0,0.771 0,1.640331 0,2.651997c0,0.663002 0,1.724335 0,2.696335c0,0.694668 0,1.389332 0,2.651669c0,0.771 0,1.640335 0,2.652c0,0.662994 0,1.724335 0,2.361664c0,1.070999 0,1.838333 0,3.029335c0,0.802666 0,1.62133 0,2.472c0,0.442329 0,1.861336 0,2.893333c0,0.530998 0,1.593002 0,2.112c0,0.984001 0,2.236664 0,2.893997c0,1.010666 0,2.028671 0,2.828667c0,1 0,1.800003 0,2.800003c0,0.799995 0,1.599998 0,2.599998c0,0.800003 0,1.800003 0,2.599998c0,1 0,1.800003 0,2.800003c0,0.799995 0,1.599998 0,2.599998c0,0.800003 0,1.798668 0,2.564003c0,0.951996 0,1.720001 0,2.661331c0,1.008003 0,1.800003 0,2.659996c0,0.919167 0,1.916 0,2.535507c0,1.145828 0,1.92733 0,2.717827c0,1.11834 0,1.840004 0,2.782173c0,0.964493 0,1.689827 0,2.679329c0,0.820671 0,1.966499 0,2.748001c0,0.790497 0,1.718498 0,2.51017l0,0.941666" fill="none" id="svg_18" stroke="#000000" stroke-width="5"/>
  <path d="m277,96.111115c0.108002,1.708 0.485382,2.509735 1.067017,3.366997c0.463135,0.682617 0.730469,1.027924 1.251648,1.751671c0.761841,1.057938 1.218384,1.716057 1.639679,2.318832c0.553314,0.791672 1.133728,1.612381 1.737152,2.253502c0.67984,0.722351 1.536865,0.99044 2.22052,1.592995c0.597656,0.526741 1.350586,0.942757 1.884003,1.602669c0.573486,0.709496 0.718384,1.514481 1.156311,2.356171c0.430237,0.826912 1.354187,1.122589 2.042847,1.514328c0.892426,0.507652 1.32077,1.073708 1.798157,1.758835c0.603241,0.865784 1.077606,1.378578 1.859833,2.136665c0.546326,0.529488 1.348907,1.17215 1.938324,1.599167c0.75528,0.547195 1.390076,1.286789 1.779175,1.988167c0.384857,0.693741 1.126526,1.469093 1.800018,1.800003c0.967651,0.475449 1.229126,1.340576 2.02533,1.78933c0.798004,0.449768 1.896454,0.417358 2.600006,0c0.819641,-0.486244 1.001221,-1.361206 1.533325,-2.162666c0.42691,-0.643028 0.932739,-1.33252 1.488007,-2.052002c0.284637,-0.368835 1.170715,-1.45507 1.777313,-2.127998c0.58313,-0.646881 1.163208,-1.242104 1.716003,-1.799995c0.760895,-0.767914 1.435638,-1.455101 1.874664,-1.840004c0.980896,-0.859955 1.680847,-1.097908 2.23999,-1.645332c0.730011,-0.714737 0.842438,-1.692917 1.181335,-2.412003c0.470459,-0.998199 0.826843,-1.558929 1.104004,-2.304001c0.37796,-1.016106 0.936432,-1.535553 1.395172,-2.246994c0.463318,-0.718552 1.005737,-1.478752 1.8685,-1.995499c0.689636,-0.413048 0.930176,-1.255371 1.078827,-2c0.184601,-0.924751 0.479523,-1.635452 0.890167,-2.481171c0.389923,-0.802986 1.152679,-1.20433 1.652679,-1.911003l0.695496,-0.740829l0.647339,-0.471504" fill="none" id="svg_19" stroke="#000000" stroke-width="5"/>
  <path d="m637,255.111115c0,2.429321 0,3.451996 0,4.037323c0,0.629333 0,1.298676 0,2.741333c0,1.554688 0,2.364014 0,3.189331c0,0.837341 0,1.682678 0,2.532013c0,0.849335 0,1.694672 0,2.532013c0,1.634644 0,2.425323 0,3.199982c0,0.762665 0,1.517334 0,2.268005c0,0.750671 0,1.505341 0,2.268005c0,1.565338 0,2.374817 0,3.201324c0,0.840515 0,1.692017 0,2.551514c0,0.864502 0,1.730988 0,2.596497c0,1.716003 0,2.561005 0,3.395996c0,0.824982 0,1.639984 0,2.445007c0,0.794983 0,1.579987 0,2.35498c0,1.52002 0,2.26535 0,3.002686c0,0.731323 0,1.458649 0,2.18399c0,0.725342 0,1.452667 0,2.18399c0,1.482666 0,2.237 0,2.997345c0,0.762329 0,1.522675 0,2.277008c0,0.744324 0,1.47467 0,2.186981c0,1.990326 0,2.600006 0,3.187683c0,1.125336 0,1.67099 0,2.748322c0,1.085327 0,2.20401 0,2.775848c0,0.578827 0,1.753479 0,2.347321c0,0.596832 0,2.395172 0,2.992828c0,0.593658 0,1.761017 0,2.330658c0,1.101349 0,2.138672 0,3.102692c0,0.90799 0,1.783997 0,2.217499c0,1.318481 0,2.237152 0,3.187836c0,0.484833 0,1.468475 0,2.963989c0,0.499664 0,1.490997 0,1.978668c0,0.949341 0,1.850677 0,3.078339c0,0.728668 0,1.721649 0,2.340332c0,1.205322 0,1.824005 0,2.816986c0,1.119019 0,1.952332 0,2.825684c0,0.439148 0,1.297485 0,2.795654c0,0.597351 0,1.608002 0,2.585999c0,0.825012 0,1.425018 0,2.744995c0,0.716003 0,1.447998 0,2.171997c0,1.328003 0,2.15152 0,2.876007c0,0.951996 0,1.738007 0,2.559998c0,1.058685 0,2 0,2.678009c0,1.232666 0,1.783325 0,2.651825c0,1.195343 0,2.084839 0,2.659515c0,1.069336 0,2.021332 0,2.745819c0,1.132843 0,1.795502 0,2.839508c0,0.682678 0,1.880005 0,2.609009c0,1.041656 0,1.830994 0,2.556335c0,1.074646 0,1.985321 0,2.885315l0,0.90451" fill="none" id="svg_21" stroke="#000000" stroke-width="5" transform="matrix(1 0 0 1 0 0)"/>
  <path d="m609,367.111115c1.671997,0.108002 2.555542,0.651062 3.014343,1.080505c0.542603,0.507843 1.120361,1.127106 1.985657,2.252838c0.309204,0.402313 0.898682,1.269897 1.189331,1.717316c0.581055,0.894531 0.849548,1.346466 1.643982,2.615997c0.479004,0.765503 0.934692,1.469513 1.356018,2.14801c0.41333,0.665558 1.009705,1.707306 1.415161,2.437988c0.4151,0.748016 0.609192,1.136017 1.080872,1.863342c0.703308,1.084412 1.262329,1.731201 1.814636,2.363159c0.54248,0.620667 1.342041,1.513916 1.813354,2.118164c0.448425,0.57489 0.996155,1.410248 1.665466,2.26001c0.520203,0.660431 0.993774,1.107452 1.787842,1.910675c0.475281,0.480743 1.223694,1.18573 1.733337,1.898651c0.538147,0.752838 1.05542,1.559296 1.721313,1.93335c0.958069,0.538177 1.588196,0.76535 2.293335,1.199982c0.887573,0.547058 1.643738,1.126434 2.527039,1.158356c0.646118,0.023346 1.679871,-0.170135 2.458313,-0.583344c0.581238,-0.308563 1.360962,-1.192047 1.817322,-1.997681c0.249939,-0.441254 0.697876,-1.421692 0.944031,-1.922668c0.496704,-1.010925 1.040649,-1.979156 1.706665,-2.798645c0.322632,-0.396942 1.029053,-1.096649 1.726624,-1.742493c0.335938,-0.311035 1.287964,-1.191956 1.786499,-1.813507c0.698914,-0.871338 1.058411,-1.486267 1.497375,-2.399506c0.411682,-0.856415 0.56958,-1.740784 1.221497,-2.447174c0.672791,-0.729034 1.204346,-1.147766 1.614319,-1.719482c0.700134,-0.976349 1.195007,-1.491455 1.706482,-2.054688c0.530457,-0.584137 1.327148,-1.467743 1.792542,-2.080505c0.45459,-0.598511 1.065796,-1.536774 1.519958,-2.565308c0.309753,-0.701508 0.515747,-1.431854 0.756042,-2.100006c0.38678,-1.075562 1.100708,-1.711578 1.385315,-2.594666c0.204041,-0.632996 0.535461,-1.62796 1.125488,-2.238831c0.645508,-0.668304 1.232483,-1.210876 1.920654,-1.941498c0.390076,-0.414093 1.179016,-1.379669 1.574707,-1.911011l0.568481,-0.821991l0.350647,-0.541351" fill="none" id="svg_22" stroke="#000000" stroke-width="5"/>
 </g>
</svg>